<svg width="727" height="374" viewBox="0 0 727 374" fill="none" xmlns="http://www.w3.org/2000/svg">
<path opacity="0.45" d="M559.367 -26.2376C560.441 -25.5046 574.55 -29.4735 576.683 -30.579C578.816 -31.6846 595.571 -45.7854 600.129 -49.8336C604.687 -53.8818 612.768 -55.3091 625.93 -49.2401C639.092 -43.1711 653.018 -32.4382 660.149 -35.134C662.139 -36.1857 665.841 -40.0359 667.47 -43.1421C669.098 -46.2483 666.715 -51.5149 665.53 -52.3123C664.344 -53.1098 661.235 -60.8517 660.01 -62.2665C658.784 -63.6814 650.734 -73.4287 647.212 -74.6993C643.689 -75.97 636.301 -77.1626 635.874 -78.2889C635.447 -79.4151 637.829 -83.1003 638.911 -85.0864C639.993 -87.0725 644.765 -89.3875 640.92 -97.6546C639.503 -100.777 637.285 -102.272 636.052 -103.245C634.819 -104.218 631.56 -111.527 636.157 -113.733C640.754 -115.938 642.039 -115.764 641.202 -119.121C640.366 -122.477 638.451 -127.225 639.615 -128.904C640.78 -130.582 643.321 -136.132 645.434 -136.964C647.546 -137.797 651.228 -136.632 653.381 -138.309C655.533 -139.985 660.859 -148.887 663.042 -154.545C663.93 -156.087 672.759 -153.38 675.429 -153.828C678.099 -154.276 681.509 -157.986 683.068 -159.188C684.626 -160.391 686.588 -159.095 686.284 -157.129C685.98 -155.163 684.4 -151.819 686.143 -150.401C687.887 -148.984 700.484 -153.27 702.706 -153.928C704.928 -154.586 710.36 -152.21 723.023 -155.085C725.96 -155.997 734.706 -148.274 738.4 -148.997C742.093 -149.719 745.832 -150.8 753.291 -156.363C755.744 -158.324 763.752 -158.444 768.164 -150.988C772.575 -143.533 780.361 -134.248 779.588 -133.507L778.811 -132.781C773.824 -129.104 771.9 -120.783 769.69 -118.385C767.48 -115.987 762.106 -110.888 759.855 -106.657C757.603 -102.425 762.512 -89.9519 762.538 -88.9221C762.563 -87.8923 764.671 -81.9553 765.646 -81.1802C766.622 -80.4051 772.856 -79.0758 772.863 -78.7006C772.869 -78.3254 772.626 -77.3023 769.899 -78.2364C767.172 -79.1705 763.086 -79.9131 760.726 -79.1865C758.366 -78.4598 755.439 -80.1413 755.103 -74.4917C754.768 -68.8422 753.505 -65.1901 752.933 -62.9952C752.361 -60.8003 751.515 -57.0557 754.081 -51.8068C756.648 -46.558 764.908 -33.1606 761.762 -31.1554C761.762 -31.1554 754.451 -28.3169 753.338 -30.6571C752.225 -32.9973 751.13 -37.0855 748.342 -37.3122C745.554 -37.5389 742.939 -37.5292 739.88 -36.5998C736.822 -35.6704 732.173 -33.0741 731.527 -30.7493C730.88 -28.4244 726.314 -20.7777 726.318 -19.7108C726.322 -18.6439 715.802 -15.7307 714.703 -16.2058C713.604 -16.6808 707.157 -9.50379 704.734 -3.68767C702.311 2.12845 700.216 9.22329 698.291 9.64478C696.366 10.0663 693.202 11.0084 693.026 12.5161C692.85 14.0238 690.304 19.0877 689.337 19.4567C688.37 19.8258 691.146 24.0447 692.608 25.1135C694.07 26.1824 702.957 30.3344 711.795 28.4533C720.632 26.5721 722.236 27.1162 722.236 27.1162C722.236 27.1162 723.869 31.7511 727.506 31.1692C731.144 30.5872 736.367 30.8366 737.325 29.3235C738.283 27.8104 737.526 24.9823 740.53 24.9626C743.534 24.9429 743.479 28.3656 743.401 30.2396C743.324 32.1137 734.63 45.0598 734.63 45.0598C734.63 45.0598 736.408 51.6976 736.229 52.1384C736.049 52.5791 734.314 54.4104 734.134 54.8512C733.954 55.2919 735.639 61.1697 735.449 62.6813C735.449 62.6813 730.043 79.5362 735.688 89.7239C734.704 90.3802 737.242 103.536 731.852 108.106C726.462 112.675 721.805 120.739 723.51 124.177C725.215 127.615 729.256 132.579 730.007 136.084C730.758 139.589 734.38 146.613 737.016 148.435C739.651 150.257 742.032 154.111 743.027 155.603C744.023 157.095 748.378 164.692 748.621 165.6C748.865 166.509 750.766 170.679 752.159 175.175C753.551 179.67 754.369 187.052 753.245 190.871C752.121 194.69 747.424 204.712 739.003 208.147C730.582 211.581 723.208 215.3 720.434 217.991C717.66 220.682 709.439 219.775 705.503 219.652C701.567 219.528 696.027 219.851 693.824 221.807C691.621 223.764 690.538 226.975 687.239 226.305C683.94 225.634 681.139 225.3 677.386 226.212C673.634 227.123 671.259 225.514 668.086 224.903C664.913 224.293 659.201 232.749 658.371 234.04C657.541 235.33 653.573 239.707 644.577 236.668C635.581 233.629 626.37 228.967 622.482 228.265C618.595 227.563 604.609 224.385 599.25 221.816C593.891 219.247 585.969 212.905 584.321 211.493C582.673 210.082 572.068 205.715 570.796 204.595C569.524 203.475 561.297 197.105 556.205 194.072C551.113 191.039 548.576 188.122 545.859 186.698C543.143 185.275 533.043 187.887 531.031 188.332C529.018 188.777 517.393 190.431 514.58 193.038C511.768 195.645 502.91 206.106 501.545 206.865C500.181 207.623 494.524 212.248 492.589 212.28C490.654 212.311 485.07 215.457 485.055 216.45C485.039 217.444 486.455 222.027 489.429 222.597C492.403 223.166 496.398 224.624 499.335 226.868C502.272 229.112 510.376 239.411 512.913 240.867C515.451 242.323 517.713 246.789 517.061 248.33C516.408 249.872 513.818 255.827 512.847 257.642C511.876 259.457 511.506 264.629 513.451 271.127C514.083 273.487 513.884 274.906 512.588 275.159C511.292 275.412 509.333 276.817 504.844 275.68C500.354 274.543 492.129 272.161 486.463 272.422C480.797 272.684 464.935 270.872 463.284 270.152C461.634 269.433 449.684 262.976 447.083 261.631C444.481 260.287 434.336 254.713 431.409 252.859C428.483 251.004 422.702 243.586 421.332 242.1C419.962 240.613 418.827 235.264 416.725 233.974C414.624 232.684 408.477 232.964 407.422 230.137C406.367 227.311 408.265 223.865 407.091 221.651C405.918 219.437 402.447 215.2 401.845 214.765C401.242 214.329 400.83 212.791 399.545 211.973C398.26 211.155 390.695 208.015 389.325 206.529C388.78 205.607 388.409 203.461 387.434 202.748C386.459 202.036 383.175 201.361 382.979 200.628C382.783 199.896 381.876 198.678 381.406 198.034C380.936 197.391 381.744 196.781 381.572 196.137C381.399 195.492 378.697 193.012 377.032 191.888C375.367 190.763 367.965 188.176 366.426 187.521C364.887 186.865 363.629 183.983 361.352 182.74C359.075 181.497 358.11 184.095 355.496 182.644C352.881 181.193 345.786 177.645 344.129 177.602C342.472 177.559 338.999 179.165 337.616 179.441C336.232 179.718 335.196 178.425 335.224 177.067C335.252 175.709 335.556 175.031 336.587 174.55C337.618 174.07 337.045 169.355 336.737 168.558C336.429 167.761 334.969 162.31 332.871 158.867C330.773 155.425 331.149 154.256 330.388 153.58C329.627 152.905 326.619 153.318 326.474 152.776C326.329 152.234 326.616 150.79 327.594 149.35C327.597 147.198 324.488 145.016 322.621 142.783C320.753 140.551 302.022 131.247 296.547 129.008C291.073 126.768 287.842 125.592 283.007 126.793C278.173 127.995 274.651 129.708 268.377 136.069C262.103 142.43 253.732 148.568 246.364 149.38C238.995 150.192 228.325 148.858 222.611 143.856C216.898 138.854 215.767 138.67 217.244 128.914C218.721 119.158 221.522 101.65 215.864 96.9154C210.207 92.1807 206.764 88.9256 204.016 89.0809C201.268 89.2363 191.049 92.1629 184.519 96.4567C177.989 100.751 171.058 106.88 160.678 108.797C150.299 110.714 138.86 112.303 128.787 106.71C118.73 101.113 114.072 97.8847 109.227 95.7748C104.383 93.6648 104.217 92.343 102.066 92.621C99.9144 92.899 93.063 94.939 91.3505 95.0995C89.638 95.26 87.8011 95.6579 84.0928 97.4368C80.3846 99.2157 75.1979 103.432 74.493 103.024C73.7881 102.617 76.6706 88.9818 77.5334 86.4105C78.3961 83.8393 85.8202 54.1621 85.6351 46.2178C85.45 38.2736 85.2281 8.0223 82.97 -7.65874C82.1058 -23.2265 80.7954 -40.8105 80.8878 -42.6884C80.9802 -44.5664 83.7481 -57.4009 82.8829 -60.2787C82.0178 -63.1564 76.664 -79.8612 75.9383 -89.1212C75.2126 -98.3812 74.2768 -111.291 74.2569 -114.992C72.918 -119.989 61.3839 -162.333 61.5231 -163.627C61.6623 -164.92 67.45 -185.788 68.8318 -188.295C70.2135 -190.801 73.9415 -193.559 74.6755 -194.446C75.4094 -195.334 82.3394 -197.081 85.6236 -196.406C88.9078 -195.731 92.2171 -194.671 92.5827 -194.769C92.9484 -194.867 102.547 -197.533 103.169 -197.024C103.792 -196.516 110.588 -194.725 116.1 -195.62C121.613 -196.516 128.743 -195.993 134.296 -197.088C139.849 -198.183 148.893 -202.161 153.444 -205.532C157.995 -208.904 165.678 -209.596 169.579 -208.49C173.481 -207.383 188.539 -203.424 190.332 -201.47C192.125 -199.517 201.298 -183.066 209.265 -181.29C217.233 -179.514 227.071 -179.826 237.906 -187.299C240.196 -189.28 260.29 -192.323 270.521 -187.951C280.752 -183.578 307.413 -167.902 310.264 -164.865C313.116 -161.829 317.97 -157.868 319.134 -155.746C320.298 -153.624 324.324 -155.974 326.5 -157.327C328.677 -158.68 336.232 -159.149 339.78 -158.247C343.329 -157.345 349.588 -157.561 356.29 -153.609C362.991 -149.656 365.961 -145.474 370.017 -145.194C374.074 -144.915 379.149 -144.516 382.201 -145.82C385.252 -147.125 388.914 -150.54 391.381 -154.028C393.847 -157.516 397.29 -164.673 397.976 -164.276C398.663 -163.879 400.665 -161.494 401.734 -161.482C402.803 -161.471 403.9 -161.764 406.666 -159.396C409.433 -157.028 418.786 -152.891 420.581 -152.272C422.377 -151.654 422.665 -151.983 423.444 -153.228C424.224 -154.473 427.092 -155.116 427.811 -154.131C428.529 -153.146 429.209 -148.208 429.515 -147.772C429.82 -147.335 435.834 -147.643 437.358 -143.183C438.883 -138.723 439.868 -133.584 440.77 -132.146C441.673 -130.707 446.569 -128.171 448.67 -125.42C450.77 -122.669 457.258 -118.754 460.929 -119.094C464.6 -119.433 470.66 -120.272 472.592 -118.387C474.523 -116.501 473.7 -115.244 477.302 -111.922C480.904 -108.6 486.99 -106.006 490.076 -105.136C493.162 -104.267 504.297 -98.8015 508.222 -95.5028C512.146 -92.2041 517.6 -87.352 518.546 -83.5852C519.493 -79.8183 517.647 -76.5283 516.802 -75.0612C515.957 -73.594 511.267 -65.7098 513.19 -59.4718C515.112 -53.2336 524.599 -41.3428 528.823 -37.9202C533.047 -34.4976 535.988 -32.2388 538.039 -30.9036C540.089 -29.5685 542.301 -31.1978 545.572 -31.1004C548.843 -31.0031 557.456 -28.631 558.214 -27.7346C558.971 -26.8382 559.359 -26.2669 559.359 -26.2669L559.367 -26.2376Z" fill="#F8EEDD" stroke="#AA813B" stroke-width="0.3" stroke-miterlimit="10"/>
<path opacity="0.45" d="M690.675 20.9393C688.222 21.6904 684.244 21.114 681.811 20.4054C679.377 19.6967 670.097 18.7895 668.932 18.8045C667.767 18.8195 663.827 18.0298 662.735 16.1953C661.643 14.3609 654.767 8.03929 653.019 8.11685C651.27 8.19441 642.196 10.532 640.13 10.898C638.063 11.264 633.246 13.0395 631.843 13.9941C630.44 14.9487 625.469 15.7959 622.149 15.1372C618.828 14.4786 616.628 14.2861 614.731 13.0428C612.834 11.7995 607.43 9.5565 607.303 8.73024C607.177 7.90397 602.23 9.90198 600.3 8.18263C598.37 6.46327 594.756 2.8805 594.052 2.08363C593.349 1.28677 590.127 -2.30718 589.037 -5.31503C587.946 -8.32289 584.175 -16.1488 582.953 -16.6974C581.732 -17.246 578.836 -17.4397 577.05 -19.6825C575.264 -21.9253 574.351 -22.4468 573.563 -22.439C572.775 -22.4312 566.741 -20.4233 564.638 -22.0807C562.535 -23.7381 561.435 -26.3681 561.435 -26.3681" stroke="#AA813B" stroke-width="0.3" stroke-miterlimit="10"/>
<path opacity="0.45" d="M734.023 57.8008C730.56 55.7069 725.54 55.7773 723.649 55.5915C721.758 55.4056 710.742 58.373 709.498 57.3373C708.253 56.3016 707.119 55.3306 706.169 55.3962C705.219 55.4618 703.098 58.3753 701.693 58.5471C700.288 58.719 696.35 56.6579 694.079 57.2663C691.809 57.8748 688.588 62.452 685.817 63.289C683.046 64.126 679.755 60.5221 678.403 60.1919C677.051 59.8618 671.467 60.6813 669.772 61.2297C668.078 61.7781 664.499 63.6184 662.548 61.4027C660.597 59.187 658.272 58.8343 656.918 59.197C655.564 59.5598 651.872 57.7162 650.552 56.4015C649.232 55.0868 646.321 54.7022 644.947 55.7471C643.573 56.792 639.865 59.5483 637.238 57.7185C634.61 55.8887 628.786 52.5544 627.525 52.2155C626.264 51.8766 618.006 49.5881 615.789 47.837C613.573 46.0859 610.911 47.6805 608.916 48.2149C606.922 48.7493 602.421 50.3489 601.112 49.4247C599.803 48.5005 596.6 44.8732 595.379 43.9256C594.158 42.978 588.731 38.9708 589.062 37.7017C589.393 36.4327 590.426 35.5734 591.143 34.9879C591.86 34.4024 593.092 33.5844 593.023 32.6272C592.953 31.6699 592.984 27.0661 593.358 25.2031C593.733 23.34 593.993 21.8066 595.346 21.4439C596.7 21.0811 598.916 20.6761 599.568 19.1481C600.219 17.62 602.955 8.67144 602.955 8.67144" stroke="#AA813B" stroke-width="0.3" stroke-miterlimit="10"/>
<path opacity="0.45" d="M735.109 92.0017C727.173 93.2222 721.899 93.7294 719.852 96.2147C717.806 98.7 713.706 104.578 711.821 105.224C709.936 105.869 700.192 107.559 695.494 112.191C690.795 116.824 689.31 121.346 690.746 124.319C692.182 127.293 692.437 131.098 690.284 132.721C688.131 134.345 682.325 132.402 679.828 132.68C677.33 132.959 674.911 131.67 674.577 134.728C674.242 137.785 676.904 141.726 677.993 142.356C679.081 142.986 678.991 145.384 674.303 147.031C669.615 148.678 663.61 149.365 661.875 149.58C660.139 149.795 659.484 152.064 661.434 156.43C663.384 160.797 665.37 163.904 670.42 166.284C675.469 168.664 687.784 177.095 690.806 177.55C693.828 178.006 702.015 181.622 703.818 181.483C705.62 181.344 708.8 180.585 709.638 179.002C710.477 177.418 709.002 173.018 708.662 171.75C708.322 170.482 706.871 165.592 707.144 164.457C707.417 163.321 708.555 159.424 709.228 158.853C709.902 158.282 718.023 155.716 718.922 156.396C719.822 157.077 721.45 162.748 721.998 164.444C722.546 166.14 723.449 170.787 722.817 172.909C722.185 175.031 721.814 178.941 722.958 179.603C724.102 180.265 725.939 181.71 727.665 180.529C729.391 179.348 736.57 173.675 736.93 173.391C737.291 173.107 741.747 170.07 742.941 169.641C744.136 169.211 749.378 167.479 749.378 167.479" stroke="#AA813B" stroke-width="0.3" stroke-miterlimit="10"/>
<path opacity="0.45" d="M621.412 227.62C622.133 226.653 624.155 225.415 625.298 224.784C626.44 224.153 628.835 217.756 628.957 217.212C629.08 216.669 629.165 215.037 628.709 214.339C628.253 213.641 629.902 211.714 630.096 210.965C630.291 210.217 630.633 206.598 630.637 205.436C630.642 204.274 630.268 201.11 633.089 200.432C635.909 199.753 637.383 196.465 637.65 194.985C637.917 193.506 642.866 197.115 644.448 197.651C646.029 198.187 652.074 198.81 658.519 197.207C664.963 195.604 665.979 195.27 665.845 194.532C665.71 193.795 666.079 190.277 665.284 190.258C662.988 190.239 660.874 190.666 661.628 189.056C662.382 187.446 663.537 184.444 665.175 183.247C666.814 182.05 666.037 181.097 664.219 179.914C662.401 178.73 660.948 177.2 661.596 174.783C662.244 172.366 662.497 169.359 664.032 167.539C665.567 165.72 666.864 164.661 666.864 164.661" stroke="#AA813B" stroke-width="0.3" stroke-miterlimit="10"/>
<path opacity="0.45" d="M663.783 161.77C661.435 160.796 657.316 159.651 656.278 156.659C655.241 153.666 652.849 149.48 651.59 147.711C650.332 145.941 644.818 142.403 643.794 136.765C642.77 131.128 638.208 128.451 637.3 127.814C636.392 127.176 632.906 125.233 632.332 123.091C631.758 120.95 624.191 117.946 623.564 117.831C622.937 117.716 618.789 115.117 617.657 111.945C616.525 108.774 608.437 104.998 607.301 103.101C606.165 101.204 604.245 96.2626 603.21 93.8042C602.175 91.3458 598.222 87.7195 595.78 88.0908C593.338 88.4622 582.984 91.2206 581.931 92.3834C580.877 93.5461 578.415 103.97 580.036 108.205C581.657 112.441 584.248 120.646 583.857 123.58C583.467 126.515 581.743 135.656 582.572 138.752C583.402 141.847 586.256 149.572 587.296 151.637C588.335 153.701 588.423 155.14 586.821 155.663C585.22 156.186 582.895 161.621 582.696 164.74C582.496 167.86 578.467 172.964 575.517 175.248C572.568 177.532 571.561 182.032 572.688 185.77C573.816 189.509 574.115 190.86 572.897 191.642C571.678 192.424 569.298 194.43 568.931 195.755C568.564 197.08 567.131 200.923 567.167 201.762" stroke="#AA813B" stroke-width="0.3" stroke-miterlimit="10"/>
<path opacity="0.45" d="M603.189 49.002C605.655 55.1171 609 61.1914 607.956 64.1622C606.912 67.1329 606.691 69.3969 607.849 72.977C609.008 76.5571 610.821 79.8322 610.319 81.5067C609.817 83.1812 607.967 86.6922 606.138 86.0475C604.309 85.4028 599.34 83.1679 597.953 83.9447C596.567 84.7215 595.137 85.5099 595.554 88.0404" stroke="#AA813B" stroke-width="0.3" stroke-miterlimit="10"/>
<path opacity="0.45" d="M582.569 91.4578C582.298 89.449 581.245 88.2174 578.677 88.8424C576.109 89.4673 564.129 92.8036 562.42 93.4664C560.711 94.1293 546.474 98.7799 543.727 98.2073C540.98 97.6346 532.716 95.4811 529.568 90.7741C526.421 86.0671 520.277 81.327 519.358 75.9599C518.439 70.5927 516.099 64.5023 507.269 62.1696C498.438 59.8368 495.399 59.4055 489.159 61.3454C482.92 63.2854 477.906 64.755 475.713 63.8446C473.52 62.9343 468.433 62.137 465.413 63.0094C462.393 63.8817 457.535 64.4105 455.061 62.9765C453.367 61.9953 450.934 60.424 445.155 63.6124C439.375 66.8009 435.64 67.4077 434.682 67.002C433.724 66.5963 432.815 63.907 428.908 65.8686C425.001 67.8301 424.26 70.11 423.508 70.7057C422.755 71.3015 419.983 72.6279 419.924 74.3464C419.866 76.065 418.442 78.2599 417.029 78.3233C415.615 78.3867 413.503 78.5426 412.501 79.1423C411.498 79.7421 409.962 82.0459 409.765 83.0131C409.569 83.9804 407.489 89.2998 407.184 90.6271C406.879 91.9544 404.532 96.7461 403.289 97.6785C402.045 98.6109 401.186 101.506 400.409 101.714C399.631 101.922 397.698 101.337 397.336 100.456C396.975 99.5753 394.797 97.021 393.364 97.0108C391.93 97.0006 390.218 94.7158 389.472 93.1653C388.727 91.6149 385.533 85.7376 384.85 84.4225C384.168 83.1074 383.17 81.2618 380.272 83.1738C377.373 85.0859 374.647 88.0553 373.251 88.4767C371.855 88.8981 360.614 91.7681 359.671 93.8814C358.729 95.9946 358.145 97.8066 358.797 101.353C359.449 104.9 360.16 110.78 358.211 112.075C356.263 113.369 350.091 114.739 348.226 114.703C346.362 114.667 341.749 115.461 340.575 117.826C339.4 120.19 336.336 126.94 335.932 127.837C335.528 128.733 333.925 131.26 333.817 132.85C333.708 134.44 333.099 141.258 332.13 142.747C331.162 144.237 329.422 147.541 328.269 147.992C327.117 148.442 326.757 148.744 326.757 148.744" stroke="#AA813B" stroke-width="0.3" stroke-miterlimit="10"/>
<path opacity="0.45" d="M287.374 -179.136C284.207 -178.193 281.619 -175.439 280.529 -171.45C279.438 -167.461 276.801 -161.657 275.445 -160.13C274.089 -158.602 271.942 -154.204 271.753 -153.084C271.565 -151.964 280.177 -151.235 282.734 -150.457C285.29 -149.679 287.573 -149.221 289.008 -145.688C290.443 -142.156 292.905 -132.967 291.791 -131.3C290.678 -129.633 281.898 -108.34 281.362 -106.34C280.826 -104.34 283.691 -98.7676 284.339 -97.7614C284.987 -96.7551 284.516 -92.3343 286.786 -90.8031C289.056 -89.2719 291.007 -88.7563 291.561 -87.3945C292.115 -86.0327 294.201 -85.3647 293.988 -83.9859C293.774 -82.6072 292.863 -77.7696 291.251 -76.3151C289.639 -74.8606 286.83 -71.4648 285.881 -69.8891C284.932 -68.3133 284.683 -63.4171 284.788 -61.7306C284.893 -60.044 284.221 -54.2004 284.552 -52.7316C284.882 -51.2627 283.811 -45.8473 282.776 -45.4755C281.253 -44.9257 278.419 -46.7937 276.849 -46.4201C275.278 -46.0464 272.25 -42.9381 270.926 -42.5834C269.602 -42.2288 265.268 -42.8765 264.077 -42.7932C262.885 -42.71 259.115 -42.4864 256.783 -41.7199C254.451 -40.9534 250.811 -39.5376 250.818 -38.218C250.824 -36.8984 253.17 -33.4367 254.52 -32.2251C255.869 -31.0134 258.962 -26.5878 259.039 -25.2399C259.117 -23.892 259.252 -19.6808 258.33 -17.829C257.407 -15.9772 258.884 -8.99485 258.899 -7.88179C258.913 -6.76874 260.125 -2.01205 261.357 -0.532945C262.588 0.946163 263.476 2.61186 263.62 3.73742C263.764 4.86298 263.284 7.77619 263.671 9.57584C264.059 11.3755 263.534 18.3593 263.847 19.8801C264.16 21.4008 263.921 24.1551 260.949 25.2976C257.976 26.4401 255.26 28.5366 255.124 31.4992C254.988 34.4618 253.225 36.6488 252.193 36.9726C251.16 37.2964 242.167 32.4381 241.229 31.9972C239.552 32.1478 239.511 34.1724 239.402 36.294C239.292 38.4156 239.136 45.5367 237.785 47.6134C236.434 49.6901 231.647 56.8249 224.982 54.0646C226.647 56.985 228.349 64.6308 227.89 67.0975C227.432 69.5643 223.979 73.3214 224.115 74.8895C224.251 76.4576 226.066 83.1134 224.9 84.9362C223.733 86.759 216.329 98.418 216.329 98.418" stroke="#AA813B" stroke-width="0.3" stroke-miterlimit="10"/>
<path opacity="0.45" d="M321.145 -154.716C325.31 -148.572 326.049 -142.529 325.929 -138.733C325.808 -134.937 322.863 -124.409 323.383 -121.052C323.904 -117.694 327.728 -80.9419 328.101 -79.0973C328.474 -77.2527 332.541 -48.4846 333.774 -43.3735C335.007 -38.2623 342.109 3.19427 340.12 7.49092C338.131 11.7876 355.936 22.4631 361.749 31.0202C367.562 39.5773 375.502 54.7152 377.088 57.8029C378.674 60.8906 380.563 68.7898 381.809 70.9493C383.055 73.1087 385.618 77.2364 384.536 79.0317C383.455 80.827 382.554 82.7306 382.554 82.7306" stroke="#AA813B" stroke-width="0.3" stroke-miterlimit="10"/>
<path opacity="0.45" d="M537.287 -30.3586C536.47 -28.4684 533.955 -25.4203 531.615 -25.6681C529.276 -25.916 528.509 -19.9467 529.429 -17.616C530.349 -15.2853 530.101 -12.6102 527.988 -12.1847C525.876 -11.7593 515.112 -8.6409 513.456 -7.61902C511.799 -6.59715 507.897 -5.64532 506.93 -7.27639C505.964 -8.90745 504.565 -11.0475 504.068 -12.3824C503.57 -13.7173 501.312 -17.6108 500.66 -20.0446C500.008 -22.4784 498.823 -24.9256 497.926 -25.7162C497.029 -26.5068 494.415 -27.837 491.971 -27.3696C489.528 -26.9023 484.607 -19.5234 485.012 -15.805C485.417 -12.0865 487.399 -10.1498 488.407 -9.06095C489.415 -7.97209 493.892 -0.502656 494.36 4.32346C493.441 5.19444 486.6 6.21542 485.923 6.5373C485.247 6.85919 483.319 6.17298 481.791 6.62929C480.263 7.0856 479.199 10.3227 477.748 11.0082C476.297 11.6938 471.929 11.8335 470.64 12.4287C469.352 13.0239 466.605 12.885 466.314 11.448C466.022 10.011 464.102 9.52594 462.281 9.76374C460.461 10.0015 458.129 9.95483 456.874 8.69797C455.618 7.44112 453.641 8.89259 453.795 10.3977C453.949 11.9027 456.439 14.6875 456.037 15.5136C455.636 16.3397 452.998 16.9529 452.918 18.63C452.838 20.3071 451.16 23.2248 448.777 24.4413C446.393 25.6577 445.799 26.1137 446.999 28.7911C448.2 31.4686 445.416 35.6663 445.08 37.4903C444.744 39.3143 444.356 41.1207 443.395 41.4874C442.435 41.8541 439.949 43.0357 439.213 45.1698C438.477 47.3038 438.261 50.7981 433.741 51.2439C429.221 51.6897 426.618 60.5718 426.203 62.0421C425.787 63.5124 426.479 68.6533 426.479 68.6533" stroke="#AA813B" stroke-width="0.3" stroke-miterlimit="10"/>
<path opacity="0.45" d="M507.922 200.325C503.662 197.964 502.642 197.453 499.794 198.122C497.552 198.644 493.342 199.882 490.935 199.255C490.275 199.086 489.749 198.772 489.453 198.255C488.034 195.903 485.713 194.185 484.837 190.918C483.962 187.651 480.855 179.706 479.898 176.838C478.94 173.97 473.603 173.06 473.565 166.743C473.528 160.425 474.671 160.982 473.81 157.413C472.948 153.844 470.544 149.228 470.078 144.956C469.611 140.685 469.974 136.505 468.713 133.624C467.452 130.743 463.005 124.036 460.017 121.241C457.029 118.446 448.735 113.446 447.586 108.101C446.438 102.756 443.356 88.6645 441.429 85.4751C439.502 82.2858 436.599 76.9242 435.9 73.6099C435.201 70.2956 435.024 67.5167 435.024 67.5167" stroke="#AA813B" stroke-width="0.3" stroke-miterlimit="10"/>
<path opacity="0.45" d="M380.596 194.624C381.876 192.213 385.434 191.354 387.717 191.416C390.001 191.477 392.466 190.597 393.899 190.903C395.331 191.208 400.775 195.357 402.09 195.396C403.404 195.436 414.203 192.683 415.177 192.265C416.152 191.847 417.523 191.574 417.79 189.905C418.057 188.236 418.392 187.112 420.609 186.753C422.827 186.394 427.1 188.319 430.519 187.638C433.939 186.956 435.57 185.282 436.099 185.109C436.627 184.936 439.007 184.549 440.404 185.475C441.801 186.4 445.508 185.689 446.261 185.487C447.014 185.285 449.107 184.114 450.672 184.916C452.238 185.718 456.074 185.317 457.257 186.488C458.441 187.659 462.448 191.488 465.469 192.683C468.491 193.878 473.034 196.232 475.317 196.466C477.6 196.7 483.242 196.896 484.41 197.429C485.577 197.962 488.961 198.48 488.961 198.48" stroke="#AA813B" stroke-width="0.3" stroke-miterlimit="10"/>
<g clip-path="url(#clip0_656_6)">
<path d="M397.999 68C397.999 65.824 398.532 63.8187 399.599 61.984C400.666 60.1493 402.127 58.6987 403.983 57.632C405.839 56.5653 407.844 56.0213 409.999 56C412.154 55.9787 414.159 56.5227 416.015 57.632C417.871 58.7413 419.332 60.192 420.399 61.984C421.466 63.776 421.999 65.7813 421.999 68C421.999 68.9173 421.775 69.984 421.327 71.2C420.879 72.416 420.314 73.6427 419.631 74.88C418.948 76.1173 418.17 77.376 417.295 78.656C416.42 79.936 415.567 81.1307 414.735 82.24C413.903 83.3493 413.124 84.3307 412.399 85.184C411.674 86.0373 411.098 86.7307 410.671 87.264L409.999 88C409.828 87.8293 409.604 87.5733 409.327 87.232C409.05 86.8907 408.484 86.2187 407.631 85.216C406.778 84.2133 405.988 83.2107 405.263 82.208C404.538 81.2053 403.695 80.032 402.735 78.688C401.775 77.344 400.986 76.064 400.367 74.848C399.748 73.632 399.183 72.4267 398.671 71.232C398.159 70.0373 397.935 68.96 397.999 68ZM401.999 68C401.999 70.2187 402.778 72.1067 404.335 73.664C405.892 75.2213 407.78 76 409.999 76C412.218 76 414.106 75.2213 415.663 73.664C417.22 72.1067 417.999 70.2187 417.999 68C417.999 65.7813 417.22 63.904 415.663 62.368C414.106 60.832 412.218 60.0427 409.999 60C407.78 59.9573 405.892 60.7467 404.335 62.368C402.778 63.9893 401.999 65.8667 401.999 68Z" fill="#FFD600"/>
</g>
<defs>
<clipPath id="clip0_656_6">
<rect width="32" height="32" fill="white" transform="translate(394 56)"/>
</clipPath>
</defs>
</svg>
