<svg width="31" height="33" viewBox="0 0 31 33" fill="none" xmlns="http://www.w3.org/2000/svg">
<path d="M25.7051 29.9076C25.2353 30.3179 24.4139 30.3179 23.9452 29.9076C22.6671 28.7922 20.6574 28.791 19.3782 29.9076C18.9073 30.3167 18.0881 30.3167 17.6172 29.9076C16.338 28.7922 14.3295 28.7922 13.0503 29.9076C12.5794 30.3167 11.7602 30.3167 11.2903 29.9076C10.009 28.791 8.00151 28.791 6.72124 29.9076C6.2525 30.3156 5.43221 30.3179 4.96128 29.9076C3.68211 28.7922 1.67355 28.7922 0.394378 29.9076C0.283923 30.0038 0.192708 30.1218 0.125941 30.2548C0.059173 30.3877 0.0181606 30.5332 0.00524512 30.6827C-0.0076704 30.8322 0.00776405 30.9829 0.0506668 31.1262C0.0935695 31.2695 0.1631 31.4026 0.25529 31.5179C0.347479 31.6331 0.460522 31.7283 0.587963 31.798C0.715404 31.8677 0.854748 31.9105 0.998039 31.9239C1.14133 31.9374 1.28576 31.9213 1.42309 31.8765C1.56041 31.8318 1.68795 31.7592 1.7984 31.663C2.26933 31.2539 3.08743 31.2539 3.55836 31.663C4.20298 32.2115 5.01117 32.5075 5.8429 32.4996C6.66429 32.4996 7.48568 32.2207 8.12526 31.663C8.594 31.2527 9.41429 31.2516 9.88631 31.663C11.1655 32.7784 13.174 32.7784 14.4532 31.663C14.9241 31.2539 15.7433 31.2539 16.2143 31.663C17.4934 32.7784 19.502 32.7784 20.7812 31.663C21.2499 31.2527 22.0713 31.2516 22.5411 31.663C23.8214 32.7784 25.8289 32.7796 27.1091 31.663C27.5801 31.2539 28.3993 31.2539 28.8691 31.663C28.9795 31.7592 29.1071 31.8318 29.2444 31.8765C29.3817 31.9213 29.5262 31.9374 29.6694 31.9239C29.8127 31.9105 29.9521 31.8677 30.0795 31.798C30.207 31.7283 30.32 31.6331 30.4122 31.5179C30.5044 31.4026 30.5739 31.2695 30.6168 31.1262C30.6597 30.9829 30.6752 30.8322 30.6622 30.6827C30.6493 30.5332 30.6083 30.3877 30.5415 30.2548C30.4748 30.1218 30.3836 30.0038 30.2731 29.9076C28.9939 28.7922 26.9854 28.7922 25.7062 29.9076H25.7051ZM27.7016 9.30789C27.8031 9.41439 27.9237 9.4989 28.0566 9.55657C28.1895 9.61424 28.332 9.64393 28.4759 9.64393C28.6198 9.64393 28.7623 9.61424 28.8952 9.55657C29.0281 9.4989 29.1487 9.41439 29.2502 9.30789C29.4555 9.09358 29.5709 8.80295 29.5709 8.4999C29.5709 8.19686 29.4555 7.90623 29.2502 7.69192L27.0598 5.40623C26.8545 5.19198 26.576 5.07162 26.2856 5.07162C25.9952 5.07162 25.7166 5.19198 25.5113 5.40623L23.3209 7.69192C23.2163 7.79734 23.1329 7.92345 23.0755 8.06288C23.0181 8.20231 22.9879 8.35227 22.9866 8.50402C22.9853 8.65576 23.013 8.80625 23.0681 8.9467C23.1232 9.08715 23.2045 9.21475 23.3073 9.32206C23.4102 9.42936 23.5324 9.51422 23.667 9.57168C23.8016 9.62915 23.9458 9.65807 24.0912 9.65675C24.2367 9.65543 24.3804 9.6239 24.514 9.56401C24.6476 9.50411 24.7685 9.41705 24.8695 9.30789L25.1904 8.97304V24.0265L24.8695 23.6917C24.7685 23.5825 24.6476 23.4955 24.514 23.4356C24.3804 23.3757 24.2367 23.3442 24.0912 23.3428C23.9458 23.3415 23.8016 23.3704 23.667 23.4279C23.5324 23.4854 23.4102 23.5702 23.3073 23.6775C23.2045 23.7848 23.1232 23.9124 23.0681 24.0529C23.013 24.1933 22.9853 24.3438 22.9866 24.4956C22.9879 24.6473 23.0181 24.7973 23.0755 24.9367C23.1329 25.0761 23.2163 25.2022 23.3209 25.3077L25.5113 27.5934C25.6127 27.6998 25.7334 27.7844 25.8663 27.842C25.9991 27.8997 26.1416 27.9294 26.2856 27.9294C26.4295 27.9294 26.572 27.8997 26.7048 27.842C26.8377 27.7844 26.9584 27.6998 27.0598 27.5934L29.2502 25.3077C29.3548 25.2022 29.4382 25.0761 29.4956 24.9367C29.553 24.7973 29.5833 24.6473 29.5845 24.4956C29.5858 24.3438 29.5581 24.1933 29.503 24.0529C29.4479 23.9124 29.3666 23.7848 29.2638 23.6775C29.161 23.5702 29.0387 23.4854 28.9041 23.4279C28.7695 23.3704 28.6253 23.3415 28.4799 23.3428C28.3344 23.3442 28.1907 23.3757 28.0571 23.4356C27.9235 23.4955 27.8026 23.5825 27.7016 23.6917L27.3807 24.0265V8.97304L27.7016 9.30789ZM1.09639 27.9282C1.25443 27.9283 1.4106 27.8926 1.55412 27.8235C1.69763 27.7544 1.82507 27.6537 1.92763 27.5282L7.7299 20.4655C7.7299 20.4655 10.2784 23.0883 10.3277 23.1248L7.93032 26.0425C7.83669 26.1564 7.76548 26.2885 7.72076 26.4311C7.67603 26.5737 7.65866 26.7241 7.66964 26.8738C7.68063 27.0234 7.71975 27.1693 7.78477 27.3032C7.84979 27.437 7.93944 27.5562 8.0486 27.6539C8.15776 27.7516 8.28429 27.8259 8.42097 27.8726C8.55765 27.9193 8.70181 27.9374 8.8452 27.9259C8.98859 27.9145 9.12842 27.8737 9.25669 27.8058C9.38496 27.738 9.49918 27.6444 9.5928 27.5305L15.3337 20.542L21.0736 27.5294C21.167 27.6436 21.2811 27.7375 21.4094 27.8057C21.5377 27.8738 21.6776 27.9147 21.8211 27.9262C21.9646 27.9377 22.1089 27.9194 22.2456 27.8725C22.3823 27.8256 22.5088 27.7509 22.6178 27.6528C23.0778 27.2414 23.1303 26.5214 22.7361 26.0414L16.165 18.0415C15.7488 17.5352 14.9176 17.5352 14.5025 18.0415L11.7317 21.414L11.7273 21.406L8.44177 17.9775C8.33534 17.8657 8.20785 17.7782 8.06736 17.7205C7.92687 17.6627 7.77643 17.636 7.62555 17.642C7.47467 17.648 7.32662 17.6866 7.19076 17.7554C7.0549 17.8242 6.93418 17.9216 6.83623 18.0415L0.265146 26.0414C0.128307 26.2071 0.039994 26.4104 0.0107185 26.6271C-0.018557 26.8437 0.0124381 27.0646 0.100015 27.2634C0.187591 27.4622 0.328061 27.6305 0.504704 27.7484C0.681347 27.8663 0.886724 27.9287 1.09639 27.9282ZM23 2.7857H23.6418C24.3471 2.7857 25.0108 3.07255 25.5113 3.59483C25.6128 3.70119 25.7335 3.78558 25.8663 3.84316C25.9992 3.90075 26.1417 3.93039 26.2856 3.93039C26.4294 3.93039 26.5719 3.90075 26.7048 3.84316C26.8376 3.78558 26.9583 3.70119 27.0598 3.59483C27.3046 3.33758 27.5959 3.1336 27.9169 2.9947C28.2378 2.85581 28.5819 2.78477 28.9293 2.7857H29.5711C29.8616 2.7857 30.1401 2.66529 30.3455 2.45097C30.5509 2.23664 30.6663 1.94596 30.6663 1.64286C30.6663 1.33976 30.5509 1.04907 30.3455 0.834746C30.1401 0.620422 29.8616 0.500016 29.5711 0.500016H28.9293C27.9765 0.500016 27.0653 0.785726 26.2856 1.31943C25.5 0.782432 24.5809 0.497544 23.6418 0.500016H23C22.7096 0.500016 22.431 0.620422 22.2256 0.834746C22.0202 1.04907 21.9048 1.33976 21.9048 1.64286C21.9048 1.94596 22.0202 2.23664 22.2256 2.45097C22.431 2.66529 22.7096 2.7857 23 2.7857Z" fill="white"/>
</svg>
