<svg width="33" height="32" viewBox="0 0 33 32" fill="none" xmlns="http://www.w3.org/2000/svg">
<path d="M31.7253 22.8468C31.5137 23.1631 31.2809 23.416 31.027 23.6058C28.0435 25.8615 24.9755 28.2015 21.5477 30.0988C20.5955 30.6259 19.6222 31.0686 18.6912 31.4691C17.8871 31.8275 17.0831 31.9962 16.279 31.9962C15.5384 31.9962 14.7979 31.8486 14.0573 31.5535C12.8724 31.0686 11.6875 30.4783 10.5449 29.9302L10.0582 29.6983C9.40227 29.3821 8.74633 29.0026 8.13271 28.6442L8.02692 28.581C7.73069 28.4123 7.4133 28.328 7.11707 28.328C6.90548 28.328 6.69389 28.3702 6.48229 28.4545C5.42433 28.855 4.53564 29.2134 3.64696 29.5929C3.49884 29.6561 3.37189 29.6772 3.24493 29.6772C3.0545 29.6772 2.88522 29.5929 2.73711 29.4242C2.69479 29.361 2.63131 29.3188 2.589 29.2556C2.44088 29.108 2.29277 28.9394 2.16581 28.7496C0.726983 26.4728 0.0710473 24.0063 0.155684 21.4344C0.176843 20.9495 0.367277 20.6544 0.81162 20.4436C2.77943 19.516 5.1281 18.5251 7.66721 18.1035C8.02692 18.0403 8.40778 18.0192 8.76749 18.0192C10.037 18.0192 11.2008 18.3987 12.2588 19.1576L12.3646 19.2419C12.6185 19.4106 12.8724 19.6003 13.084 19.8111C14.1419 20.8441 15.4961 21.4133 17.1889 21.603L17.3158 21.6241C18.3949 21.7506 19.5164 21.856 20.6378 21.9614C21.5265 22.0457 22.1824 22.5728 22.3094 23.3106C22.4364 24.0696 22.0343 24.7442 21.2303 25.1236C20.2781 25.5453 19.2625 25.6507 18.2891 25.6717C18.0352 25.6717 17.8025 25.6928 17.5697 25.6928C15.475 25.6928 13.4014 25.3766 11.8356 25.1236H11.7933C11.6451 25.1025 11.4759 25.0604 11.3489 25.0604C11.2854 25.0604 11.222 25.0604 11.1796 25.0815C11.1796 25.0815 10.8623 25.2712 11.1162 25.482C11.7086 25.6296 12.3222 25.735 12.9359 25.8404L13.0628 25.8615C14.2689 26.0723 15.6866 26.2831 17.1254 26.2831C17.739 26.2831 18.3315 26.2409 18.9028 26.1566C19.8338 26.0301 20.7013 25.8193 21.4842 25.5453C22.6268 25.1447 23.0288 24.4279 22.8384 23.1841L22.8172 23.0366L22.9442 22.9733C23.5155 22.6571 24.0656 22.3409 24.6369 22.0247C26.0334 21.2446 27.4722 20.4436 28.8899 19.6846C29.1015 19.5581 29.3554 19.516 29.6516 19.516C30.3287 19.516 31.0482 19.8744 31.556 20.4225C32.1908 21.1392 32.2542 22.0668 31.7253 22.8468Z" fill="black"/>
<path d="M31.9372 10.3456C31.0486 9.94501 30.1599 9.48122 29.25 9.14391C28.2767 8.76445 27.2611 8.57471 26.2031 8.61688C23.5582 8.74337 21.6539 10.7461 21.675 13.3813C21.675 13.8661 21.3153 14.077 21.1249 14.4353C21.0826 14.351 21.0826 14.2878 21.0826 14.2245C21.1249 13.6132 21.1249 13.0018 21.1884 12.4115C21.3788 10.2401 21.9712 8.17417 22.8811 6.17143C22.9869 5.93954 23.1562 5.81305 23.3889 5.72872C24.2988 5.4125 24.9547 4.82222 25.3567 3.95789C25.9069 2.77733 25.9492 1.53352 25.7164 0.289719C25.6741 0.0367423 25.4837 -0.0686649 25.2298 0.0367422C24.2141 0.500533 23.2408 1.04865 22.4579 1.89191C21.5904 2.84057 21.3153 3.91572 21.7385 5.15953C21.7808 5.28601 21.7385 5.45467 21.6962 5.56007C21.2095 6.61414 20.7863 7.66821 20.5113 8.78553C20.4266 9.08067 20.3631 9.35473 20.2785 9.64987H20.1727C20.1304 9.43905 20.0034 9.22824 20.0246 9.01742C20.1092 8.27957 20.0458 7.58389 19.813 6.8882C19.2205 5.03304 17.5701 3.78923 15.56 3.68383C14.2058 3.5995 12.9151 3.87356 11.6455 4.31627C10.9473 4.56925 10.2914 4.86439 9.55078 5.15953C9.65658 5.22277 9.67774 5.24385 9.6989 5.26493C10.1221 5.49683 10.5664 5.70764 10.9473 6.00278C11.7725 6.63522 12.3226 7.49956 12.8093 8.38498C13.2748 9.22824 13.9096 9.90284 14.7983 10.3034C16.1101 10.8937 17.422 10.8515 18.7339 10.3456C18.9455 10.2612 19.0301 10.2823 19.1148 10.4931C19.4533 11.3153 19.6649 12.1586 19.7072 13.0229C19.7918 14.2456 19.8342 15.4683 19.8765 16.6911C19.8765 16.7754 19.8765 16.8386 19.8976 16.923C19.4956 17.0073 19.1571 17.2392 18.9666 17.5765C17.9087 17.2181 16.9354 17.5132 16.2371 18.483C15.2638 18.2722 14.4174 18.6095 13.6134 19.1787C14.3539 20.0852 15.3061 20.6122 16.3641 20.8652C17.4855 21.1182 18.6492 21.2446 19.7918 21.4344C20.8075 21.603 21.8866 21.5819 22.7118 22.383C24.3411 21.4765 25.9915 20.5911 27.6419 19.6846C27.3034 19.1154 26.859 18.757 26.3301 18.483C25.4414 18.0192 24.5104 18.0192 23.5794 18.3354C23.2831 17.4289 22.6272 17.1127 21.8655 16.9862L21.9924 16.1008C22.0559 15.6792 22.204 15.2575 22.4791 14.8781C23.0715 15.1732 23.7063 15.4262 24.4046 15.5105C24.3411 15.4051 24.2988 15.3418 24.2564 15.2786C24.4469 15.4051 24.595 15.5527 24.8489 15.5737C26.6263 15.6159 27.9805 14.857 28.975 13.4024C29.2289 13.044 29.5039 12.6645 29.8425 12.3905C30.4561 11.8423 31.112 11.3575 31.768 10.8515L32.1488 10.5985C32.043 10.4299 31.9796 10.3666 31.9372 10.3456Z" fill="black"/>
</svg>
