<svg width="29" height="30" viewBox="0 0 29 30" fill="none" xmlns="http://www.w3.org/2000/svg">
<g clip-path="url(#clip0_583_166)">
<path d="M25.4681 0H3.53194C1.58441 0 0 1.63904 0 3.65373V26.3462C0 28.361 1.58441 30 3.53194 30H14.7753C15.2482 30 15.6316 29.6034 15.6316 29.1142V18.3734C15.6316 17.8842 15.2482 17.4875 14.7753 17.4875H11.6974V14.9661H14.7753C15.2482 14.9661 15.6316 14.5695 15.6316 14.0803V10.4948C15.6316 8.55439 17.1576 6.97576 19.0333 6.97576H22.0032V9.49723H19.0333C18.5017 9.49723 18.069 9.94482 18.069 10.4948V14.0803C18.069 14.5695 18.4524 14.9661 18.9253 14.9661H22.0032V17.4876H18.9253C18.4524 17.4876 18.069 17.8842 18.069 18.3734V29.1142C18.069 29.6034 18.4524 30.0001 18.9253 30.0001H25.4681C27.4156 30 29 28.361 29 26.3463V3.65373C29 1.63904 27.4156 0 25.4681 0ZM27.2874 26.3463C27.2874 27.3841 26.4713 28.2284 25.468 28.2284H19.7815V19.2592H22.8594C23.3323 19.2592 23.7157 18.8626 23.7157 18.3734V14.0803C23.7157 13.5911 23.3323 13.1945 22.8594 13.1945H19.7815V11.2689H22.8594C23.3323 11.2689 23.7157 10.8722 23.7157 10.383V6.09C23.7157 5.6008 23.3323 5.20418 22.8594 5.20418H19.0333C16.2133 5.20418 13.919 7.57758 13.919 10.4948V13.1945H10.8411C10.3682 13.1945 9.98478 13.5911 9.98478 14.0803V18.3734C9.98478 18.8626 10.3682 19.2592 10.8411 19.2592H13.919V28.2284H3.53194C2.52872 28.2284 1.71253 27.3841 1.71253 26.3462V3.65373C1.71253 2.61592 2.52866 1.77158 3.53194 1.77158H25.468C26.4712 1.77158 27.2874 2.61586 27.2874 3.65373V26.3463Z" fill="black"/>
</g>
<defs>
<clipPath id="clip0_583_166">
<rect width="29" height="30" fill="black"/>
</clipPath>
</defs>
</svg>
