<svg width="33" height="33" viewBox="0 0 33 33" fill="none" xmlns="http://www.w3.org/2000/svg">
<path d="M30.8804 19.6433C30.5442 19.6453 30.211 19.5793 29.9009 19.4494C29.5907 19.3195 29.31 19.1283 29.0756 18.8873C28.1934 18.0791 27.0404 17.6309 25.844 17.6309C24.6476 17.6309 23.4947 18.0791 22.6125 18.8873L22.5656 18.9239C20.8889 12.3967 12.7147 1.41583 12.3522 0.932037C12.241 0.796942 12.1013 0.688138 11.9431 0.613439C11.7849 0.53874 11.6121 0.5 11.4372 0.5C11.2622 0.5 11.0895 0.53874 10.9313 0.613439C10.7731 0.688138 10.6334 0.796942 10.5222 0.932037C9.44482 2.37312 7.84607e-08 15.1656 7.84607e-08 21.0615C-0.000242513 23.1329 0.562068 25.1655 1.6269 26.9422C2.69173 28.719 4.21909 30.1732 6.04593 31.1496C7.87276 32.126 9.93048 32.588 11.9994 32.4862C14.0683 32.3844 16.0707 31.7226 17.7928 30.5715C18.0449 30.4027 18.2196 30.1407 18.2785 29.8431C18.3373 29.5455 18.2756 29.2367 18.1068 28.9846C17.938 28.7325 17.6759 28.5578 17.3783 28.499C17.0807 28.4401 16.7719 28.5018 16.5199 28.6706C15.1421 29.5911 13.5403 30.1201 11.8853 30.2012C10.2304 30.2824 8.58445 29.9126 7.12324 29.1314C5.66204 28.3502 4.44039 27.1869 3.5887 25.7656C2.73701 24.3443 2.28726 22.7184 2.28744 21.0615C2.28744 17.1305 8.22562 8.03453 11.4372 3.56259C13.6549 6.66893 19.2145 14.7916 20.3731 19.6032C19.8603 19.5 19.3877 19.2524 19.0109 18.8896C18.1295 18.0812 16.977 17.6327 15.781 17.6327C14.5851 17.6327 13.4326 18.0812 12.5512 18.8896C12.3175 19.13 12.0377 19.3207 11.7286 19.4504C11.4195 19.5801 11.0873 19.6461 10.7521 19.6444C10.4488 19.6444 10.1579 19.7649 9.94336 19.9794C9.72888 20.1939 9.60838 20.4848 9.60838 20.7881C9.60838 21.0915 9.72888 21.3824 9.94336 21.5969C10.1579 21.8113 10.4488 21.9318 10.7521 21.9318C11.9499 21.9426 13.106 21.4921 13.9808 20.6738C14.2157 20.4346 14.4958 20.2446 14.8049 20.1149C15.114 19.9853 15.4458 19.9185 15.781 19.9185C16.1162 19.9185 16.448 19.9853 16.7571 20.1149C17.0662 20.2446 17.3464 20.4346 17.5812 20.6738C18.4633 21.4818 19.616 21.93 20.8122 21.93C22.0084 21.93 23.1612 21.4818 24.0432 20.6738C24.2788 20.4344 24.5596 20.2442 24.8694 20.1144C25.1791 19.9847 25.5116 19.9178 25.8475 19.9178C26.1833 19.9178 26.5158 19.9847 26.8255 20.1144C27.1353 20.2442 27.4161 20.4344 27.6517 20.6738C28.5273 21.4907 29.6829 21.9405 30.8804 21.9307C31.1837 21.9307 31.4746 21.8102 31.6891 21.5957C31.9036 21.3812 32.0241 21.0903 32.0241 20.787C32.0241 20.4837 31.9036 20.1927 31.6891 19.9783C31.4746 19.7638 31.1837 19.6433 30.8804 19.6433Z" fill="white"/>
<path d="M30.8809 24.3553C30.5447 24.3573 30.2115 24.2914 29.9014 24.1615C29.5912 24.0315 29.3106 23.8403 29.0761 23.5993C28.1939 22.7912 27.0409 22.3429 25.8446 22.3429C24.6482 22.3429 23.4952 22.7912 22.613 23.5993C22.3778 23.8387 22.0973 24.0289 21.7878 24.1587C21.4783 24.2886 21.1461 24.3554 20.8105 24.3554C20.4749 24.3554 20.1426 24.2886 19.8331 24.1587C19.5237 24.0289 19.2431 23.8387 19.008 23.5993C18.1266 22.7909 16.9741 22.3424 15.7781 22.3424C14.5821 22.3424 13.4297 22.7909 12.5483 23.5993C12.3146 23.8397 12.0348 24.0305 11.7257 24.1602C11.4166 24.2899 11.0844 24.3559 10.7492 24.3541C10.4459 24.3541 10.1549 24.4746 9.94046 24.6891C9.72597 24.9036 9.60547 25.1945 9.60547 25.4979C9.60547 25.8012 9.72597 26.0921 9.94046 26.3066C10.1549 26.5211 10.4459 26.6416 10.7492 26.6416C11.947 26.6523 13.1031 26.2018 13.9779 25.3835C14.2128 25.1443 14.4929 24.9544 14.802 24.8247C15.1111 24.695 15.4429 24.6282 15.7781 24.6282C16.1133 24.6282 16.4451 24.695 16.7542 24.8247C17.0633 24.9544 17.3435 25.1443 17.5783 25.3835C18.4603 26.1915 19.6131 26.6398 20.8093 26.6398C22.0055 26.6398 23.1583 26.1915 24.0403 25.3835C24.2759 25.1441 24.5567 24.954 24.8665 24.8242C25.1762 24.6944 25.5087 24.6275 25.8446 24.6275C26.1804 24.6275 26.5129 24.6944 26.8226 24.8242C27.1324 24.954 27.4132 25.1441 27.6488 25.3835C28.5249 26.202 29.6819 26.6528 30.8809 26.6427C31.1842 26.6427 31.4752 26.5222 31.6896 26.3077C31.9041 26.0932 32.0246 25.8023 32.0246 25.499C32.0246 25.1957 31.9041 24.9048 31.6896 24.6903C31.4752 24.4758 31.1842 24.3553 30.8809 24.3553ZM26.8779 15.3428C28.2429 15.3428 29.552 14.8005 30.5172 13.8353C31.4824 12.8701 32.0246 11.5611 32.0246 10.1961C32.0246 7.72219 28.494 2.99063 27.786 2.0665C27.6747 1.93399 27.5357 1.82744 27.3788 1.75434C27.222 1.68124 27.051 1.64336 26.8779 1.64336C26.7048 1.64336 26.5338 1.68124 26.377 1.75434C26.2201 1.82744 26.0811 1.93399 25.9698 2.0665C25.2618 2.99063 21.7312 7.72219 21.7312 10.1961C21.7312 11.5611 22.2734 12.8701 23.2386 13.8353C24.2038 14.8005 25.5129 15.3428 26.8779 15.3428ZM26.8779 4.7062C28.2687 6.68941 29.7372 9.16671 29.7372 10.1961C29.7372 10.9544 29.4359 11.6817 28.8997 12.2179C28.3635 12.7541 27.6362 13.0553 26.8779 13.0553C26.1196 13.0553 25.3923 12.7541 24.8561 12.2179C24.3199 11.6817 24.0186 10.9544 24.0186 10.1961C24.0186 9.16671 25.4871 6.68941 26.8779 4.7062Z" fill="white"/>
</svg>
