<svg width="30" height="30" viewBox="0 0 30 30" fill="none" xmlns="http://www.w3.org/2000/svg">
<path d="M29.9256 9.11462C29.8569 7.55752 29.6051 6.48712 29.2443 5.5595C28.8722 4.57492 28.2998 3.69344 27.5499 2.96062C26.817 2.21642 25.9297 1.63811 24.9565 1.27185C24.0236 0.911198 22.9587 0.659314 21.4016 0.590732C19.8329 0.516197 19.3349 0.499023 15.3563 0.499023C11.3776 0.499023 10.8797 0.516197 9.31677 0.584893C7.75973 0.653589 6.68927 0.905588 5.76194 1.26601C4.77707 1.63811 3.89559 2.21058 3.16277 2.96062C2.41857 3.69338 1.84055 4.5807 1.474 5.55389C1.11335 6.48712 0.861519 7.55179 0.792881 9.10878C0.718403 10.6775 0.701172 11.1755 0.701172 15.1541C0.701172 19.1328 0.718403 19.6308 0.787042 21.1936C0.855737 22.7507 1.10774 23.8211 1.46845 24.7488C1.84055 25.7333 2.41857 26.6148 3.16277 27.3476C3.89559 28.0918 4.78291 28.6701 5.7561 29.0364C6.68922 29.3971 7.75389 29.649 9.31122 29.7175C10.8738 29.7865 11.3721 29.8034 15.3507 29.8034C19.3294 29.8034 19.8273 29.7865 21.3902 29.7175C22.9473 29.6489 24.0177 29.3971 24.9451 29.0364C25.919 28.6598 26.8036 28.0839 27.542 27.3456C28.2804 26.6072 28.8564 25.7227 29.233 24.7488C29.5934 23.8156 29.8455 22.7507 29.9141 21.1936C29.9828 19.6308 30 19.1328 30 15.1541C30 11.1755 29.9942 10.6775 29.9256 9.11462ZM27.2866 21.0791C27.2235 22.5103 26.9832 23.2831 26.7828 23.7984C26.2904 25.075 25.2772 26.0882 24.0005 26.5807C23.4853 26.781 22.7069 27.0214 21.2813 27.0842C19.7356 27.1531 19.2721 27.1701 15.3621 27.1701C11.4521 27.1701 10.9828 27.1531 9.44266 27.0842C8.0115 27.0214 7.23867 26.781 6.72345 26.5807C6.08818 26.3458 5.50994 25.9737 5.04052 25.4871C4.55392 25.012 4.18182 24.4395 3.94699 23.8042C3.74663 23.289 3.50625 22.5103 3.44345 21.085C3.37453 19.5393 3.35758 19.0755 3.35758 15.1655C3.35758 11.2555 3.37453 10.7862 3.44345 9.24635C3.50625 7.81519 3.74663 7.04236 3.94699 6.52714C4.18182 5.89159 4.55392 5.31346 5.04635 4.84392C5.52127 4.35732 6.09374 3.98522 6.72929 3.75068C7.24451 3.55032 8.02317 3.30988 9.4485 3.24686C10.9942 3.17816 11.458 3.16099 15.3677 3.16099C19.2835 3.16099 19.747 3.17816 21.2871 3.24686C22.7183 3.30994 23.4911 3.55026 24.0063 3.75063C24.6416 3.98522 25.2199 4.35732 25.6893 4.84392C26.1759 5.31912 26.548 5.89159 26.7828 6.52714C26.9832 7.04236 27.2235 7.82074 27.2866 9.24635C27.3553 10.792 27.3724 11.2555 27.3724 15.1655C27.3724 19.0755 27.3553 19.5335 27.2866 21.0791Z" fill="black"/>
<path d="M15.356 7.62535C11.2001 7.62535 7.82812 10.9971 7.82812 15.1533C7.82812 19.3095 11.2001 22.6812 15.356 22.6812C19.5121 22.6812 22.884 19.3095 22.884 15.1533C22.884 10.9971 19.5121 7.62535 15.356 7.62535ZM15.356 20.0364C12.6598 20.0364 10.4728 17.8497 10.4728 15.1533C10.4728 12.4568 12.6598 10.2701 15.356 10.2701C18.0524 10.2701 20.2392 12.4568 20.2392 15.1533C20.2392 17.8497 18.0524 20.0364 15.356 20.0364ZM24.9392 7.32767C24.9392 8.29822 24.1523 9.08513 23.1815 9.08513C22.211 9.08513 21.4241 8.29822 21.4241 7.32767C21.4241 6.35699 22.211 5.57031 23.1816 5.57031C24.1523 5.57031 24.9392 6.35694 24.9392 7.32767Z" fill="black"/>
</svg>
