<svg width="54" height="58" viewBox="0 0 54 58" fill="none" xmlns="http://www.w3.org/2000/svg">
<path d="M51.6212 31.5286L5.22138 57.6286C4.78043 57.8759 4.28256 58.0039 3.777 57.9998C3.27144 57.9957 2.7757 57.8598 2.33879 57.6054C1.90078 57.3501 1.53743 56.9843 1.28502 56.5446C1.03261 56.105 0.899986 55.6067 0.900392 55.0998V2.89993C0.899986 2.39296 1.03261 1.89475 1.28502 1.45507C1.53743 1.01539 1.90078 0.649635 2.33879 0.394341C2.78295 0.136936 3.28702 0.000919342 3.80038 -5.72205e-05C4.28758 -5.72205e-05 4.78058 0.121742 5.22138 0.37114L51.6212 26.4711C52.5318 26.9873 53.1002 27.9501 53.1002 28.9999C53.1002 30.0496 52.5318 31.0124 51.6212 31.5286Z" fill="white"/>
</svg>
