<svg width="28" height="33" viewBox="0 0 28 33" fill="none" xmlns="http://www.w3.org/2000/svg">
<path d="M13.8767 0.502305C10.9188 0.425733 8.63513 2.26916 7.42016 4.25429C4.98794 3.57087 3.02205 4.07486 1.70764 5.38343C0.915752 6.18408 0.369162 7.19431 0.132244 8.29517C-0.104673 9.39603 -0.0220515 10.5417 0.370379 11.5971C1.17045 13.7537 3.15349 15.2325 5.41998 15.3514H7.42473C8.19851 15.3628 8.19851 14.1971 7.42473 14.2085H5.47827C3.67239 14.1148 2.08825 12.94 1.44248 11.1983C1.12598 10.3477 1.05895 9.42444 1.24928 8.53708C1.4396 7.64972 1.87937 6.83514 2.51686 6.18914C3.6141 5.09543 5.13081 4.67943 7.49674 5.46915C7.6238 5.512 7.7619 5.50881 7.88685 5.46013C8.0118 5.41145 8.11565 5.32038 8.18023 5.20286C9.2066 3.33315 11.2468 1.57887 13.8413 1.64287H13.8482C14.3534 1.6623 14.8574 1.75944 15.3546 1.94459C17.2931 2.66458 18.6897 4.36744 19.1606 6.39257C19.3332 7.13543 20.4476 6.876 20.275 6.13314C19.723 3.76058 18.0748 1.73544 15.7546 0.872589C15.0769 0.644018 14.5145 0.529733 13.8767 0.500019V0.502305Z" fill="white"/>
<path d="M20.8128 5.64739C18.2606 5.52739 15.7587 7.01424 14.3117 9.25995C11.9606 8.50681 9.91243 9.08052 8.58774 10.3159C8.58774 10.3159 8.58431 10.3159 8.58316 10.3274C7.78935 11.081 7.23736 12.0534 6.99723 13.1213C6.75711 14.1891 6.83968 15.3042 7.23447 16.3251C8.04483 18.4051 10.0359 19.8165 12.3024 19.9285H20.5225C20.6124 19.9282 20.7009 19.9067 20.7808 19.8656C24.0817 19.6405 26.8271 17.1845 27.346 13.8759C27.8809 10.4702 25.9196 7.15824 22.685 6.00625C22.0221 5.75025 21.3409 5.67596 20.8128 5.65196V5.64739ZM20.7591 6.79024C21.2277 6.81196 21.8015 6.88167 22.2793 7.06681C22.285 7.06681 22.2895 7.06682 22.2941 7.07824C23.6184 7.55046 24.7357 8.47098 25.4525 9.68034C26.1694 10.8897 26.4405 12.3117 26.219 13.6999C26.0067 15.0797 25.3189 16.3419 24.2746 17.2685C23.2303 18.195 21.895 18.7276 20.4997 18.7742C20.4699 18.7765 20.4402 18.7742 20.4105 18.7856H12.3538C10.5296 18.6931 8.94205 17.5616 8.29971 15.9102C7.65622 14.2565 8.07569 12.3994 9.37409 11.1559C10.4725 10.1354 12.1355 9.68509 14.3688 10.4885C14.6283 10.5742 14.9517 10.4257 15.0866 10.1891C16.2753 8.07938 18.5989 6.69539 20.7591 6.7971V6.79024ZM6.0035 29.0713C5.06285 29.0713 4.28906 29.8462 4.28906 30.7856C4.28906 31.7262 5.06285 32.4999 6.0035 32.4999C6.94416 32.4999 7.71794 31.7262 7.71794 30.7856C7.71794 29.8462 6.94302 29.0713 6.0035 29.0713ZM6.0035 30.2142C6.32582 30.2142 6.57498 30.4633 6.57498 30.7856C6.57498 31.1079 6.32582 31.357 6.0035 31.357C5.68119 31.357 5.43202 31.1079 5.43202 30.7856C5.43202 30.4633 5.68119 30.2142 6.0035 30.2142Z" fill="white"/>
<path fill-rule="evenodd" clip-rule="evenodd" d="M5.9921 24.4998C5.91705 24.501 5.84297 24.5169 5.77409 24.5468C5.70521 24.5766 5.64288 24.6197 5.59066 24.6736C5.53844 24.7275 5.49735 24.7912 5.46974 24.861C5.44214 24.9308 5.42855 25.0053 5.42976 25.0804V27.3501C5.42976 27.5016 5.48997 27.647 5.59714 27.7541C5.70432 27.8613 5.84968 27.9215 6.00124 27.9215C6.15281 27.9215 6.29817 27.8613 6.40534 27.7541C6.51251 27.647 6.57272 27.5016 6.57272 27.3501V25.0804C6.57396 25.0038 6.55978 24.9277 6.53104 24.8567C6.5023 24.7857 6.45958 24.7212 6.40541 24.6671C6.35125 24.6129 6.28675 24.5702 6.21575 24.5415C6.14474 24.5127 6.06869 24.4985 5.9921 24.4998Z" fill="white"/>
<path d="M16.2887 29.0714C15.348 29.0714 14.5742 29.8462 14.5742 30.7856C14.5742 31.7262 15.348 32.4999 16.2887 32.4999C17.2293 32.4999 18.0031 31.7262 18.0031 30.7856C18.0031 29.8462 17.2282 29.0714 16.2887 29.0714ZM16.2887 30.2142C16.611 30.2142 16.8601 30.4633 16.8601 30.7856C16.8601 31.1079 16.611 31.3571 16.2887 31.3571C15.9663 31.3571 15.7172 31.1079 15.7172 30.7856C15.7172 30.4633 15.9663 30.2142 16.2887 30.2142Z" fill="white"/>
<path fill-rule="evenodd" clip-rule="evenodd" d="M16.2773 24.4998C16.2022 24.501 16.1281 24.5169 16.0592 24.5468C15.9904 24.5766 15.928 24.6197 15.8758 24.6736C15.8236 24.7275 15.7825 24.7912 15.7549 24.861C15.7273 24.9308 15.7137 25.0053 15.7149 25.0804V27.3501C15.7149 27.5016 15.7751 27.647 15.8823 27.7541C15.9895 27.8613 16.1348 27.9215 16.2864 27.9215C16.438 27.9215 16.5833 27.8613 16.6905 27.7541C16.7977 27.647 16.8579 27.5016 16.8579 27.3501V25.0804C16.8591 25.0038 16.8449 24.9277 16.8162 24.8567C16.7875 24.7857 16.7447 24.7212 16.6906 24.6671C16.6364 24.6129 16.5719 24.5702 16.5009 24.5415C16.4299 24.5127 16.3538 24.4985 16.2773 24.4998Z" fill="white"/>
<path d="M11.1441 26.7857C10.2035 26.7857 9.42969 27.5605 9.42969 28.5C9.42969 29.4394 10.2035 30.2142 11.1441 30.2142C12.0848 30.2142 12.8586 29.4405 12.8586 28.5C12.8586 27.5594 12.0836 26.7857 11.1441 26.7857ZM11.1441 27.9285C11.4664 27.9285 11.7156 28.1777 11.7156 28.5C11.7156 28.8222 11.4664 29.0714 11.1441 29.0714C10.8218 29.0714 10.5726 28.8222 10.5726 28.5C10.5726 28.1777 10.8218 27.9285 11.1441 27.9285Z" fill="white"/>
<path fill-rule="evenodd" clip-rule="evenodd" d="M11.1366 22.2141C11.0616 22.2153 10.9875 22.2313 10.9186 22.2611C10.8497 22.2909 10.7874 22.334 10.7352 22.3879C10.683 22.4418 10.6419 22.5055 10.6143 22.5753C10.5867 22.6451 10.5731 22.7196 10.5743 22.7947V25.0644C10.5743 25.2159 10.6345 25.3613 10.7417 25.4684C10.8488 25.5756 10.9942 25.6358 11.1458 25.6358C11.2973 25.6358 11.4427 25.5756 11.5499 25.4684C11.657 25.3613 11.7173 25.2159 11.7173 25.0644V22.7947C11.7185 22.7181 11.7043 22.642 11.6756 22.5711C11.6468 22.5001 11.6041 22.4356 11.5499 22.3814C11.4958 22.3272 11.4313 22.2845 11.3603 22.2558C11.2893 22.227 11.2132 22.2129 11.1366 22.2141Z" fill="white"/>
<path d="M21.4332 26.7857C20.4925 26.7857 19.7188 27.5605 19.7188 28.5C19.7188 29.4394 20.4925 30.2142 21.4332 30.2142C22.3738 30.2142 23.1476 29.4405 23.1476 28.5C23.1476 27.5594 22.3727 26.7857 21.4332 26.7857ZM21.4332 27.9285C21.7555 27.9285 22.0047 28.1777 22.0047 28.5C22.0047 28.8222 21.7555 29.0714 21.4332 29.0714C21.1109 29.0714 20.8617 28.8222 20.8617 28.5C20.8617 28.1777 21.1109 27.9285 21.4332 27.9285Z" fill="white"/>
<path fill-rule="evenodd" clip-rule="evenodd" d="M21.4218 22.2141C21.3467 22.2153 21.2727 22.2313 21.2038 22.2611C21.1349 22.2909 21.0726 22.334 21.0203 22.3879C20.9681 22.4418 20.927 22.5055 20.8994 22.5753C20.8718 22.6451 20.8582 22.7196 20.8594 22.7947V25.0644C20.8594 25.2159 20.9197 25.3613 21.0268 25.4684C21.134 25.5756 21.2794 25.6358 21.4309 25.6358C21.5825 25.6358 21.7279 25.5756 21.835 25.4684C21.9422 25.3613 22.0024 25.2159 22.0024 25.0644V22.7947C22.0036 22.7181 21.9895 22.642 21.9607 22.5711C21.932 22.5001 21.8893 22.4356 21.8351 22.3814C21.7809 22.3272 21.7164 22.2845 21.6454 22.2558C21.5744 22.227 21.4984 22.2129 21.4218 22.2141Z" fill="white"/>
</svg>
