<svg width="32" height="33" viewBox="0 0 32 33" fill="none" xmlns="http://www.w3.org/2000/svg">
<g clip-path="url(#clip0_459_191)">
<path d="M28.8 22.9C28.3205 22.8988 27.8473 23.0083 27.4171 23.22C27.1752 22.5503 26.8017 21.9357 26.3185 21.4127C25.8353 20.8896 25.2523 20.4686 24.6038 20.1745C23.9553 19.8804 23.2545 19.7191 22.5426 19.7002C21.8308 19.6812 21.1224 19.805 20.4592 20.0643C20.1741 19.3455 19.7187 18.7067 19.1322 18.2027C18.5458 17.6988 17.8457 17.3447 17.0923 17.1709C17.3813 15.5876 17.9133 14.0585 18.6693 12.6376C18.8301 12.6925 18.9986 12.7215 19.1685 12.7235C19.2219 12.7235 19.2715 12.7235 19.3237 12.7165C21.1024 12.5501 24.4299 11.9277 26.7285 9.62907C29.0272 7.3304 29.6496 4.0024 29.816 2.22373C29.8409 1.99225 29.8137 1.75813 29.7362 1.53857C29.6588 1.31901 29.5331 1.11958 29.3685 0.954957C29.2039 0.79033 29.0045 0.664681 28.7849 0.587243C28.5653 0.509804 28.3312 0.482545 28.0997 0.507467C26.3205 0.673867 22.9925 1.2968 20.6933 3.59333C18.3941 5.88987 17.7723 9.21893 17.6059 10.9981C17.5733 11.337 17.6501 11.6773 17.8251 11.9693C16.9543 13.548 16.3481 15.2587 16.0304 17.0333H16C15.9163 17.0333 15.8363 17.0477 15.7531 17.052C15.2465 15.7434 14.535 14.5238 13.6453 13.4387C13.7922 13.144 13.8442 12.811 13.7941 12.4856C13.5221 10.7192 12.7029 7.43387 10.2741 5.27653C7.84533 3.1192 4.4832 2.6952 2.6976 2.63333C2.46521 2.62217 2.23327 2.66321 2.01882 2.75342C1.80437 2.84363 1.61284 2.98073 1.45831 3.15465C1.30377 3.32857 1.19016 3.5349 1.1258 3.75847C1.06144 3.98205 1.04798 4.21721 1.0864 4.44667C1.35787 6.21307 2.1776 9.49787 4.6064 11.6557C7.0352 13.8136 10.3963 14.2371 12.1797 14.2979H12.2368C12.4533 14.2979 12.6672 14.2536 12.8661 14.1688C13.6146 15.0925 14.2227 16.1215 14.6709 17.2227C13.9659 17.4241 13.3167 17.7849 12.7734 18.2773C12.2301 18.7696 11.8073 19.3803 11.5376 20.0621C10.8744 19.8035 10.1662 19.6801 9.45463 19.6995C8.74307 19.7188 8.04257 19.8804 7.39443 20.1747C6.74628 20.469 6.16361 20.89 5.68075 21.4131C5.1979 21.9361 4.82462 22.5505 4.58293 23.22C4.15274 23.0083 3.67947 22.8988 3.2 22.9C2.35131 22.9 1.53737 23.2371 0.937258 23.8373C0.337142 24.4374 0 25.2513 0 26.1C0 26.9487 0.337142 27.7626 0.937258 28.3627C1.53737 28.9629 2.35131 29.3 3.2 29.3C3.63253 29.3 4.0608 29.2109 4.45707 29.0365C4.70578 29.8979 5.19106 30.6722 5.85779 31.2716C6.52451 31.871 7.34596 32.2713 8.22884 32.4273C9.11171 32.5832 10.0206 32.4884 10.8523 32.1537C11.684 31.8189 12.4052 31.2576 12.9339 30.5336C13.309 30.9824 13.778 31.3434 14.3079 31.5911C14.8378 31.8388 15.4156 31.9672 16.0005 31.9672C16.5855 31.9672 17.1633 31.8388 17.6931 31.5911C18.223 31.3434 18.6921 30.9824 19.0672 30.5336C19.5959 31.2576 20.3171 31.8189 21.1488 32.1537C21.9805 32.4884 22.8894 32.5832 23.7722 32.4273C24.6551 32.2713 25.4766 31.871 26.1433 31.2716C26.81 30.6722 27.2953 29.8979 27.544 29.0365C27.9398 29.2106 28.3676 29.3003 28.8 29.3C29.6487 29.3 30.4626 28.9629 31.0627 28.3627C31.6629 27.7626 32 26.9487 32 26.1C32 25.2513 31.6629 24.4374 31.0627 23.8373C30.4626 23.2371 29.6487 22.9 28.8 22.9ZM21.4491 4.34907C23.5104 2.28773 26.5632 1.7224 28.1995 1.56933C28.2746 1.56177 28.3505 1.57032 28.422 1.59441C28.4936 1.61851 28.5592 1.6576 28.6144 1.70907C28.7211 1.81947 28.7723 1.97147 28.7541 2.124C28.6005 3.76027 28.0363 6.81253 25.9733 8.87333C23.9867 10.86 21.0837 11.4552 19.4133 11.6333C21.5214 9.07068 23.8852 6.72968 26.4683 4.64667C26.5787 4.55826 26.6496 4.42959 26.6652 4.28897C26.6808 4.14834 26.6399 4.00727 26.5515 3.8968C26.4631 3.78633 26.3344 3.7155 26.1938 3.6999C26.0531 3.68429 25.9121 3.72519 25.8016 3.8136C23.2057 5.90731 20.826 8.25574 18.6981 10.8237C18.888 9.14 19.4976 6.3 21.4491 4.34907ZM2.14027 4.28667C2.12591 4.21396 2.12818 4.13895 2.1469 4.06724C2.16561 3.99553 2.2003 3.92898 2.24835 3.87256C2.29641 3.81615 2.3566 3.77132 2.42442 3.74144C2.49224 3.71156 2.56594 3.69739 2.64 3.7H2.66133C4.30347 3.75333 7.38453 4.1384 9.5648 6.07387C11.6672 7.94053 12.4336 10.8061 12.7115 12.4648C10.6368 10.4595 5.4048 5.66 5.16213 5.43973C5.05789 5.34411 4.91992 5.29382 4.7786 5.29992C4.63727 5.30603 4.50415 5.36802 4.40853 5.47227C4.31291 5.57652 4.26262 5.71448 4.26872 5.85581C4.27483 5.99713 4.33682 6.13025 4.44107 6.22587C4.50027 6.2792 9.8768 11.2099 11.9611 13.2221C10.2699 13.1352 7.38933 12.6984 5.3184 10.86C3.13547 8.92667 2.3904 5.9112 2.14027 4.28667ZM28.8 28.2333C28.3265 28.2314 27.8676 28.07 27.4971 27.7752C27.4224 27.717 27.3336 27.6798 27.2398 27.6672C27.146 27.6547 27.0506 27.6673 26.9633 27.7039C26.876 27.7404 26.8 27.7995 26.7431 27.8751C26.6862 27.9507 26.6504 28.0401 26.6395 28.1341C26.5459 28.9379 26.1935 29.6895 25.6354 30.2754C25.0772 30.8614 24.3437 31.2499 23.5454 31.3823C22.747 31.5148 21.9273 31.384 21.2098 31.0097C20.4924 30.6355 19.9161 30.038 19.568 29.3075C19.5251 29.2178 19.4579 29.1419 19.3741 29.0884C19.2904 29.0349 19.1933 29.0058 19.0939 29.0045H19.0875C18.9891 29.0045 18.8927 29.0317 18.8088 29.0831C18.7249 29.1345 18.6569 29.2081 18.6123 29.2957C18.3677 29.7789 17.994 30.1847 17.5327 30.4683C17.0713 30.7518 16.5404 30.902 15.9989 30.902C15.4574 30.902 14.9265 30.7518 14.4652 30.4683C14.0039 30.1847 13.6302 29.7789 13.3856 29.2957C13.3428 29.2056 13.2745 29.13 13.1892 29.0783C13.1039 29.0266 13.0053 29.0009 12.9056 29.0045C12.8062 29.0058 12.7091 29.0349 12.6253 29.0884C12.5416 29.1419 12.4744 29.2178 12.4315 29.3075C12.0834 30.038 11.5071 30.6355 10.7896 31.0097C10.0722 31.384 9.25242 31.5148 8.45412 31.3823C7.65581 31.2499 6.92224 30.8614 6.3641 30.2754C5.80596 29.6895 5.45353 28.9379 5.36 28.1341C5.34905 28.0401 5.31328 27.9507 5.25637 27.8751C5.19946 27.7995 5.12346 27.7404 5.03616 27.7039C4.94886 27.6673 4.85342 27.6547 4.75962 27.6672C4.66582 27.6798 4.57704 27.717 4.5024 27.7752C4.13205 28.0699 3.67327 28.2313 3.2 28.2333C2.6342 28.2333 2.09158 28.0086 1.69151 27.6085C1.29143 27.2084 1.06667 26.6658 1.06667 26.1C1.06667 25.5342 1.29143 24.9916 1.69151 24.5915C2.09158 24.1914 2.6342 23.9667 3.2 23.9667C3.69784 23.9682 4.17893 24.1466 4.55733 24.4701C4.62816 24.5292 4.71309 24.5689 4.80384 24.5853C4.89458 24.6017 4.98803 24.5944 5.07508 24.5639C5.16212 24.5334 5.23977 24.4809 5.30046 24.4115C5.36115 24.3421 5.40279 24.2581 5.42133 24.1677C5.55593 23.518 5.84022 22.9086 6.25161 22.3879C6.663 21.8673 7.19016 21.4498 7.79119 21.1686C8.39221 20.8874 9.05055 20.7502 9.71386 20.768C10.3772 20.7859 11.0272 20.9581 11.6123 21.2712C11.6838 21.3096 11.7631 21.3311 11.8443 21.3342C11.9254 21.3373 12.0061 21.3218 12.0804 21.2889C12.1546 21.256 12.2203 21.2066 12.2726 21.1445C12.3248 21.0824 12.3622 21.0092 12.3819 20.9304C12.543 20.2846 12.8748 19.6939 13.3424 19.2202C13.81 18.7465 14.3963 18.4071 15.04 18.2376C15.2587 18.9203 15.3968 19.6264 15.4501 20.3416C15.1169 20.4755 14.813 20.673 14.5552 20.9229C14.4617 21.0239 14.4109 21.1572 14.4133 21.2948C14.4158 21.4324 14.4713 21.5637 14.5684 21.6613C14.6654 21.7589 14.7964 21.8152 14.934 21.8184C15.0716 21.8217 15.2051 21.7716 15.3067 21.6787C15.4939 21.4851 15.736 21.3533 16 21.3C16.2629 21.3533 16.5035 21.4845 16.6896 21.6771C16.7902 21.7742 16.9249 21.828 17.0647 21.8268C17.2046 21.8255 17.3384 21.7695 17.4372 21.6706C17.5361 21.5717 17.5922 21.4379 17.5934 21.2981C17.5946 21.1582 17.5409 21.0235 17.4437 20.9229C17.1929 20.6815 16.8994 20.4887 16.5781 20.3544C16.6315 19.8947 16.7285 19.1277 16.8885 18.2211C17.5476 18.3809 18.1503 18.718 18.6314 19.1958C19.1126 19.6737 19.4538 20.2741 19.6181 20.932C19.6378 21.0108 19.6752 21.084 19.7274 21.1461C19.7797 21.2082 19.8454 21.2576 19.9196 21.2905C19.9939 21.3234 20.0746 21.3389 20.1557 21.3358C20.2369 21.3327 20.3162 21.3112 20.3877 21.2728C20.9728 20.9597 21.6228 20.7875 22.2861 20.7696C22.9495 20.7518 23.6078 20.889 24.2088 21.1702C24.8098 21.4514 25.337 21.8689 25.7484 22.3895C26.1598 22.9102 26.4441 23.5196 26.5787 24.1693C26.5972 24.2597 26.6389 24.3437 26.6995 24.4131C26.7602 24.4825 26.8379 24.535 26.9249 24.5655C27.012 24.596 27.1054 24.6033 27.1962 24.5869C27.2869 24.5705 27.3718 24.5308 27.4427 24.4717C27.8209 24.1477 28.302 23.9686 28.8 23.9667C29.3658 23.9667 29.9084 24.1914 30.3085 24.5915C30.7086 24.9916 30.9333 25.5342 30.9333 26.1C30.9333 26.6658 30.7086 27.2084 30.3085 27.6085C29.9084 28.0086 29.3658 28.2333 28.8 28.2333Z" fill="white"/>
<path d="M10.1335 23.9667C9.83906 23.9667 9.60013 24.2056 9.60013 24.5C9.60013 24.6414 9.54394 24.7771 9.44392 24.8771C9.3439 24.9771 9.20825 25.0333 9.0668 25.0333C8.92535 25.0333 8.78969 24.9771 8.68967 24.8771C8.58965 24.7771 8.53346 24.6414 8.53346 24.5C8.53346 24.3585 8.47727 24.2229 8.37725 24.1229C8.27723 24.0229 8.14158 23.9667 8.00013 23.9667C7.85868 23.9667 7.72303 24.0229 7.62301 24.1229C7.52299 24.2229 7.4668 24.3585 7.4668 24.5C7.4668 24.9243 7.63537 25.3313 7.93543 25.6314C8.23548 25.9314 8.64245 26.1 9.0668 26.1C9.49114 26.1 9.89811 25.9314 10.1982 25.6314C10.4982 25.3313 10.6668 24.9243 10.6668 24.5C10.6668 24.3585 10.6106 24.2229 10.5106 24.1229C10.4106 24.0229 10.2749 23.9667 10.1335 23.9667ZM16.0001 26.1C15.7057 26.1 15.4668 26.3389 15.4668 26.6333C15.4668 26.7748 15.4106 26.9104 15.3106 27.0105C15.2106 27.1105 15.0749 27.1667 14.9335 27.1667C14.792 27.1667 14.6564 27.1105 14.5563 27.0105C14.4563 26.9104 14.4001 26.7748 14.4001 26.6333C14.4001 26.4919 14.3439 26.3562 14.2439 26.2562C14.1439 26.1562 14.0082 26.1 13.8668 26.1C13.7253 26.1 13.5897 26.1562 13.4897 26.2562C13.3897 26.3562 13.3335 26.4919 13.3335 26.6333C13.3335 27.0577 13.502 27.4646 13.8021 27.7647C14.1022 28.0648 14.5091 28.2333 14.9335 28.2333C15.3578 28.2333 15.7648 28.0648 16.0648 27.7647C16.3649 27.4646 16.5335 27.0577 16.5335 26.6333C16.5335 26.4919 16.4773 26.3562 16.3773 26.2562C16.2772 26.1562 16.1416 26.1 16.0001 26.1ZM22.9335 22.9C22.6391 22.9 22.4001 23.1389 22.4001 23.4333C22.4001 23.5748 22.3439 23.7104 22.2439 23.8105C22.1439 23.9105 22.0082 23.9667 21.8668 23.9667C21.7253 23.9667 21.5897 23.9105 21.4897 23.8105C21.3897 23.7104 21.3335 23.5748 21.3335 23.4333C21.3335 23.2919 21.2773 23.1562 21.1773 23.0562C21.0772 22.9562 20.9416 22.9 20.8001 22.9C20.6587 22.9 20.523 22.9562 20.423 23.0562C20.323 23.1562 20.2668 23.2919 20.2668 23.4333C20.2668 23.8577 20.4354 24.2646 20.7354 24.5647C21.0355 24.8648 21.4425 25.0333 21.8668 25.0333C22.2911 25.0333 22.6981 24.8648 22.9982 24.5647C23.2982 24.2646 23.4668 23.8577 23.4668 23.4333C23.4668 23.2919 23.4106 23.1562 23.3106 23.0562C23.2106 22.9562 23.0749 22.9 22.9335 22.9Z" fill="white"/>
<path d="M22.4005 28.7667C22.6951 28.7667 22.9339 28.5279 22.9339 28.2333C22.9339 27.9388 22.6951 27.7 22.4005 27.7C22.106 27.7 21.8672 27.9388 21.8672 28.2333C21.8672 28.5279 22.106 28.7667 22.4005 28.7667Z" fill="white"/>
<path d="M25.5997 26.1C25.8943 26.1 26.1331 25.8612 26.1331 25.5667C26.1331 25.2721 25.8943 25.0333 25.5997 25.0333C25.3052 25.0333 25.0664 25.2721 25.0664 25.5667C25.0664 25.8612 25.3052 26.1 25.5997 26.1Z" fill="white"/>
<path d="M30.9337 22.3667C31.2283 22.3667 31.4671 22.1279 31.4671 21.8333C31.4671 21.5388 31.2283 21.3 30.9337 21.3C30.6392 21.3 30.4004 21.5388 30.4004 21.8333C30.4004 22.1279 30.6392 22.3667 30.9337 22.3667Z" fill="white"/>
<path d="M17.5997 24.5C17.8943 24.5 18.1331 24.2612 18.1331 23.9667C18.1331 23.6721 17.8943 23.4333 17.5997 23.4333C17.3052 23.4333 17.0664 23.6721 17.0664 23.9667C17.0664 24.2612 17.3052 24.5 17.5997 24.5Z" fill="white"/>
<path d="M4.26576 20.7667C4.56031 20.7667 4.79909 20.5279 4.79909 20.2333C4.79909 19.9388 4.56031 19.7 4.26576 19.7C3.9712 19.7 3.73242 19.9388 3.73242 20.2333C3.73242 20.5279 3.9712 20.7667 4.26576 20.7667Z" fill="white"/>
<path d="M28.2658 21.3C28.5603 21.3 28.7991 21.0612 28.7991 20.7667C28.7991 20.4721 28.5603 20.2333 28.2658 20.2333C27.9712 20.2333 27.7324 20.4721 27.7324 20.7667C27.7324 21.0612 27.9712 21.3 28.2658 21.3Z" fill="white"/>
<path d="M9.59974 29.3C9.89429 29.3 10.1331 29.0612 10.1331 28.7667C10.1331 28.4721 9.89429 28.2333 9.59974 28.2333C9.30519 28.2333 9.06641 28.4721 9.06641 28.7667C9.06641 29.0612 9.30519 29.3 9.59974 29.3Z" fill="white"/>
<path d="M6.40052 18.6333C6.69507 18.6333 6.93385 18.3946 6.93385 18.1C6.93385 17.8054 6.69507 17.5667 6.40052 17.5667C6.10597 17.5667 5.86719 17.8054 5.86719 18.1C5.86719 18.3946 6.10597 18.6333 6.40052 18.6333Z" fill="white"/>
</g>
<defs>
<clipPath id="clip0_459_191">
<rect width="32" height="32" fill="white" transform="translate(0 0.5)"/>
</clipPath>
</defs>
</svg>
