<svg width="17" height="33" viewBox="0 0 17 33" fill="none" xmlns="http://www.w3.org/2000/svg">
<path d="M7.03985 23.6212V9.46012C7.03985 9.10662 6.75328 8.82012 6.39984 8.82012C6.04634 8.82012 5.75984 9.10668 5.75984 9.46012V23.6212C4.65691 23.9061 3.83984 24.9095 3.83984 26.1002C3.83984 27.5118 4.98828 28.6602 6.39984 28.6602C7.81141 28.6602 8.95985 27.5118 8.95985 26.1002C8.95985 24.9095 8.14272 23.9061 7.03985 23.6212ZM6.39984 27.3802C5.69403 27.3802 5.11984 26.806 5.11984 26.1002C5.11984 25.3944 5.69409 24.8202 6.39984 24.8202C7.10566 24.8202 7.67985 25.3944 7.67985 26.1002C7.67985 26.806 7.1056 27.3802 6.39984 27.3802ZM12.1598 6.26012H15.9999C16.3533 6.26012 16.6399 5.97356 16.6399 5.62012C16.6399 5.26668 16.3533 4.98012 15.9999 4.98012H12.1598C11.8064 4.98012 11.5198 5.26668 11.5198 5.62012C11.5198 5.97356 11.8064 6.26012 12.1598 6.26012ZM15.9999 8.82012H12.1598C11.8064 8.82012 11.5198 9.10668 11.5198 9.46012C11.5198 9.81362 11.8064 10.1001 12.1598 10.1001H15.9999C16.3533 10.1001 16.6399 9.81356 16.6399 9.46012C16.6399 9.10668 16.3533 8.82012 15.9999 8.82012ZM15.9999 12.6601H12.1598C11.8064 12.6601 11.5198 12.9467 11.5198 13.3001C11.5198 13.6536 11.8064 13.9401 12.1598 13.9401H15.9999C16.3533 13.9401 16.6399 13.6536 16.6399 13.3001C16.6399 12.9467 16.3533 12.6601 15.9999 12.6601ZM15.9999 16.5001H12.1598C11.8064 16.5001 11.5198 16.7867 11.5198 17.1401C11.5198 17.4936 11.8064 17.7801 12.1598 17.7801H15.9999C16.3533 17.7801 16.6399 17.4936 16.6399 17.1401C16.6399 16.7867 16.3533 16.5001 15.9999 16.5001Z" fill="white"/>
<path d="M10.2565 20.992V4.29081C10.2565 2.20056 8.52651 0.5 6.40007 0.5C4.27363 0.5 2.54363 2.20056 2.54363 4.29081V20.992C0.94475 22.2 0 24.0845 0 26.1001C0 27.7283 0.612 29.2798 1.72319 30.4689C2.82881 31.6519 4.32444 32.3672 5.93463 32.4831C6.327 32.51 6.66413 32.5051 7.06176 32.4661C8.62863 32.305 10.0769 31.5715 11.1399 30.4005C12.2105 29.2213 12.8001 27.694 12.8001 26.1001C12.8001 24.0845 11.8554 22.2 10.2565 20.992ZM6.93351 31.1926C6.61188 31.2238 6.35038 31.2285 6.02644 31.2064C3.36488 31.0148 1.28006 28.7719 1.28006 26.1001C1.28006 24.3948 2.1255 22.8066 3.5415 21.8518C3.62838 21.7932 3.69955 21.7142 3.74876 21.6216C3.79796 21.5291 3.82369 21.4259 3.82369 21.3211V4.29081C3.82369 2.90638 4.9795 1.78 6.40013 1.78C7.82082 1.78 8.97657 2.90638 8.97657 4.29081V21.3211C8.97657 21.4259 9.0023 21.5291 9.05151 21.6216C9.10071 21.7142 9.17188 21.7932 9.25876 21.8518C10.6748 22.8066 11.5201 24.3948 11.5201 26.1001C11.5201 28.7344 9.54713 30.9238 6.93351 31.1926Z" fill="white"/>
</svg>
