<svg width="81" height="75" viewBox="0 0 81 75" fill="none" xmlns="http://www.w3.org/2000/svg">
<circle cx="40.1543" cy="37.5" r="37.25" stroke="black" strokeWidth="0.5" stroke-dasharray="2 2"/>
<circle cx="3.16159" cy="37.1904" r="2.31441" transform="rotate(30 3.16159 37.1904)" fill="black"/>
<circle cx="77.4917" cy="37.1904" r="2.31441" transform="rotate(30 77.4917 37.1904)" fill="black"/>
<path d="M40.6393 30.476C40.6393 30.6174 40.5802 30.753 40.4751 30.853C40.37 30.953 40.2274 31.0092 40.0787 31.0092H28.0577C27.9091 31.0092 27.7665 30.953 27.6614 30.853C27.5562 30.753 27.4972 30.6174 27.4972 30.476C27.4972 30.3346 27.5562 30.199 27.6614 30.099C27.7665 29.999 27.9091 29.9428 28.0577 29.9428H40.0787C40.2274 29.9428 40.37 29.999 40.4751 30.099C40.5802 30.199 40.6393 30.3346 40.6393 30.476ZM37.4812 36.1974H27.8885C27.7399 36.1974 27.5973 36.2536 27.4922 36.3536C27.387 36.4536 27.328 36.5892 27.328 36.7306C27.328 36.872 27.387 37.0077 27.4922 37.1077C27.5973 37.2077 27.7399 37.2638 27.8885 37.2638H37.4812C37.6299 37.2638 37.7725 37.2077 37.8776 37.1077C37.9827 37.0077 38.0418 36.872 38.0418 36.7306C38.0418 36.5892 37.9827 36.4536 37.8776 36.3536C37.7725 36.2536 37.6299 36.1974 37.4812 36.1974ZM37.4812 42.4522H27.8885C27.7399 42.4522 27.5973 42.5084 27.4922 42.6084C27.387 42.7084 27.328 42.844 27.328 42.9854C27.328 43.1268 27.387 43.2624 27.4922 43.3624C27.5973 43.4624 27.7399 43.5186 27.8885 43.5186H37.4812C37.6299 43.5186 37.7725 43.4624 37.8776 43.3624C37.9827 43.2624 38.0418 43.1268 38.0418 42.9854C38.0418 42.844 37.9827 42.7084 37.8776 42.6084C37.7725 42.5084 37.6299 42.4522 37.4812 42.4522ZM37.4812 48.7069H27.8885C27.7399 48.7069 27.5973 48.7631 27.4922 48.8631C27.387 48.9631 27.328 49.0987 27.328 49.2401C27.328 49.3815 27.387 49.5171 27.4922 49.6171C27.5973 49.7171 27.7399 49.7733 27.8885 49.7733H37.4812C37.6299 49.7733 37.7725 49.7171 37.8776 49.6171C37.9827 49.5171 38.0418 49.3815 38.0418 49.2401C38.0418 49.0987 37.9827 48.9631 37.8776 48.8631C37.7725 48.7631 37.6299 48.7069 37.4812 48.7069ZM62.3592 51.2162L62.2489 51.3211C61.8653 51.6859 61.3601 51.868 60.8522 51.868C60.585 51.868 60.3205 51.8178 60.0737 51.7203C59.827 51.6228 59.6029 51.4799 59.4143 51.2999L54.0018 46.1513C53.3048 46.5526 52.5516 46.8578 51.7645 47.0579C51.2092 47.1997 50.6404 47.289 50.0666 47.3245V54.6788C50.0666 54.8202 50.0075 54.9558 49.9024 55.0558C49.7973 55.1558 49.6547 55.212 49.506 55.212H23.9355C23.7869 55.212 23.6443 55.1558 23.5392 55.0558C23.4341 54.9558 23.375 54.8202 23.375 54.6788V20.3215C23.375 20.1801 23.4341 20.0445 23.5392 19.9445C23.6443 19.8445 23.7869 19.7883 23.9355 19.7883H42.5016C42.6502 19.7883 42.7928 19.8445 42.8979 19.9446L49.9023 26.6073C50.0075 26.7073 50.0665 26.8429 50.0666 26.9843V30.9035C51.3834 30.9806 52.6736 31.347 53.8496 31.9929C55.8495 33.0912 57.28 34.8645 57.8777 36.9863C58.5102 39.2319 58.0974 41.5136 56.9245 43.3625C58.1106 44.4595 59.2956 45.5996 60.4449 46.7057C61.0654 47.3029 61.707 47.9204 62.3371 48.5198C63.1247 49.269 63.1347 50.4787 62.3592 51.2162ZM43.0621 26.451H48.1527L43.0621 21.6088V26.451ZM48.9454 54.1456V47.3236C47.643 47.2413 46.3679 46.8754 45.2042 46.2364C43.2043 45.1381 41.7738 43.3648 41.1761 41.243C39.9424 36.8631 42.6847 32.345 47.2893 31.1712C47.8311 31.033 48.3857 30.9447 48.9454 30.9076V27.5174H42.5015C42.3528 27.5174 42.2103 27.4612 42.1051 27.3612C42 27.2612 41.941 27.1256 41.941 26.9842V20.8547H24.4961V54.1456H48.9454ZM56.7947 37.2622C56.2746 35.4157 55.0296 33.8722 53.2891 32.9163C51.5485 31.9604 49.5208 31.7064 47.5795 32.2014C43.572 33.2228 41.1853 37.1551 42.2592 40.967C42.7793 42.8136 44.0243 44.357 45.7648 45.3129C47.5053 46.2688 49.533 46.5228 51.4744 46.0279C55.4818 45.0065 57.8686 41.0742 56.7947 37.2622ZM54.9341 45.5302L57.4251 47.8996L58.7747 46.6158C57.95 45.8241 57.1124 45.0257 56.2753 44.2491C55.8791 44.7217 55.4293 45.1513 54.9341 45.5302ZM61.5443 49.2737C60.9119 48.6722 60.269 48.0534 59.6474 47.4552L59.5631 47.3741L58.2178 48.6537L60.2069 50.5458C60.5575 50.8791 61.1179 50.8886 61.4563 50.5669L61.5666 50.462C61.9048 50.1403 61.8949 49.6072 61.5443 49.2737Z" fill="black"/>
</svg>
