<svg width="56" height="52" viewBox="0 0 56 52" fill="none" xmlns="http://www.w3.org/2000/svg">
<path d="M28.4359 40.2C28.2143 40.2 28.0063 40.0904 27.8815 39.9056L20.0023 28.2232C19.0655 26.7344 18.5703 25.0288 18.5703 23.2936C18.5703 18.0592 22.9927 13.8 28.4279 13.8C33.8639 13.8 38.2855 18.0592 38.2855 23.2936C38.2855 25.0248 37.7959 26.7208 36.8695 28.1968L28.9887 39.9056C28.8655 40.0904 28.6575 40.2 28.4359 40.2ZM28.4279 15.136C23.7295 15.136 19.9063 18.7952 19.9063 23.2936C19.9063 24.7768 20.3263 26.2288 21.1223 27.4944L28.4343 38.3344L35.7511 27.4696C36.5359 26.2168 36.9503 24.7728 36.9503 23.2936C36.9495 18.7952 33.1263 15.136 28.4279 15.136Z" fill="white"/>
<path d="M28.4261 27.6856C25.8989 27.6856 23.8438 25.7 23.8438 23.2576C23.8438 20.8168 25.8989 18.8304 28.4261 18.8304C30.9533 18.8304 33.0093 20.8168 33.0093 23.2576C33.0093 25.7 30.9525 27.6856 28.4261 27.6856ZM28.4261 20.1664C26.6365 20.1664 25.1805 21.5536 25.1805 23.2576C25.1805 24.9616 26.6365 26.3496 28.4261 26.3496C30.2157 26.3496 31.6726 24.9624 31.6726 23.2576C31.6726 21.5536 30.215 20.1664 28.4261 20.1664Z" fill="white"/>
<circle cx="28.4297" cy="26" r="25.75" stroke="white" stroke-width="0.5" stroke-dasharray="2 2"/>
<circle cx="2.12109" cy="26.1213" r="1.5" transform="rotate(45 2.12109 26.1213)" fill="white"/>
<circle cx="53.7383" cy="26.3034" r="1.5" transform="rotate(45 53.7383 26.3034)" fill="white"/>
</svg>
