<svg width="52" height="52" viewBox="0 0 52 52" fill="none" xmlns="http://www.w3.org/2000/svg">
<path d="M37.4042 18H13.595C13.2667 18 13 18.2633 13 18.5892V33.9152C13 34.2411 13.2667 34.5052 13.595 34.5052H37.4042C37.7342 34.5052 38 34.2411 38 33.9152V18.5892C38 18.2633 37.7342 18 37.4042 18ZM14.1908 19.8725L21.5392 25.7055L14.1908 32.4099V19.8725ZM25.5 27.3403L15.2208 19.1785H35.78L25.5 27.3403ZM22.4783 26.4515L25.1267 28.5543C25.1275 28.5543 25.1292 28.5559 25.13 28.5559C25.1358 28.5609 25.1425 28.5658 25.1475 28.5699C25.1583 28.5774 25.1683 28.5856 25.1792 28.5914C25.1858 28.5963 25.1925 28.5997 25.1992 28.6038C25.2108 28.6112 25.2233 28.6178 25.235 28.6236C25.2408 28.6252 25.2458 28.6285 25.2508 28.6318C25.2692 28.6393 25.2883 28.6467 25.3067 28.6525C25.3075 28.6525 25.3083 28.6525 25.3092 28.6541C25.3267 28.6591 25.3458 28.6657 25.3642 28.6681C25.3692 28.6698 25.3733 28.6714 25.3783 28.6714C25.3942 28.6756 25.4092 28.6772 25.425 28.6789C25.4292 28.6805 25.435 28.6805 25.4392 28.6805C25.4592 28.6838 25.4783 28.6855 25.4983 28.6855C25.5183 28.6855 25.5383 28.6838 25.5583 28.6805C25.5625 28.6805 25.5675 28.6805 25.5717 28.6789C25.5883 28.6772 25.6042 28.6756 25.6192 28.6714C25.6242 28.6714 25.6292 28.6698 25.6333 28.6681C25.6517 28.6657 25.67 28.6591 25.6883 28.6541C25.6892 28.6525 25.69 28.6525 25.6908 28.6525C25.71 28.6459 25.7283 28.6384 25.7467 28.6318C25.7525 28.6285 25.7575 28.6252 25.7625 28.6236C25.775 28.617 25.7867 28.6104 25.8 28.6038C25.8067 28.5997 25.8133 28.5963 25.8192 28.5914C25.8292 28.5848 25.84 28.5765 25.85 28.5699C25.8567 28.5658 25.8633 28.5609 25.8683 28.5559C25.8692 28.5559 25.8708 28.5543 25.8717 28.5543L28.52 26.4515L36.0558 33.3259H14.9433L22.4783 26.4515ZM29.4617 25.7055L36.8092 19.8725V32.3959L29.4617 25.7055Z" fill="white"/>
<circle cx="26" cy="26" r="25.75" stroke="white" stroke-width="0.5" stroke-dasharray="2 2"/>
<circle cx="7.5" cy="7.5" r="1.5" transform="rotate(90 7.5 7.5)" fill="white"/>
<circle cx="42.5" cy="45.5" r="1.5" transform="rotate(90 42.5 45.5)" fill="white"/>
</svg>
