<svg width="52" height="50" viewBox="0 0 52 50" fill="none" xmlns="http://www.w3.org/2000/svg">
<g clip-path="url(#clip0_990_28)">
<path d="M38.1875 36.9995C31.5096 36.9925 25.1073 34.4386 20.3853 29.8982C15.6633 25.3579 13.0073 19.2018 13 12.7808C13 12.5736 13.0856 12.3748 13.238 12.2283C13.3903 12.0818 13.597 11.9995 13.8125 11.9995H18.4356C18.8333 11.9984 19.2273 12.0733 19.5946 12.2198C19.962 12.3662 20.2955 12.5813 20.5758 12.8526L23.764 15.9167C23.9905 16.1344 24.1702 16.3928 24.2928 16.6772C24.4154 16.9617 24.4785 17.2666 24.4785 17.5745C24.4785 17.8824 24.4154 18.1873 24.2928 18.4718C24.1702 18.7562 23.9905 19.0147 23.764 19.2323L21.45 21.4495C23.2292 24.5861 25.9099 27.1638 29.172 28.8745L31.4779 26.6558C31.935 26.2164 32.5548 25.9695 33.2012 25.9695C33.8475 25.9695 34.4674 26.2164 34.9245 26.6558L38.1127 29.7214C38.3941 29.9905 38.6174 30.3104 38.7696 30.6627C38.9219 31.0151 39.0002 31.3929 39 31.7745V36.2183C39 36.4255 38.9144 36.6242 38.762 36.7707C38.6097 36.9172 38.403 36.9995 38.1875 36.9995ZM14.6396 13.562C14.8527 19.2948 17.3164 24.7371 21.5348 28.7935C25.7531 32.8499 31.413 35.2192 37.375 35.4245V31.7745C37.3755 31.5972 37.3394 31.4215 37.2688 31.2576C37.1982 31.0937 37.0946 30.9449 36.9639 30.8198L33.7756 27.7542C33.6233 27.6077 33.4166 27.5255 33.2012 27.5255C32.9857 27.5255 32.7791 27.6077 32.6267 27.7542L29.9 30.3792C29.7792 30.4953 29.6234 30.5718 29.4548 30.5978C29.2862 30.6239 29.1133 30.5983 28.9608 30.5245C24.9825 28.5876 21.7508 25.4806 19.7356 21.6558C19.6583 21.509 19.6312 21.3426 19.658 21.1801C19.6849 21.0177 19.7643 20.8675 19.8851 20.7511L22.6151 18.1276C22.6908 18.0551 22.7508 17.9688 22.7918 17.8739C22.8327 17.779 22.8538 17.6773 22.8538 17.5745C22.8538 17.4717 22.8327 17.37 22.7918 17.2751C22.7508 17.1802 22.6908 17.094 22.6151 17.0214L19.4269 13.9573C19.297 13.8317 19.1425 13.7321 18.9724 13.6643C18.8022 13.5964 18.6198 13.5617 18.4356 13.562H14.6396Z" fill="white"/>
</g>
<path d="M51.8149 22.0015C51.8967 22.6593 51.9519 23.3249 51.9795 23.9974L51.7297 24.0077C51.7432 24.3368 51.75 24.6676 51.75 25C51.75 25.3324 51.7432 25.6632 51.7297 25.9923L51.9795 26.0026C51.9519 26.6751 51.8967 27.3407 51.8149 27.9985L51.5668 27.9677C51.4848 28.6273 51.3758 29.279 51.2409 29.9216L51.4856 29.9729C51.3477 30.6298 51.183 31.2774 50.9927 31.9146L50.7532 31.843C50.5634 32.4783 50.3479 33.1032 50.1078 33.7164L50.3406 33.8076C50.0965 34.4308 49.8273 35.0422 49.5342 35.6406L49.3097 35.5307C49.0185 36.125 48.7035 36.7064 48.3657 37.2737L48.5805 37.4016C48.2388 37.9756 47.8741 38.5354 47.4876 39.0797L47.2838 38.9349C46.9012 39.4737 46.497 39.9973 46.0723 40.5045L46.264 40.665C45.8358 41.1765 45.3871 41.6714 44.919 42.1487L44.7406 41.9736C44.2782 42.445 43.7968 42.899 43.2976 43.3344L43.4619 43.5229C42.9598 43.9608 42.4398 44.3801 41.903 44.7796L41.7538 44.5791C41.2247 44.973 40.6792 45.3475 40.1184 45.7015L40.2519 45.9129C39.6889 46.2683 39.1108 46.6033 38.5186 46.9167L38.4017 46.6957C37.8194 47.0038 37.2234 47.291 36.6148 47.556L36.7146 47.7852C36.1049 48.0507 35.4826 48.2942 34.8489 48.5148L34.7667 48.2787C34.1454 48.4949 33.513 48.6888 32.8705 48.8593L32.9346 49.1009C32.293 49.2713 31.6414 49.4185 30.9808 49.5417L30.935 49.296C30.2892 49.4165 29.6347 49.5137 28.9726 49.5869L29 49.8354C28.3415 49.9081 27.6754 49.9572 27.0028 49.9817L26.9937 49.7319C26.664 49.7439 26.3328 49.75 26 49.75C25.6672 49.75 25.336 49.7439 25.0063 49.7319L24.9972 49.9817C24.3246 49.9572 23.6585 49.9081 23 49.8354L23.0274 49.5869C22.3653 49.5137 21.7108 49.4165 21.065 49.296L21.0192 49.5417C20.3586 49.4185 19.707 49.2713 19.0654 49.1009L19.1295 48.8593C18.487 48.6888 17.8546 48.4949 17.2333 48.2787L17.1511 48.5148C16.5174 48.2942 15.8951 48.0507 15.2854 47.7852L15.3852 47.556C14.7766 47.291 14.1806 47.0038 13.5983 46.6957L13.4814 46.9167C12.8892 46.6033 12.3111 46.2683 11.7481 45.9129L11.8816 45.7015C11.3208 45.3475 10.7753 44.973 10.2462 44.5791L10.097 44.7796C9.56024 44.3801 9.04024 43.9608 8.53812 43.5229L8.70244 43.3344C8.20317 42.899 7.72178 42.445 7.25944 41.9736L7.08095 42.1487C6.61291 41.6714 6.16418 41.1765 5.73596 40.665L5.92765 40.5045C5.50304 39.9973 5.09883 39.4737 4.71621 38.9349L4.51237 39.0796C4.12588 38.5354 3.76118 37.9756 3.41947 37.4016L3.63428 37.2737C3.29653 36.7064 2.98148 36.125 2.69033 35.5307L2.46583 35.6406C2.17268 35.0422 1.90348 34.4308 1.65944 33.8076L1.89223 33.7164C1.65209 33.1031 1.43657 32.4783 1.24681 31.843L1.00727 31.9146C0.816954 31.2774 0.652282 30.6298 0.514393 29.9729L0.759061 29.9216C0.624173 29.2789 0.515181 28.6273 0.433181 27.9677L0.18509 27.9985C0.103317 27.3407 0.0481084 26.6751 0.0205253 26.0026L0.270315 25.9923C0.256814 25.6632 0.25 25.3324 0.25 25C0.25 24.6676 0.256815 24.3368 0.270316 24.0077L0.0205258 23.9974C0.0481092 23.3249 0.103318 22.6593 0.185092 22.0015L0.433182 22.0323C0.515183 21.3727 0.624175 20.721 0.759063 20.0784L0.514395 20.0271C0.652284 19.3702 0.816956 18.7226 1.00727 18.0854L1.24681 18.157C1.43657 17.5217 1.6521 16.8968 1.89223 16.2836L1.65944 16.1924C1.90349 15.5692 2.17268 14.9578 2.46583 14.3594L2.69034 14.4693C2.98149 13.875 3.29653 13.2936 3.63428 12.7263L3.41947 12.5984C3.76118 12.0244 4.12589 11.4646 4.51238 10.9204L4.71621 11.0651C5.09884 10.5263 5.50305 10.0027 5.92765 9.49548L5.73596 9.335C6.16418 8.82351 6.61291 8.32857 7.08096 7.85133L7.25944 8.02638C7.72178 7.55497 8.20317 7.10098 8.70243 6.66556L8.53812 6.47715C9.04024 6.03924 9.56024 5.61994 10.0969 5.22039L10.2462 5.42092C10.7753 5.02704 11.3208 4.65253 11.8816 4.29849L11.7481 4.0871C12.3111 3.7317 12.8892 3.39674 13.4814 3.08333L13.5983 3.3043C14.1806 2.99616 14.7766 2.70904 15.3852 2.44401L15.2854 2.2148C15.8951 1.94929 16.5174 1.70575 17.1511 1.48522L17.2333 1.72133C17.8546 1.50513 18.487 1.31125 19.1295 1.1407L19.0654 0.899067C19.707 0.728747 20.3586 0.581484 21.0192 0.458262L21.065 0.704022C21.7108 0.583544 22.3653 0.486261 23.0274 0.413114L23 0.164625C23.6585 0.0918722 24.3246 0.0427794 24.9972 0.0182532L25.0063 0.268087C25.336 0.256066 25.6672 0.25 26 0.25C26.3328 0.25 26.664 0.256066 26.9937 0.268087L27.0028 0.0182531C27.6754 0.0427793 28.3415 0.0918721 29 0.164625L28.9726 0.413113C29.6347 0.48626 30.2892 0.583544 30.935 0.704022L30.9808 0.458261C31.6414 0.581483 32.293 0.728746 32.9346 0.899065L32.8705 1.1407C33.513 1.31125 34.1454 1.50513 34.7667 1.72133L34.8489 1.48522C35.4826 1.70575 36.1049 1.94929 36.7146 2.2148L36.6148 2.44401C37.2234 2.70904 37.8194 2.99616 38.4017 3.3043L38.5186 3.08333C39.1108 3.39674 39.6889 3.73169 40.2519 4.08709L40.1184 4.29849C40.6792 4.65253 41.2247 5.02704 41.7538 5.42092L41.903 5.22039C42.4398 5.61994 42.9598 6.03923 43.4619 6.47715L43.2976 6.66556C43.7968 7.10098 44.2782 7.55497 44.7406 8.02639L44.919 7.85134C45.3871 8.32857 45.8358 8.82351 46.264 9.335L46.0723 9.49548C46.497 10.0027 46.9012 10.5263 47.2838 11.0651L47.4876 10.9204C47.8741 11.4646 48.2388 12.0244 48.5805 12.5984L48.3657 12.7263C48.7035 13.2936 49.0185 13.875 49.3097 14.4693L49.5342 14.3594C49.8273 14.9578 50.0965 15.5692 50.3406 16.1924L50.1078 16.2836C50.3479 16.8968 50.5634 17.5217 50.7532 18.157L50.9927 18.0854C51.183 18.7226 51.3477 19.3702 51.4856 20.0271L51.2409 20.0784C51.3758 20.7211 51.4848 21.3727 51.5668 22.0323L51.8149 22.0015Z" stroke="white" stroke-width="0.5" stroke-dasharray="2 2"/>
<circle cx="6.5" cy="40.5" r="1.5" fill="white"/>
<circle cx="44.5" cy="7.5" r="1.5" fill="white"/>
<defs>
<clipPath id="clip0_990_28">
<rect width="26" height="25" fill="white" transform="translate(13 12)"/>
</clipPath>
</defs>
</svg>
