<svg width="448" height="723" viewBox="0 0 448 723" fill="none" xmlns="http://www.w3.org/2000/svg">
<path d="M439.849 275.674C438.599 277.615 392.18 296.198 389.415 297.58C386.65 298.973 371.038 315.192 369.523 316.721C367.999 318.241 355.845 340.569 354.604 342.648C353.354 344.727 352.943 362.064 352.386 368.301C351.839 374.547 341.756 396.316 336.92 403.112C332.348 409.544 302.9 456.083 298.699 462.526C299.041 461.32 299.363 460.447 299.617 460.094C300.858 458.358 333.745 406.975 338.298 399.984C342.401 393.688 342.157 394.12 343.339 389.913C343.339 389.913 322.968 382.617 320.535 378.234C318.112 373.851 309.866 367.516 302.588 367.516C302.47 367.516 302.353 367.516 302.226 367.526C302.109 367.516 301.982 367.516 301.865 367.516C294.586 367.516 282.461 374.331 277.126 377.253C271.792 380.176 253.356 403.543 249.955 409.878C248.461 412.653 246.028 413.467 243.566 413.496H243.527C240.644 413.349 237.86 412.319 236.609 412.319C236.551 412.319 236.473 412.329 236.394 412.349C233.483 413.074 220.42 427.195 213.806 437.638C211.588 441.149 210.034 447.523 208.891 454.779C206.537 469.664 205.892 488.227 204.592 493.14C202.648 500.445 169.175 543.297 166.752 547.68C164.32 552.064 165.297 571.283 160.929 608.781L165.541 620.832C167.202 629.668 170.748 645.592 168.775 652.045C168.482 653.025 167.866 654.457 167.046 656.173C167.182 655.8 167.309 655.457 167.397 655.163C169.361 648.711 165.219 632.805 163.567 623.961C161.906 615.125 155.067 604.417 153.612 602.123C152.166 599.838 130.505 595.161 128.121 594.327C125.747 593.494 124.184 589.65 120.041 584.031C115.899 578.412 107.193 563.232 104.194 551.897C101.185 540.561 91.854 523.401 80.462 513.624C69.0602 503.848 54.2485 502.289 52.998 501.043C51.7571 499.788 47.3019 462.251 46.3738 458.819C45.4358 455.387 35.4898 443.836 32.588 438.54C29.6863 433.235 25.5437 428.862 25.954 421.792C26.3742 414.722 24.0879 412.437 22.8471 410.564C21.6063 408.691 2.95497 379.048 2.53486 377.803C2.12451 376.557 3.67797 365.427 4.30326 363.555C4.91879 361.682 5.65155 352.425 6.26707 351.493C6.89237 350.552 7.61536 337.559 8.24065 336.931C8.85618 336.304 10.6246 324.037 11.0349 322.164C11.4551 320.291 28.6506 298.659 30.3115 298.659C31.9725 298.659 37.0432 303.856 42.6415 308.641C48.2399 313.427 55.802 325.596 57.3555 328.822C57.3555 328.822 75.5867 329.959 81.8103 329.44C88.0241 328.92 105.229 319.977 111.443 315.927C117.657 311.868 136.729 292.736 139.318 285.656C141.907 278.586 145.014 271.516 146.469 266.937C147.915 262.367 142.425 245.305 141.799 242.814C141.184 240.314 133.407 234.077 129.059 230.439C124.701 226.801 121.497 218.79 118.595 213.073C115.693 207.346 116.006 200.904 116.211 196.746C116.416 192.578 121.077 183.949 123.881 178.33C126.675 172.722 129.577 161.278 132.889 151.188C136.211 141.107 144.183 130.811 145.434 127.899C146.675 124.986 162.835 113.857 164.496 112.709C166.156 111.572 185.843 111.258 189.986 111.15C194.129 111.052 208.227 104.914 211.021 103.668C213.816 102.413 232.779 92.7444 237.235 90.5577C241.69 88.3808 250.082 81.7226 255.261 77.9767C260.449 74.2308 263.761 62.5814 264.181 61.6498C264.591 60.7183 268.157 31.5947 267.747 28.7804L270.815 2.49072C270.815 2.49072 288.606 2.81432 289.574 2.98102C290.551 3.13791 293.941 9.95303 297.019 11.7377C300.086 13.5224 308.01 13.1988 313.345 11.5808C318.689 9.95303 325.802 8.98224 328.391 10.9336C330.97 12.8752 351.028 16.4445 356.685 16.6112C362.342 16.7681 363.964 13.5224 369.621 13.5224C375.278 13.5224 385.146 16.121 388.223 18.0723C391.291 20.0237 391.457 30.8887 394.691 33.4872C397.925 36.0858 396.792 43.8815 396.792 46.1467C396.792 48.4119 391.457 58.9728 391.457 60.4339C391.457 61.895 390.002 71.3087 389.357 74.878C388.702 78.4474 399.381 89.8125 403.103 88.9986C406.816 88.1847 413.45 78.2905 426.132 63.9346C427.011 62.9442 425.927 71.8382 425.721 77.0452C425.507 82.2423 426.171 113.092 427.138 126.192C428.105 139.303 429.483 145.059 430.177 146.854C430.861 148.658 430.245 156.081 429.346 160.729C428.447 165.367 432.346 174.281 434.114 178.644C435.873 183.018 438.98 195.491 438.98 199.962C438.98 204.434 445.096 246.835 445.506 250.992C445.926 255.15 441.09 273.732 439.849 275.674Z" fill="#2D3544" fill-opacity="0.5" stroke="#1A1F28" stroke-width="4" stroke-miterlimit="10"/>
<path d="M393.673 618.999C392.11 624.716 380.669 637.503 378.158 639.67C375.257 642.16 352.052 640.915 347.49 642.582C342.927 644.239 315.57 677.109 310.597 681.266C305.624 685.424 285.732 692.082 278.688 692.916C271.644 693.749 238.894 684.591 238.894 684.591C238.894 684.591 217.341 694.583 202.011 712.469C202.011 712.469 184.493 720.166 183.458 720.47C182.422 720.784 162.217 719.637 161.289 719.225C160.351 718.813 151.343 707.997 150.923 707.164C150.513 706.33 151.236 687.719 151.236 687.719C151.236 687.719 151.734 686.885 152.584 685.463C156.189 679.364 166.018 662.537 168.49 656.193C168.49 656.193 168.493 656.186 168.5 656.173C169.32 654.457 169.936 653.025 170.229 652.045C172.202 645.592 168.656 629.668 166.995 620.832L162.383 608.781C166.751 571.283 165.774 552.064 168.206 547.68C170.629 543.297 204.102 500.445 206.046 493.14C207.346 488.227 207.991 469.664 210.345 454.779C211.488 447.523 213.042 441.149 215.26 437.638C221.874 427.195 234.937 413.074 237.848 412.349C237.927 412.329 238.005 412.319 238.063 412.319C239.314 412.319 242.098 413.349 244.981 413.496H245.02C247.482 413.467 249.915 412.653 251.409 409.878C254.809 403.543 273.246 380.176 278.58 377.253C283.915 374.331 296.04 367.516 303.319 367.516C303.436 367.516 303.563 367.516 303.68 367.526C303.807 367.516 303.924 367.516 304.042 367.516C311.32 367.516 319.566 373.851 321.989 378.234C324.422 382.617 344.793 389.913 344.793 389.913C343.611 394.12 343.855 393.688 339.752 399.984C335.199 406.975 302.312 458.358 301.071 460.094C300.817 460.447 300.495 461.32 300.153 462.526C299.909 462.889 299.752 463.124 299.684 463.222C298.551 464.791 296.274 476.372 294.838 482.412C294.691 483.01 294.564 483.55 294.437 484.02C293.06 489.286 253.403 511.82 250.853 513.968C250.061 514.634 248.899 516.733 247.648 519.4C247.648 519.429 247.628 519.459 247.609 519.488C244.834 525.47 241.649 534.266 241.18 536.502C240.594 539.247 249.7 551.926 254.682 555.937C255.601 556.682 256.383 557.133 256.93 557.163C260.447 557.369 279.929 545.17 281.316 545.376C281.717 545.435 282.821 545.807 284.286 546.317C287.784 547.543 293.324 549.592 296.274 550.23C301.15 551.279 308.946 575.608 308.946 575.608H323.592C323.592 575.608 347.9 585.865 362.829 588.914C377.748 591.964 391.426 613.321 393.634 616.93C393.927 617.41 393.918 618.126 393.673 618.999Z" fill="#2D3544" stroke="#1A1F28" stroke-width="4" stroke-miterlimit="10"/>
<circle cx="209" cy="541" r="4" fill="#FFD600"/>
<circle cx="242" cy="639" r="4" fill="#FFD600"/>
<circle cx="209" cy="541" r="6" stroke="#FFC700" stroke-width="0.5"/>
<circle cx="242" cy="639" r="6" stroke="#FFC700" stroke-width="0.5"/>
<circle cx="230" cy="504" r="4" fill="#FFD600"/>
<circle cx="230" cy="504" r="6" stroke="#FFC700" stroke-width="0.5"/>
<path d="M302.225 367.526C309.415 367.722 317.427 373.91 319.811 378.224C322.244 382.607 342.615 389.913 342.615 389.913" stroke="#1A1F28" stroke-width="4" stroke-miterlimit="10"/>
<path d="M243.526 413.496C240.751 413.516 237.927 412.565 236.393 412.349C236.208 412.319 236.032 412.31 235.885 412.31C233.462 412.31 219.872 426.92 213.082 437.628C206.291 448.346 205.803 485.834 203.868 493.14C201.924 500.445 168.451 543.287 166.028 547.67C163.596 552.054 164.084 573.97 159.717 611.458" stroke="#1A1F28" stroke-width="4" stroke-miterlimit="10"/>
<path d="M27.2715 410.858C32.606 408.426 38.4291 405.504 44.2521 408.907C50.0751 412.309 69.4788 416.212 76.7576 410.368C84.0364 404.523 107.807 372.389 112.175 370.438C116.542 368.487 128.667 367.025 136.434 376.773C144.201 386.52 158.749 396.737 163.116 396.737C167.484 396.737 180.586 396.737 185.92 390.403C191.255 384.068 196.11 379.695 202.412 379.204C208.714 378.714 215.514 381.636 218.904 390.403C222.294 399.169 233.462 410.858 233.462 410.858L235.885 412.319" stroke="#1A1F28" stroke-width="4" stroke-miterlimit="10"/>
<path d="M159.229 118.22C165.052 126.006 165.54 139.646 169.419 142.078C173.298 144.51 187.855 161.072 190.278 168.858C192.701 176.644 200.947 202.943 201.436 213.651C201.924 224.36 206.292 235.077 210.17 237.019C214.049 238.961 223.272 239.941 228.118 233.126C232.964 226.311 244.132 210.239 244.132 210.239C244.132 210.239 258.201 237.019 262.568 238.48C266.935 239.941 276.637 248.217 281.493 247.247C286.349 246.276 296.529 254.062 297.506 261.857C298.483 269.653 282.47 283.283 273.735 283.283C265.001 283.283 265.978 298.541 271.791 303.405C277.604 308.269 292.172 318.016 294.106 333.274C296.041 348.532 296.373 360.868 301.864 367.516" stroke="#1A1F28" stroke-width="4" stroke-miterlimit="10"/>
<path d="M260.145 72.936C267.902 78.7804 281.492 92.087 283.427 97.6077C285.361 103.128 289.25 123.574 291.839 129.742C294.428 135.91 301.863 167.72 304.775 171.937C307.686 176.153 306.064 184.596 305.42 193.686C304.775 202.776 295.395 217.387 293.451 220.299C291.507 223.212 287.306 239.127 286.983 242.373C286.661 245.618 286.338 248.217 286.338 248.217" stroke="#1A1F28" stroke-width="4" stroke-miterlimit="10"/>
<path d="M390.157 60.6006C384.011 66.7685 381.422 67.7393 381.422 70.0143C381.422 72.2892 373.987 86.5667 371.076 88.518C368.164 90.4694 358.462 95.9804 357.173 97.6081C355.883 99.2359 350.06 116.112 349.738 117.406C349.415 118.701 335.835 131.694 331.624 135.586C327.413 139.479 320.622 150.521 321.922 152.139C323.221 153.757 331.624 174.859 332.268 179.409C332.913 183.959 335.825 200.511 333.89 203.757C331.956 207.003 321.599 199.541 316.421 199.864C311.243 200.188 301.219 206.679 301.219 206.679" stroke="#1A1F28" stroke-width="4" stroke-miterlimit="10"/>
<path d="M166.996 564.232C170.396 571.538 177.186 580.059 178.642 583.707C180.098 587.355 184.709 589.797 186.644 584.197C188.578 578.598 190.044 578.108 190.044 578.108C190.044 578.108 198.29 583.462 201.934 584.923C205.579 586.384 208.48 591.258 210.669 591.012C212.857 590.767 216.248 589.797 219.403 579.079C222.559 568.361 224.494 567.145 227.894 564.713C231.294 562.281 240.019 557.653 247.542 556.927C255.065 556.201 258.943 553.76 258.943 553.76" stroke="#1A1F28" stroke-width="4" stroke-miterlimit="10"/>
<path d="M259.9 504.828C256.745 501.661 246.798 493.63 246.554 489.001C246.31 484.373 248.01 479.264 251.889 478.529C255.768 477.793 259.412 482.422 264.502 481.941C269.592 481.461 275.66 479.754 278.571 481.451C281.483 483.147 290.94 483.637 290.94 483.637H292.396" stroke="#1A1F28" stroke-width="4" stroke-miterlimit="10"/>
<path d="M268.88 386.991C270.336 395.022 271.791 396.238 269.603 399.16C267.414 402.082 264.512 404.759 262.812 404.514C261.112 404.269 260.634 408.162 258.689 410.358C256.745 412.555 255.778 425.204 255.534 427.156C255.289 429.107 247.043 434.216 244.132 435.432C241.22 436.648 236.609 439.325 235.153 442.247C233.697 445.169 231.274 448.337 227.874 447.846C224.474 447.356 220.595 447.601 217.44 449.062C214.284 450.523 208.705 454.907 208.705 454.907" stroke="#1A1F28" stroke-width="4" stroke-miterlimit="10"/>
<path d="M285.978 543.719C279.432 549.318 266.213 558.388 268.392 569.342C270.57 580.295 270.092 596.857 272.026 598.799C273.961 600.74 263.047 604.153 255.778 604.643C248.509 605.133 241.465 601.721 240.742 598.308C240.019 594.896 236.375 588.081 240.019 585.894C243.663 583.707 241.475 571.528 237.107 568.606C232.74 565.684 228.861 564.468 228.861 564.468" stroke="#1A1F28" stroke-width="4" stroke-miterlimit="10"/>
<path d="M334.428 651.878C323.27 642.631 321.756 638.248 313.989 638.728C306.221 639.209 301.375 639.218 298.952 636.777C296.529 634.335 296.041 636.777 293.129 633.855C290.218 630.932 283.427 625.578 278.572 621.685C273.716 617.792 267.414 616.812 267.414 613.409C267.414 610.007 272.026 598.798 272.026 598.798" stroke="#1A1F28" stroke-width="4" stroke-miterlimit="10"/>
<path d="M274.693 553.191C287.307 553.838 297.653 567.478 298.953 573.313C300.252 579.147 307.365 593.434 311.244 597.014C315.122 600.593 321.268 599.612 322.245 604.152C323.222 608.692 318.366 617.459 316.422 618.763C314.478 620.067 314.8 626.882 312.543 631.099C310.286 635.316 305.753 639.218 305.753 639.218" stroke="#1A1F28" stroke-width="4" stroke-miterlimit="10"/>
</svg>
