<svg width="772" height="588" viewBox="0 0 772 588" fill="none" xmlns="http://www.w3.org/2000/svg">
<path d="M250.877 289.259C250 288.244 234.84 288.431 232.413 288.962C229.985 289.493 209.469 299.048 203.831 301.859C198.194 304.669 189.737 303.935 178.21 294.395C166.684 284.856 155.643 270.476 147.796 271.257C145.526 271.772 140.796 274.614 138.337 277.268C135.878 279.922 136.849 285.793 137.82 286.901C138.791 288.01 139.825 296.534 140.671 298.268C141.516 300.001 146.951 311.835 150.13 314.037C153.309 316.238 160.372 319.392 160.497 320.626C160.623 321.859 157.256 324.888 155.643 326.574C154.029 328.26 148.642 329.291 150.271 338.534C150.85 342.016 152.667 344.092 153.638 345.388C154.609 346.684 155.909 354.819 150.725 355.787C145.541 356.755 144.304 356.239 144.241 359.799C144.179 363.359 144.821 368.589 143.208 369.948C141.595 371.306 137.57 376.146 135.236 376.411C132.903 376.677 129.536 374.538 126.936 375.631C124.336 376.724 116.631 384.156 112.935 389.199C111.635 390.495 103.538 385.452 100.751 385.186C97.963 384.921 93.5622 387.7 91.6829 388.48C89.8036 389.261 88.1905 387.45 89.0206 385.576C89.8506 383.703 92.325 380.799 90.9625 378.925C89.6 377.052 75.8653 377.957 73.4692 378.02C71.073 378.082 66.2808 374.273 52.8593 373.757C49.6801 373.882 43.0085 363.874 39.1245 363.609C35.2406 363.343 31.2157 363.421 22.2733 366.966C19.2977 368.261 11.2636 366.247 8.85178 357.66C6.43998 349.073 1.14656 337.769 2.11754 337.238L3.08853 336.723C9.05538 334.396 13.2055 326.637 16.0559 324.841C18.9062 323.046 25.6404 319.408 29.0232 315.801C32.406 312.195 30.8399 298.486 31.0904 297.456C31.341 296.425 30.8242 289.961 30.0568 288.931C29.2894 287.9 23.4165 284.918 23.5105 284.544C23.6045 284.169 24.1213 283.216 26.5957 284.871C29.0702 286.526 32.9541 288.353 35.5068 288.26C38.0596 288.166 40.534 290.617 42.382 285.09C44.23 279.563 46.4696 276.269 47.6285 274.239C48.7874 272.209 50.6354 268.712 49.4765 262.81C48.3176 256.908 43.6506 241.389 47.3309 240.233C47.3309 240.233 55.3963 239.359 55.8818 241.982C56.3673 244.605 56.3673 248.961 59.0923 249.929C61.8174 250.897 64.4328 251.584 67.7372 251.475C71.0417 251.366 76.3821 250.023 77.6507 247.884C78.9192 245.745 85.5281 239.359 85.81 238.297C86.0919 237.236 97.3835 237.142 98.3545 237.907C99.3255 238.672 107.688 233.254 111.666 228.118C115.644 222.981 119.638 216.486 121.674 216.579C123.71 216.673 127.124 216.579 127.703 215.127C128.283 213.675 132.182 209.319 133.247 209.21C134.312 209.101 132.668 204.167 131.493 202.715C130.319 201.263 122.551 194.768 113.217 194.284C103.883 193.8 102.426 192.832 102.426 192.832C102.426 192.832 102.035 187.789 98.2449 187.398C94.4549 187.008 89.3025 185.369 87.9399 186.618C86.5774 187.867 86.5774 190.88 83.5705 190.1C80.5636 189.319 81.5346 185.931 82.114 184.088C82.6935 182.246 94.8465 171.692 94.8465 171.692C94.8465 171.692 94.8465 164.619 95.144 164.228C95.4416 163.838 97.6654 162.48 97.963 162.089C98.2606 161.699 98.1509 155.407 98.746 153.955C98.746 153.955 108.659 138.638 105.747 127.007C106.905 126.616 107.892 112.861 114.501 109.754C121.11 106.647 127.923 99.8709 127.139 95.9989C126.356 92.1268 123.647 86.1157 123.835 82.431C124.023 78.7463 122.285 70.7992 120.139 68.2855C117.993 65.7718 116.647 61.3064 116.051 59.5577C115.456 57.8091 113.139 49.0969 113.139 48.1289C113.139 47.1609 112.355 42.5081 112.168 37.6681C111.98 32.828 113.139 25.2712 115.284 21.7738C117.43 18.2765 124.806 9.56435 134.14 8.39336C143.474 7.22237 151.837 5.48931 155.329 3.55327C158.822 1.61724 166.793 4.70865 170.693 5.87964C174.592 7.05062 180.215 8.206 182.94 6.84765C185.665 5.48931 187.607 2.58526 190.723 4.13096C193.84 5.67666 196.549 6.75397 200.543 6.84765C204.536 6.94133 206.478 9.17402 209.485 10.626C212.492 12.0781 220.464 5.19266 221.638 4.13096C222.813 3.06926 227.949 -0.225116 236.125 5.19266C244.3 10.6104 252.255 17.6988 255.951 19.4319C259.647 21.1649 272.771 28.0503 277.438 32.0317C282.105 36.0131 288.323 44.4286 289.591 46.2709C290.86 48.1133 300.288 55.2797 301.259 56.7318C302.23 58.1838 308.745 66.7086 313.02 71.0803C317.296 75.4519 319.05 79.0274 321.383 81.1664C323.717 83.3054 334.507 83.3991 336.637 83.4927C338.767 83.5864 350.826 85.0384 354.334 83.1961C357.842 81.3537 369.494 73.3129 371.06 72.9226C372.626 72.5323 379.517 69.4409 381.459 69.9249C383.401 70.4089 389.822 68.7695 390.104 67.7859C390.386 66.8022 390.198 61.8685 387.379 60.5101C384.56 59.1518 380.958 56.6381 378.624 53.6247C376.291 50.6114 370.95 38.2145 368.805 36.0911C366.659 33.9677 365.594 28.9247 366.659 27.5663C367.724 26.208 371.906 20.9776 373.362 19.4319C374.819 17.8862 376.573 12.8431 376.369 5.86402C376.369 3.3503 376.948 1.99195 378.311 2.08563C379.673 2.17931 382.007 1.30498 386.188 3.63134C390.37 5.9577 397.95 10.5167 403.682 11.7658C409.414 13.0149 424.777 19.0415 426.234 20.1969C427.69 21.3523 437.901 30.9544 440.141 32.9841C442.38 35.0138 451.025 43.2576 453.453 45.8806C455.88 48.5036 459.67 57.4187 460.641 59.2611C461.612 61.1034 461.314 66.7242 463.068 68.5665C464.822 70.4089 471.04 71.7672 471.337 74.8586C471.635 77.95 468.816 80.8697 469.395 83.3834C469.975 85.8972 472.308 91.0339 472.794 91.6272C473.279 92.2205 473.279 93.8599 474.344 95.0153C475.409 96.1706 482.128 101.307 483.099 103.15C483.396 104.211 483.193 106.444 483.976 107.412C484.759 108.38 487.86 109.926 487.86 110.706C487.86 111.487 488.439 112.939 488.737 113.704C489.034 114.469 488.063 114.86 488.063 115.547C488.063 116.234 490.099 119.419 491.462 120.98C492.824 122.541 499.527 127.085 500.89 128.146C502.252 129.208 502.738 132.409 504.68 134.251C506.622 136.094 508.282 133.767 510.506 135.906C512.73 138.045 518.869 143.463 520.513 143.947C522.157 144.431 526.057 143.76 527.513 143.853C528.97 143.947 529.659 145.508 529.268 146.851C528.876 148.194 528.391 148.787 527.232 148.99C526.073 149.193 525.384 154.033 525.478 154.907C525.572 155.782 525.572 161.59 526.746 165.571C527.921 169.553 527.232 170.614 527.811 171.489C528.391 172.363 531.507 172.753 531.507 173.331C531.507 173.909 530.834 175.267 529.471 176.438C528.892 178.577 531.413 181.575 532.682 184.291C533.95 187.008 550.175 201.247 555.046 204.932C559.916 208.617 562.829 210.646 567.982 210.74C573.134 210.834 577.112 210.069 585.083 205.416C593.055 200.763 603.062 196.891 610.642 198.047C618.222 199.202 628.527 203.371 632.897 209.866C637.266 216.361 638.347 216.845 634.259 226.15C630.172 235.456 622.686 252.115 627.071 258.329C631.456 264.543 634.024 268.696 636.812 269.274C639.599 269.852 650.594 269.664 658.267 267.135C665.941 264.606 674.508 260.359 685.392 261.217C696.277 262.076 708.132 263.544 716.699 271.788C725.25 280.031 729.04 284.481 733.315 287.869C737.59 291.257 737.403 292.616 739.626 292.912C741.85 293.209 749.242 293.006 750.996 293.303C752.75 293.599 754.692 293.693 758.874 292.912C763.055 292.132 769.367 289.321 769.962 289.915C770.557 290.508 764.026 303.295 762.476 305.621C760.925 307.948 745.562 335.474 743.62 343.421C741.678 351.368 733.801 381.501 731.859 397.692C728.554 413.399 725.156 431.229 724.56 433.072C723.965 434.914 717.764 446.936 717.858 450.028C717.952 453.119 718.829 471.152 717.075 480.551C715.32 489.951 712.799 503.034 711.828 506.719C711.828 512.043 712.016 557.212 711.531 558.461C711.045 559.71 699.675 578.914 697.624 581.038C695.572 583.161 691.109 584.91 690.138 585.597C689.167 586.284 681.775 586.174 678.674 584.629C675.573 583.083 672.55 581.147 672.159 581.147C671.767 581.147 661.462 581.241 660.977 580.569C660.491 579.898 654.18 576.307 648.432 575.729C642.685 575.152 635.7 572.732 629.858 572.341C624.017 571.951 613.915 573.497 608.465 575.636C603.015 577.775 595.154 576.416 591.551 574.277C587.949 572.138 573.964 564.191 572.696 561.771C571.427 559.351 566.666 540.553 559.18 536.665C551.694 532.777 541.781 530.467 528.954 535.01C526.135 536.368 505.244 534.042 496.191 526.969C487.139 519.897 464.697 497.211 462.661 493.432C460.625 489.654 456.835 484.423 456.24 482.003C455.645 479.583 450.994 480.848 448.457 481.613C445.92 482.378 438.246 480.832 434.941 478.99C431.637 477.148 425.325 475.696 419.687 469.981C414.049 464.267 412.201 459.317 408.224 457.959C404.246 456.601 399.281 454.852 395.883 455.336C392.484 455.82 387.911 458.24 384.513 461.051C381.114 463.861 375.758 470.059 375.179 469.482C374.599 468.904 373.237 466 372.172 465.703C371.107 465.407 369.932 465.407 367.802 462.315C365.673 459.224 357.435 452.619 355.806 451.527C354.177 450.434 353.801 450.683 352.69 451.714C351.578 452.744 348.539 452.619 348.085 451.448C347.631 450.277 348.273 445.188 348.085 444.672C347.897 444.157 341.805 442.861 341.476 438.021C341.147 433.181 341.539 427.81 341.022 426.139C340.505 424.469 336.292 420.644 334.93 417.349C333.567 414.055 328.133 408.434 324.374 407.794C320.616 407.154 314.336 406.373 312.911 403.984C311.485 401.596 312.644 400.565 309.935 396.303C307.226 392.04 301.838 387.84 298.988 386.154C296.138 384.468 286.475 376.068 283.436 371.743C280.398 367.418 276.248 361.142 276.311 357.145C276.373 353.148 279.098 350.369 280.336 349.135C281.573 347.902 288.37 341.313 288.119 334.599C287.869 327.886 281.573 313.537 278.268 309.009C274.964 304.482 272.63 301.453 270.939 299.579C269.248 297.705 266.601 298.736 263.359 297.768C260.117 296.8 252.146 292.147 251.629 291.054C251.112 289.961 250.877 289.29 250.877 289.29V289.259Z" fill="#2D3544" stroke="#1A1F28" stroke-width="3" stroke-miterlimit="10"/>
<circle cx="255" cy="207" r="4" fill="#FFD600"/>
<circle cx="255" cy="207" r="6" stroke="#FFC700" stroke-width="0.5"/>
<circle cx="334" cy="173" r="4" fill="#FFD600"/>
<circle cx="334" cy="173" r="6" stroke="#FFC700" stroke-width="0.5"/>
<circle cx="334" cy="240" r="4" fill="#FFD600"/>
<circle cx="334" cy="240" r="6" stroke="#FFC700" stroke-width="0.5"/>
<circle cx="153" cy="248" r="4" fill="#FFD600"/>
<circle cx="153" cy="248" r="6" stroke="#FFC700" stroke-width="0.5"/>
<path d="M102 236C102.977 243.523 106.111 261.184 109.435 265.933C112.758 270.683 125.47 280.374 130.164 281.171C134.858 281.968 137 282 137 282" stroke="#1A1F28" stroke-width="3" stroke-miterlimit="10"/>
<path d="M133 207.004C135.641 206.91 139.446 208.553 141.679 209.915C143.911 211.277 152.905 214.673 154.068 214.97C155.232 215.268 158.942 217.114 159.539 219.243C160.137 221.372 165.294 229.541 167.055 229.933C168.816 230.324 178.469 230.418 180.623 230.606C182.777 230.794 188.044 230.308 189.695 229.729C191.346 229.15 196.519 229.635 199.647 231.185C202.776 232.734 204.914 233.517 206.471 235.27C208.027 237.023 212.807 240.716 212.713 241.577C212.618 242.438 218.074 241.765 219.536 244.003C220.998 246.241 223.64 250.796 224.127 251.782C224.615 252.768 226.863 257.228 227.146 260.531C227.429 263.833 229.095 272.676 230.165 273.552C231.234 274.429 234.064 275.399 235.243 278.122C236.422 280.846 237.192 281.613 237.979 281.816C238.765 282.02 245.305 281.628 246.956 283.851C248.607 286.073 249 289 249 289" stroke="#1A1F28" stroke-width="3" stroke-miterlimit="10"/>
<path d="M98 159C100.909 162.013 105.962 163.284 107.807 163.974C109.653 164.665 121.494 164.649 122.463 166.014C123.433 167.38 124.309 168.651 125.279 168.839C126.249 169.027 129.158 166.689 130.613 166.893C132.067 167.097 135.462 170.204 137.902 170.204C140.342 170.204 144.8 166.501 147.803 166.407C150.806 166.313 153.137 170.785 154.404 171.475C155.671 172.166 161.489 172.84 163.335 172.746C165.181 172.652 169.263 171.773 170.624 174.504C171.985 177.234 174.222 178.207 175.676 178.207C177.131 178.207 180.337 181.032 181.307 182.695C182.277 184.358 185.093 185.52 186.751 184.845C188.409 184.17 192.866 182.413 195.009 184.939C197.152 187.466 202.095 192.346 203.268 193.021C204.441 193.695 212.106 198.183 213.857 200.521C215.609 202.86 218.706 201.981 220.849 201.981C222.992 201.981 227.935 201.588 228.999 202.86C230.062 204.131 232.299 208.603 233.269 209.874C234.238 211.145 238.602 216.59 237.93 217.767C237.257 218.944 235.99 219.525 235.114 219.917C234.238 220.309 232.784 220.796 232.596 221.769C232.408 222.741 231.141 227.324 230.265 229.081C229.39 230.839 228.717 232.298 227.262 232.298C225.808 232.298 223.477 232.11 222.413 233.459C221.35 234.809 216.204 243 216.204 243" stroke="#1A1F28" stroke-width="3" stroke-miterlimit="10"/>
<path d="M107 123.985C115.247 124.884 120.647 125.783 123.354 123.862C126.062 121.94 131.726 117.2 133.78 117.06C135.834 116.921 146.011 117.835 151.939 114.488C157.868 111.142 160.56 107.052 159.922 103.721C159.284 100.39 160.046 96.5476 162.629 95.5096C165.213 94.4716 170.488 97.942 173.055 98.3293C175.623 98.7166 177.692 100.638 178.844 97.6941C179.995 94.7505 178.392 90.1336 177.474 89.2195C176.556 88.3054 177.288 85.9505 182.407 85.5632C187.527 85.1759 193.704 86.0899 195.494 86.3378C197.283 86.5857 198.544 84.5097 197.765 79.6604C196.987 74.8111 195.836 71.2013 191.432 67.4985C187.029 63.7957 176.992 52.1606 174.098 50.9057C171.203 49.6508 163.999 43.8874 162.163 43.5466C160.326 43.2057 156.95 43.1128 155.689 44.4606C154.429 45.8085 154.725 50.5648 154.725 51.9127C154.725 53.2606 154.865 58.4972 154.289 59.5507C153.713 60.6042 151.535 64.1676 150.71 64.5549C149.885 64.9422 141.093 65.3295 140.378 64.4154C139.662 63.5014 139.553 57.4437 139.46 55.6155C139.366 53.7873 139.709 48.9381 140.907 47.0015C142.105 45.0649 143.521 41.2846 142.556 40.3241C141.591 39.3635 140.144 37.4424 138.106 38.1551C136.067 38.8677 127.384 42.586 126.949 42.7719C126.513 42.9578 121.254 44.786 119.946 44.8944C118.639 45.0029 112.944 45.3282 112.944 45.3282" stroke="#1A1F28" stroke-width="3" stroke-miterlimit="10"/>
<path d="M257 20C256.025 20.777 253.683 21.4762 252.378 21.8026C251.074 22.1289 246.986 27.9095 246.719 28.4223C246.452 28.9351 245.933 30.5512 246.2 31.3748C246.468 32.1984 244.314 33.6901 243.921 34.3894C243.528 35.0887 242.223 38.6316 241.909 39.7971C241.594 40.9625 241.123 44.2413 238.136 44.1636C235.149 44.0859 232.807 46.9918 232.147 48.4058C231.486 49.8199 227.525 44.8629 226.094 43.8995C224.664 42.936 218.816 40.6828 211.978 40.5585C205.139 40.4342 204.039 40.4963 203.976 41.2733C203.913 42.0503 202.609 45.4845 203.395 45.7175C205.674 46.3547 207.89 46.4945 206.711 47.9086C205.532 49.3227 203.583 52.0265 201.634 52.7879C199.685 53.5494 200.203 54.7148 201.697 56.393C203.19 58.0713 204.228 59.9982 202.939 62.2514C201.65 64.5046 200.596 67.457 198.584 68.8711C196.572 70.2852 195 71 195 71" stroke="#1A1F28" stroke-width="3" stroke-miterlimit="10"/>
<path d="M197 74.9472C199.08 76.5332 202.881 78.7566 203.116 81.9908C203.35 85.2249 204.617 89.9983 205.399 92.0819C206.181 94.1654 210.733 99.1254 210.248 104.972C209.763 110.818 213.595 114.674 214.33 115.545C215.065 116.416 218.021 119.261 218.021 121.531C218.021 123.801 224.763 128.777 225.357 129.057C225.951 129.337 229.393 133.006 229.674 136.442C229.956 139.879 237.01 145.756 237.635 147.933C238.261 150.11 238.855 155.505 239.231 158.211C239.606 160.916 242.578 165.55 245.112 165.829C247.646 166.109 258.704 166.125 260.064 165.254C261.425 164.383 266.665 154.728 266.18 150.11C265.695 145.492 265.304 136.691 266.477 133.892C267.65 131.094 271.811 122.511 271.811 119.23C271.811 115.949 271.029 107.553 270.544 105.236C270.059 102.919 270.356 101.473 272.092 101.38C273.829 101.287 277.598 96.5288 278.63 93.4968C279.663 90.4648 285.043 86.4843 288.594 85.0072C292.144 83.5301 294.35 79.3475 294.224 75.3515C294.099 71.3554 294.162 69.9405 295.585 69.4896C297.008 69.0387 299.918 67.6859 300.637 66.4731C301.357 65.2603 303.812 61.8396 304 61" stroke="#1A1F28" stroke-width="3" stroke-miterlimit="10"/>
<path d="M226.554 201C225.71 194.595 223.96 188.006 225.835 185.462C227.711 182.919 228.555 180.835 228.352 177.157C228.149 173.48 227.195 169.925 228.165 168.469C229.134 167.013 231.979 164.163 233.667 165.236C235.355 166.309 239.81 169.68 241.436 169.297C243.062 168.913 244.734 168.53 245 166.033" stroke="#1A1F28" stroke-width="3" stroke-miterlimit="10"/>
<path d="M259.052 165C258.786 167.083 259.505 168.598 262.228 168.662C264.951 168.725 277.768 168.598 279.646 168.393C281.524 168.188 296.938 167.352 299.52 168.662C302.102 169.972 309.755 174.343 311.633 179.899C313.511 185.455 318.362 191.847 317.846 197.465C317.329 203.084 318.033 209.808 326.202 214.511C334.371 219.214 337.282 220.461 344.011 220.193C350.74 219.924 356.123 219.798 358.064 221.298C360.004 222.797 364.856 224.959 368.095 224.896C371.334 224.833 376.311 225.606 378.392 227.705C379.816 229.142 381.819 231.367 388.423 229.726C395.027 228.084 398.908 228.479 399.753 229.142C400.598 229.805 400.786 232.74 405.199 231.825C409.612 230.909 410.958 228.826 411.866 228.431C412.774 228.037 415.888 227.453 416.404 225.748C416.921 224.044 418.924 222.229 420.348 222.544C421.772 222.86 423.916 223.27 425.074 222.939C426.232 222.607 428.376 220.714 428.83 219.798C429.283 218.883 432.773 214.116 433.43 212.869C434.088 211.623 437.703 207.456 439.189 206.856C440.676 206.256 442.303 203.589 443.133 203.589C443.962 203.589 445.731 204.694 445.856 205.672C445.981 206.651 447.468 209.792 448.892 210.186C450.316 210.581 451.411 213.327 451.74 215.079C452.069 216.831 453.68 223.57 454.009 225.07C454.338 226.569 454.839 228.684 458.234 227.548C461.63 226.411 465.136 224.17 466.638 224.123C468.14 224.075 480.096 224.217 481.599 222.355C483.101 220.493 484.165 218.835 484.462 215.111C484.76 211.386 485.62 205.309 487.905 204.536C490.19 203.763 496.7 204.047 498.547 204.583C500.393 205.12 505.198 205.562 506.997 203.51C508.797 201.458 513.648 195.524 514.29 194.735C514.931 193.946 517.201 191.847 517.733 190.284C518.265 188.722 520.69 182.061 522.052 180.83C523.413 179.599 526.027 176.758 527.294 176.616C528.562 176.474 529 176.269 529 176.269" stroke="#1A1F28" stroke-width="3" stroke-miterlimit="10"/>
<path d="M482 514C485.387 513.906 488.68 511.857 490.819 508.182C492.957 504.507 497.109 499.44 498.857 498.283C500.605 497.125 503.898 493.325 504.382 492.261C504.866 491.198 496.531 488.18 494.206 486.725C491.88 485.271 489.742 484.207 489.258 480.313C488.774 476.419 488.774 466.629 490.319 465.268C491.864 463.907 506.208 445.078 507.269 443.232C508.331 441.387 506.973 435.084 506.598 433.911C506.224 432.738 507.863 428.469 506.021 426.342C504.179 424.215 502.384 423.183 502.197 421.681C502.01 420.18 500.121 418.96 500.698 417.647C501.276 416.333 503.461 411.766 505.443 410.75C507.426 409.733 511.109 407.106 512.467 405.792C513.825 404.478 515.37 399.677 515.713 397.972C516.057 396.268 518.273 390.637 518.336 389.089C518.398 387.541 520.895 382.443 522.019 382.349C523.674 382.208 525.984 384.82 527.638 384.867C529.292 384.914 533.116 382.63 534.521 382.63C535.926 382.63 540.046 384.429 541.248 384.663C542.45 384.898 546.243 385.68 548.756 385.539C551.269 385.398 555.249 384.96 555.592 383.647C555.935 382.333 554.531 378.267 553.516 376.703C552.502 375.139 550.613 369.915 550.894 368.555C551.175 367.194 552.158 362.972 553.563 361.376C554.968 359.781 555.358 352.446 555.639 351.336C555.92 350.226 555.982 345.174 555.155 343.376C554.328 341.577 553.891 339.685 554.047 338.527C554.203 337.37 555.452 334.602 555.545 332.71C555.639 330.817 558.011 324.014 558.105 322.419C558.199 320.824 559.166 318.15 562.413 317.805C565.659 317.461 568.906 316.101 569.827 313.192C570.747 310.283 573.073 308.578 574.181 308.531C575.289 308.484 582.906 315.71 583.718 316.398C585.419 316.695 585.997 314.693 586.668 312.613C587.339 310.533 589.383 303.496 591.272 301.791C593.161 300.086 599.794 294.268 605.663 298.788C604.789 295.441 605.132 287.387 606.24 285.057C607.348 282.727 611.765 279.912 612.046 278.316C612.327 276.721 612.296 269.621 613.935 268.119C615.574 266.618 626 257 626 257" stroke="#1A1F28" stroke-width="3" stroke-miterlimit="10"/>
<path d="M453.653 480C451.091 472.765 451.986 466.546 453.144 462.796C454.301 459.046 460.166 449.342 460.552 445.857C460.937 442.373 467.064 404.73 467.188 402.792C467.311 400.854 471.015 371.103 471.154 365.68C471.293 360.258 475.367 317.052 478.562 313.302C481.756 309.552 466.555 294.16 462.975 284.082C459.394 274.003 455.443 256.799 454.672 253.299C453.9 249.798 454.132 241.423 453.452 238.938C452.773 236.454 451.292 231.657 452.881 230.156C454.471 228.656 455.906 227 455.906 227" stroke="#1A1F28" stroke-width="3" stroke-miterlimit="10"/>
<path d="M271 299.782C272.33 298.099 275.678 295.709 277.962 296.59C280.246 297.47 282.624 291.668 282.327 289.074C282.029 286.479 282.999 283.854 285.236 283.995C287.474 284.137 299.129 283.901 301.069 283.319C303.009 282.737 307.186 282.832 307.718 284.734C308.25 286.637 309.079 289.168 309.219 290.646C309.36 292.124 310.581 296.653 310.581 299.278C310.581 301.904 311.112 304.687 311.801 305.725C312.489 306.763 314.758 308.807 317.339 308.996C319.92 309.184 326.851 303.084 327.445 299.231C328.04 295.379 326.569 292.895 325.85 291.527C325.13 290.159 322.642 281.432 323.472 276.448C324.629 275.819 331.779 276.636 332.545 276.495C333.312 276.353 335.064 277.564 336.722 277.517C338.381 277.47 340.321 274.498 341.963 274.199C343.606 273.9 348.033 274.938 349.488 274.687C350.943 274.435 353.665 275.316 353.572 276.841C353.478 278.366 355.277 279.372 357.17 279.624C359.063 279.875 361.394 280.552 362.317 282.155C363.24 283.759 365.618 282.832 365.868 281.275C366.118 279.718 364.366 276.243 364.992 275.52C365.618 274.797 368.434 274.891 368.966 273.224C369.498 271.558 371.97 269.073 374.692 268.492C377.414 267.91 378.133 267.611 377.648 264.592C377.163 261.573 381.09 258.098 381.919 256.353C382.749 254.608 383.625 252.894 384.688 252.784C385.752 252.674 388.568 252.155 389.882 250.205C391.197 248.255 392.354 244.796 397.016 245.566C401.678 246.337 406.685 238.098 407.498 236.73C408.312 235.362 409 230 409 230" stroke="#1A1F28" stroke-width="3" stroke-miterlimit="10"/>
<path d="M363 77C366.619 80.4937 367.5 81.2771 370.521 81.3711C372.897 81.4494 377.429 81.3397 379.663 82.6087C380.277 82.9534 380.717 83.4078 380.875 84.0031C381.661 86.7291 383.518 89.0635 383.518 92.5572C383.518 96.0509 384.494 104.809 384.682 107.926C384.871 111.044 389.953 113.378 388.301 119.692C386.649 126.006 385.658 125.144 385.563 128.936C385.469 132.727 386.633 137.975 385.957 142.362C385.28 146.749 383.801 150.822 384.289 154.034C384.777 157.246 387.42 165.126 389.654 168.714C391.889 172.302 398.828 179.508 398.545 185.148C398.261 190.788 397.569 205.672 398.639 209.369C399.709 213.067 401.172 219.193 400.983 222.686C400.795 226.18 400.228 229 400.228 229" stroke="#1A1F28" stroke-width="3" stroke-miterlimit="10"/>
<path d="M489 117.251C487.045 119.341 483.198 119.246 480.896 118.565C478.594 117.884 475.85 118.106 474.478 117.409C473.106 116.713 468.707 111.044 467.383 110.648C466.058 110.253 454.343 110.11 453.24 110.268C452.136 110.427 450.669 110.332 449.944 111.947C449.219 113.562 448.572 114.607 446.223 114.369C443.874 114.132 440.058 111.028 436.4 110.791C432.742 110.553 430.629 111.804 430.046 111.836C429.462 111.868 426.94 111.614 425.773 110.3C424.606 108.986 420.648 108.701 419.828 108.701C419.009 108.701 416.565 109.318 415.193 108.083C413.821 106.848 409.816 106.215 408.933 104.711C408.05 103.206 405.023 98.2505 402.279 96.2238C399.536 94.197 395.562 90.5869 393.308 89.7319C391.053 88.8768 385.377 87.1509 384.336 86.2959C383.295 85.4409 380 84 380 84" stroke="#1A1F28" stroke-width="3" stroke-miterlimit="10"/>
</svg>
