<svg width="706" height="665" viewBox="0 0 706 665" fill="none" xmlns="http://www.w3.org/2000/svg">
<path d="M703.234 280.784C703.021 282.46 702.083 300.071 697.703 303.661C693.323 307.251 694.262 315.181 694.675 318.884C695.1 322.586 695.613 355.307 695.726 359.573C695.838 363.838 684.676 365.702 680.397 359.66C676.13 353.619 670.073 340.81 664.567 338.421C659.036 336.02 648.713 341.436 643.707 341.749C638.702 342.049 631.507 340.698 629.529 340.485C627.552 340.285 621.183 341.536 619.932 344.563C618.68 347.577 611.285 351.855 611.372 358.522C611.485 365.189 612.098 367.79 614.401 371.656C616.703 375.508 625.563 386.24 627.114 388.316C628.679 390.405 630.556 394.57 627.027 399.986C623.485 405.402 614.814 426.191 615.289 435.184C615.765 444.165 616.228 472.996 617.629 481.677C619.043 490.358 620.595 502.791 622.009 505.755C623.41 508.72 632.408 519.264 631.707 525.143C630.993 530.997 620.908 556.776 620.057 560.841C619.193 564.906 615.514 587.884 614.1 592.887C612.699 597.89 609.483 605.47 598.546 610.011C587.597 614.526 581.428 613.826 578.775 615.865C576.109 617.891 569.578 619.254 568.489 620.292C567.025 621.768 566.362 622.456 566.362 622.456H562.77C562.633 622.656 562.47 622.894 562.27 623.169C560.943 625.058 519.999 654.902 510.551 660.193C501.116 665.484 484.674 661.894 475.213 658.692C465.753 655.478 443.83 662.47 438.912 663.033C438.724 660.381 439.488 654.164 438.912 649.424C438.374 645.008 419.604 628.485 413.835 622.381H400.508C399.595 623.019 396.566 625.133 393.113 627.172C388.958 629.636 376.295 649.286 374.017 652.113C371.752 654.94 359.839 646.259 350.204 637.566C340.569 628.873 334.324 622.344 334.324 622.344C334.324 622.344 314.703 599.366 309.848 598.628C305.005 597.903 300.876 598.578 298.336 599.979C295.783 601.393 273.522 594.038 264.962 589.773C256.416 585.507 242.613 582.63 231.151 584.094C219.676 585.557 211.067 583.468 204.985 578.828C198.879 574.2 192.997 572.937 187.304 572.674C181.623 572.411 175.904 568.871 174.803 567.783C173.702 566.682 159.211 560.804 156.396 559.803C153.58 558.815 147.423 556.201 141.267 550.885C135.085 545.569 111.122 530.259 106.63 528.77C103.414 527.282 93.2651 526.356 87.0084 526.732C80.5014 526.356 77.3105 524.555 76.9851 521.04C76.6848 517.513 80.5014 502.753 81.052 498.138C81.6026 493.522 83.392 491.734 74.4199 480.389C65.7355 468.594 58.3901 453.509 57.364 449.906C56.3629 446.317 42.5231 442.327 37.4301 439.362C32.3496 436.398 15.8569 427.092 12.6409 424.828C9.42495 422.564 2.64265 417.323 2.24222 416.072C1.84179 414.821 1.54147 411.769 4.74492 408.717C7.96087 405.678 18.8226 395.208 18.9852 388.554C19.1354 381.925 18.2094 361.286 15.469 356.821C12.7285 352.355 9.43746 330.566 8.43638 328.527C7.41028 326.501 5.29551 325.325 6.09637 323.987C6.87221 322.661 9.21222 311.179 10.6137 306.488C12.0278 301.798 17.6588 293.83 21.6506 292.729C25.6299 291.628 43.5241 291.016 56.2003 291.091C68.8639 291.178 76.6973 292.354 78.7996 292.116C80.9143 291.891 93.5029 281.097 96.3184 277.106C98.7335 273.817 100.06 273.904 101.311 274.367C102.575 274.842 111.485 278.282 120.232 278.908C128.991 279.533 139.552 278.207 146.735 274.617C153.93 271.028 156.283 267.338 157.997 267.112C159.712 266.875 163.941 269.139 168.233 269.614C172.538 270.089 182.624 262.66 183.963 260.246C186.303 258.207 189.744 261.021 191.22 264.085C192.71 267.125 200.593 277.669 213.82 281.434C218.512 282.685 218.437 282.685 218.825 285.174C219.226 287.676 220.077 294.468 219.376 295.018C218.675 295.569 209.528 307.051 208.902 316.582C208.276 326.126 211.718 329.566 214.608 332.13C217.499 334.719 220.94 340.185 222.667 340.648C224.369 341.123 242.989 343.938 252.599 339.622C262.222 335.332 268.704 331.567 276.763 333.068C284.821 334.556 289.576 344.088 290.302 346.752C291.003 349.404 293.193 355.733 295.996 358.322C298.811 360.898 300.225 362.312 302.653 362.862C305.068 363.413 308.672 362.387 310.862 359.097C313.052 355.808 318.92 344.638 318.758 342.374C318.608 340.11 324.001 335.269 327.354 334.944C330.721 334.644 347.526 334.569 349.553 334.569C351.58 334.569 357.374 328.94 358.926 324.325C360.49 319.709 362.692 313.23 367.698 313.693C372.691 314.168 371.84 316.582 377.771 316.582C383.703 316.582 386.293 312.217 387.394 310.491C388.495 308.777 393.801 302.673 395.378 300.797C396.929 298.921 396.078 293.617 393.413 290.328C390.76 287.038 386.531 281.034 384.816 275.168C383.102 269.314 376.132 259.145 374.58 257.819C373.016 256.481 362.467 245.086 360.102 242.346C358.3 238.757 357.599 220.144 357.374 219.369C357.136 218.593 354.634 215.154 354.559 213.665C354.484 212.189 356.035 203.346 353.695 192.727C351.355 182.107 351.28 175.378 350.254 173.114C349.253 170.85 332.047 154.902 329.081 150.837C326.116 146.772 326.566 142.782 331.346 140.768C336.114 138.729 362.768 125.608 362.768 125.608C370.588 116.852 379.348 97.7897 392.487 93.7121C405.614 89.6469 431.266 92.7865 439.4 91.2104C447.534 89.6469 462.85 83.0801 465.979 74.9624C469.094 66.8321 468.794 54.9493 470.045 52.4602C471.297 49.9711 480.669 27.7566 483.81 25.5677C486.926 23.3913 507.26 14.6231 516.633 11.8213C526.031 9.00693 539.47 -0.0614805 540.409 2.42764C541.335 4.94178 545.401 24.0042 546.966 26.8185C548.53 29.6203 547.904 40.8777 542.586 42.7539C537.268 44.6301 512.879 61.5161 512.879 66.8321C512.879 72.148 520.062 78.4021 525.08 80.2658C530.085 82.142 528.195 88.0834 530.711 90.585C533.213 93.0867 538.844 98.4026 540.409 102.78C541.96 107.158 548.542 114.038 555.099 115.589C561.656 117.152 570.691 122.831 574.796 128.985C578.925 135.139 593.566 158.329 596.582 161.444C599.61 164.583 609.308 181.757 611.911 187.386C614.513 193.014 620.77 201.357 622.121 202.07C623.473 202.796 631.907 216.142 635.148 219.156C638.376 222.183 640.767 228.012 640.253 231.152C639.74 234.266 640.979 242.396 643.394 246.574C645.784 250.739 650.477 255.855 655.783 258.657C661.114 261.471 668.922 265.336 678.833 266.587C688.731 267.838 702.383 270.24 703.522 271.79C704.673 273.354 703.409 279.095 703.221 280.759L703.234 280.784Z" fill="#2D3544" stroke="#1A1F28" stroke-width="3" stroke-miterlimit="10"/>
<path d="M545.465 106.707C545.19 117.639 543.938 122.655 530.774 130.172C517.61 137.689 503.808 143.331 506.949 160.267C510.09 177.203 506.949 188.185 493.146 198.041C479.344 207.898 467.431 222.32 463.677 244.884C459.911 267.449 463.677 290.764 451.139 288.263C444.869 291.277 440.002 310.702 431.543 309.927C423.083 309.151 416.051 298.419 405.364 298.169C394.678 297.919 396.142 298.382 396.142 298.382" stroke="#1A1F28" stroke-width="3" stroke-miterlimit="10"/>
<path d="M473.488 218.48C480.759 225.61 483.587 231.251 486.252 233.765C488.917 236.279 493.773 239.719 496.125 246.461C498.478 253.203 502.394 258.531 505.848 258.994C509.302 259.457 520.902 260.095 524.193 262.909C527.484 265.723 530.775 267.612 535.167 269.488C539.559 271.364 542.85 278.419 541.124 281.396C539.397 284.373 540.811 285.311 535.956 288.601C531.1 291.89 517.924 294.892 520.126 305.387C522.328 315.881 527.809 324.024 531.576 323.711C535.342 323.398 563.398 316.344 567.014 314.305C570.63 312.266 582.38 307.1 584.107 303.961C585.834 300.821 592.892 295.03 598.998 293.304C605.105 291.578 621.26 290.477 623.775 289.851C626.29 289.226 626.916 279.67 629.106 274.491C631.296 269.313 640.393 255.842 642.12 253.803C643.847 251.764 647.388 248.75 647.388 248.75" stroke="#1A1F28" stroke-width="3" stroke-miterlimit="10"/>
<path d="M626.492 337.595C626.567 320.109 626.58 297.694 626.492 294.405C626.404 291.115 626.492 284.01 626.492 284.01" stroke="#1A1F28" stroke-width="3" stroke-miterlimit="10"/>
<path d="M351.993 333.405C355.134 343.599 358.938 352.705 356.11 359.297C353.282 365.889 351.718 370.267 351.405 376.221C351.092 382.174 350.779 392.519 352.03 394.082C353.282 395.646 365.195 394.708 371.789 396.584C378.384 398.46 385.592 399.411 391.235 405.365C396.879 411.318 406.602 419.161 412.558 418.836C418.514 418.511 430.114 416.334 436.071 408.804C442.027 401.274 447.358 392.506 451.125 390.005C454.891 387.503 465.753 385.827 469.419 379.248C473.086 372.668 481.958 364.938 487.088 363.575C492.219 362.211 503.08 355.532 506.422 351.88C509.763 348.227 516.67 343.412 518.86 341.435C521.05 339.459 526.18 330.878 527.532 328.064C528.883 325.25 529.972 323.411 529.972 323.411" stroke="#1A1F28" stroke-width="3" stroke-miterlimit="10"/>
<path d="M82.0533 290.252C85.0941 297.857 84.3683 298.695 81.5403 304.961C78.7122 311.228 74.3325 316.031 74.1198 326.488C73.9071 336.945 71.0915 346.964 74.0197 349.478C76.9478 351.992 85.2067 357.208 93.4656 357.108C101.725 357.008 107.268 361.185 108.72 369.954C110.171 378.722 121.371 407.666 121.471 410.38C121.571 413.094 127.427 422.4 116.866 425.627C106.304 428.854 91.8889 435.972 80.2889 437.748C68.689 439.524 60.4301 439.311 57.1891 442.551C53.9481 445.79 53.5352 446.629 53.5352 446.629" stroke="#1A1F28" stroke-width="3" stroke-miterlimit="10"/>
<path d="M220.729 339.158C212.62 345.087 200.082 352.342 196.415 355.056C192.749 357.771 182.15 362.999 180.373 366.026C178.596 369.053 175.668 371.092 174.829 376.208C173.991 381.323 174.729 395.332 173.703 395.958C172.677 396.583 168.06 396.196 165.394 394.707C162.729 393.219 159.05 391.417 157.398 393.381C155.746 395.345 156.848 401.612 153.794 404.976C150.741 408.341 145.485 416.421 137.014 418.06C128.542 419.698 123.174 418.06 123.174 418.06" stroke="#1A1F28" stroke-width="3" stroke-miterlimit="10"/>
<path d="M305.418 362.836C302.503 368.277 297.597 373.28 292.054 375.382C286.51 377.483 269.792 383.525 265.087 387.402C260.382 391.28 251.185 400.248 245.954 402.762C240.724 405.276 225.157 413.419 222.229 416.233C219.301 419.048 217.211 420.836 210.942 423.438C204.672 426.04 201.219 426.603 195.5 427.228C189.781 427.853 181.623 428.404 178.569 426.528C175.516 424.651 177.556 419.323 177.869 416.659C178.181 413.994 179.595 404.826 179.283 403.413C178.97 401.999 176.78 398.472 175.604 397.771C174.427 397.071 173.727 395.97 173.727 395.97" stroke="#1A1F28" stroke-width="3" stroke-miterlimit="10"/>
<path d="M165.956 563.668C171.738 561.129 171.85 555.488 169.448 549.434C167.045 543.38 163.416 533.661 165.856 529.796C168.296 525.931 176.03 522.379 179.171 519.552C182.312 516.725 188.155 506.494 190.145 504.93C192.135 503.367 218.475 488.732 226.935 487.581C235.394 486.431 238.434 474.11 233.829 457.699C229.225 441.301 224.107 427.93 223.068 424.165C222.029 420.4 220.728 417.636 220.728 417.636" stroke="#1A1F28" stroke-width="3" stroke-miterlimit="10"/>
<path d="M618.191 376.746C613.786 383.65 607.667 394.783 603.2 401.912C598.732 409.042 594.265 419.073 588.146 425.34C582.027 431.607 578.661 436.072 573.718 437.41C568.775 438.749 572.392 447.204 572.78 449.631C573.167 452.057 576.546 463.965 584.229 465.541C591.913 467.117 607.041 467.505 606.253 474.472C605.465 481.439 605.39 483.165 600.059 485.992C594.728 488.819 585.794 489.131 584.692 495.711C583.591 502.29 596.843 503.854 600.609 504.179C604.376 504.504 615.901 505.117 617.465 504.879C619.029 504.642 620.969 502.115 620.969 502.115" stroke="#1A1F28" stroke-width="3" stroke-miterlimit="10"/>
<path d="M351.132 387.339C345.764 390.629 343.411 392.355 335.89 392.668C328.37 392.981 324.128 406.139 321.625 413.982C319.122 421.824 318.91 428.241 306.259 439.836C300.402 447.041 300.715 450.393 296.436 451.431C292.156 452.469 284.735 451.118 280.03 454.258C275.325 457.397 271.884 462.826 269.682 464.289C267.479 465.753 259.546 467.004 256.93 473.483C254.315 479.962 250.874 488.318 244.392 488.005C237.91 487.692 233.793 485.316 233.868 482.326" stroke="#1A1F28" stroke-width="3" stroke-miterlimit="10"/>
<path d="M501.642 355.894C501.217 360.072 500.354 367.676 502.156 371.742C503.957 375.807 510.702 381.611 511.165 385.213C511.641 388.815 508.5 395.945 509.363 400.498C510.227 405.051 511.716 407.94 514.857 410.142C517.998 412.343 529.285 418.76 531.862 420.486C534.44 422.212 545.114 431.143 542.999 437.334C540.885 443.526 535.391 450.656 533.201 454.258C531.012 457.86 525.168 468.129 521.389 470.944C517.61 473.758 516.821 475.797 505.922 477.836C495.023 479.875 492.207 483.402 487.114 483.239C482.021 483.077 477.629 482.138 472.686 486.767C467.743 491.395 462.413 496.485 462.413 501.026C462.413 505.566 462.2 512.646 462.413 513.897C462.625 515.147 457.395 520.789 453.528 521.627C449.662 522.465 433.769 526.43 426.349 523.303C418.928 520.176 414.849 515.047 411.721 513.059C408.592 511.07 397.193 505.116 393.013 500.626C388.834 496.135 384.129 490.807 380.787 490.494C377.446 490.181 365.108 493.521 357.9 491.332C350.693 489.143 347.865 484.853 345.362 481.2C342.859 477.548 336.577 473.058 336.064 469.605C335.551 466.153 329.895 462.813 324.777 463.439C319.659 464.064 311.713 467.717 306.795 462.188L301.878 456.647L298.762 450.343" stroke="#1A1F28" stroke-width="3" stroke-miterlimit="10"/>
<path d="M409.167 418.362C409.105 424.016 406.915 425.579 406.289 429.332C405.664 433.084 405.976 447.356 403.624 451.896C401.271 456.437 398.13 464.279 392.65 464.517C387.169 464.755 380.186 471.171 380.574 477.913C380.962 484.655 380.787 490.497 380.787 490.497" stroke="#1A1F28" stroke-width="3" stroke-miterlimit="10"/>
<path d="M249.66 485.88C253.664 490.383 259.308 494.298 263.55 497.588C267.792 500.877 281.344 506.906 285.974 508.557C290.604 510.208 300.79 517.025 302.83 519.052C304.87 521.078 319.998 524.455 324.153 527.432C328.307 530.409 335.202 533.936 339.282 538.952C343.361 543.968 349.83 551.823 351.157 554.75C352.483 557.677 352.07 589.222 351.545 592.362C351.019 595.502 349.042 612.938 348.404 616.915C347.766 620.893 346.214 627.672 346.101 629.036C345.989 630.399 345.05 632.826 345.05 632.826" stroke="#1A1F28" stroke-width="3" stroke-miterlimit="10"/>
<path d="M461.773 515.363C465.965 514.85 474.65 522.455 474.85 526.382C475.05 530.31 472.76 539.816 473.286 543.168C473.811 546.52 475.376 550.373 477.891 552.887C480.406 555.401 490.229 559.266 491.168 564.795C492.106 570.323 493.883 581.718 493.883 585.696C493.883 589.673 492.944 599.492 495.247 604.608C497.549 609.724 515.944 630 525.142 636.054C534.339 642.108 534.514 643.984 534.514 643.984" stroke="#1A1F28" stroke-width="3" stroke-miterlimit="10"/>
<path d="M393.325 500.752C393.851 506.594 391.661 509.108 387.056 512.235C382.451 515.362 374.305 521.328 372.528 522.479C370.751 523.63 362.492 527.707 361.454 530.309C360.415 532.911 354.559 545.244 353.933 548.909C353.307 552.561 351.143 554.762 351.143 554.762" stroke="#1A1F28" stroke-width="3" stroke-miterlimit="10"/>
<circle cx="335" cy="369" r="4" fill="#FFD600"/>
<circle cx="335" cy="369" r="6" stroke="#FFC700" stroke-width="0.5"/>
<circle cx="375" cy="344" r="4" fill="#FFD600"/>
<circle cx="375" cy="344" r="6" stroke="#FFC700" stroke-width="0.5"/>
</svg>
