<svg width="870" height="653" viewBox="0 0 870 653" fill="none" xmlns="http://www.w3.org/2000/svg">
<path d="M406.859 404.998C408.051 405.573 410.659 405.461 411.092 404.184C411.524 402.906 410.764 399.538 411.747 396.871C412.73 394.204 414.132 391.299 414.669 387.467C415.207 383.635 417.382 380.154 419.413 379.017C421.445 377.881 425.678 374.315 426.241 373.01C426.805 371.705 426.647 364.476 427.381 362.301C428.115 360.125 434.707 355.76 437.144 355.592C439.582 355.423 447.065 353.234 447.641 351.577C448.218 349.921 447.641 341.991 447.799 340.686C447.956 339.38 450.236 326.481 451.219 325.008C452.202 323.534 456.5 317.779 458.047 316.123C459.593 314.467 459.436 312.207 459.344 310.551C459.252 308.895 462.516 306.368 464.625 307.154C466.735 307.94 469.828 308.726 470.234 307.154C470.641 305.582 468.937 304.024 468.282 302.887C467.626 301.75 468.124 299.659 469.422 299.757C470.719 299.856 475.529 298.185 476.341 296.445C477.154 294.705 475.935 292.431 476.184 291.996C476.433 291.561 479.762 291.041 480.98 288.866C482.199 286.69 485.371 280.935 484.964 278.156C484.558 275.377 484.152 273.019 482.605 271.447C481.059 269.875 479.591 266.661 479.84 264.654C480.089 262.647 481.465 257.861 481.465 257.861C481.465 257.861 481.138 253.762 478.543 254.113C475.948 254.464 474.231 256.204 473.825 257.678C473.419 259.152 470.575 262.212 466.67 262.731C462.765 263.25 457.798 263.685 455.531 260.808C453.263 257.931 449.515 254.267 448.297 254.267C447.078 254.267 443.907 254.352 443.579 252.78C443.251 251.208 443.015 250.773 442.282 250.337C441.548 249.902 439.923 249.818 438.861 250.506C437.8 251.194 433.252 257.047 431.942 259.91C430.631 262.773 425.022 273.496 424.131 274.633C423.24 275.77 422.506 277.076 420.803 276.809C419.099 276.542 417.88 274.802 416.491 275.153C415.102 275.504 411.21 278.465 411.039 280.641C410.869 282.816 410.882 285.343 411.288 287.181C411.695 289.02 410.633 294.929 409.991 296.417C409.349 297.905 409.1 301.119 409.257 302.424C409.414 303.73 414.224 308.347 414.538 310.705C414.853 313.063 415.351 322.636 416.334 325.345C417.317 328.054 417.225 338.679 419.426 341.107C421.628 343.535 422.519 345.64 422.441 346.426C422.362 347.212 419.427 348.686 417.317 349.037C415.207 349.388 416.098 353.388 416.661 354.441C417.225 355.493 418.614 357.571 418.457 359.494C418.299 361.417 414.709 367.073 414.709 367.073C414.709 367.073 413.32 368.645 409.663 366.371C406.007 364.097 400.634 364.013 400.306 365.768C399.979 367.522 398.917 371.775 396.401 372.912C393.885 374.049 391.198 373.347 389.888 372.561C388.577 371.775 385.655 373.6 385.092 376.126C384.528 378.652 383.467 382.667 382.169 383.354C380.872 384.042 380.374 385.712 378.015 385.614C375.656 385.516 370.375 384.576 369.392 388.056C368.409 391.537 368.514 401.966 368.094 404.436C367.675 406.906 364.923 413.321 365.002 414.893C365.08 416.465 366.522 417.265 367.754 417.265C368.986 417.265 369.929 417.56 369.235 416.114C370.257 415.889 372.039 415.637 372.524 416.858C373.009 418.079 374.765 418.907 375.813 418.991C376.862 419.075 377.805 418.556 378.133 417.251C378.46 415.945 379.47 413.587 380.61 412.9C381.75 412.212 383.335 410.149 384.554 410.149C385.773 410.149 397.161 410.851 398.917 409.405C400.673 407.959 401.119 405.391 401.564 402.962C402.01 400.534 403.072 394.948 404.946 394.288C406.82 393.629 408.484 395.594 408.196 397.124C407.907 398.653 407.632 402.303 407.422 403.089C407.213 403.875 406.872 404.998 406.872 404.998H406.859Z" fill="#0088BD"/>
<path d="M244.221 644.742C246.948 642.906 253.595 638.408 257.069 637.973C260.543 637.525 266.955 637.217 269.223 639.207C271.491 641.197 271.596 641.771 274.205 642.023C276.814 642.276 280.078 641.715 281.691 642.654C283.304 643.593 293.595 650.502 296.965 651.567C300.321 652.633 304.661 653.586 307.493 652.562C310.325 651.539 325.362 642.794 327.539 642.584C329.715 642.374 337.883 636.838 338.971 636.852C340.06 636.866 349.421 633.657 350.286 632.97C351.151 632.283 358.126 629.41 358.454 628.724C358.782 628.023 362.269 627.35 363.239 627.238C364.209 627.126 367.395 622.389 368.365 622.165C369.336 621.941 370.109 621.24 370.109 621.24C370.109 621.24 369.794 618.689 371.001 617.302C372.207 615.914 375.144 613.728 376.887 612.691C378.631 611.654 378.539 609.566 379.3 607.716C380.073 605.866 383.154 597.401 383.167 595.425C383.167 593.449 387.441 587.549 387.454 586.4C387.468 585.251 388.949 571.082 387.546 569.905C386.143 568.741 383.22 567.326 381.922 565C380.637 562.673 375.97 560.893 373.911 558.917C371.853 556.927 366.228 553.185 363.96 550.032C361.692 546.879 355.976 538.484 355.661 537.671C355.347 536.858 354.285 530.005 354.298 528.716C354.298 527.44 354.009 522.788 355.412 523.839C356.815 524.89 356.867 525.647 358.821 525.955C360.774 526.263 364.039 524.652 364.157 523.32C364.275 521.989 369.65 511.688 370.529 510.875C371.407 510.062 375.812 507.652 378.919 506.629C382.027 505.606 383.928 504.681 386.091 505.802C388.254 506.923 394.429 509.628 395.242 510.441C396.055 511.254 398.913 514.463 399.713 516.621C400.513 518.78 403.056 521.807 403.318 524.245C403.581 526.684 404.171 528.604 405.141 528.842C406.111 529.08 409.113 528.632 409.821 527.244C410.529 525.857 413.754 523.895 415.275 523.741C416.796 523.572 419.628 523.18 421.411 523.488C423.207 523.783 428.307 524.287 430.431 523.895C432.555 523.502 435.059 521.022 436.973 519.228C438.888 517.434 441.982 516.243 444.21 516.131C446.439 516.033 449.638 516.285 451.369 517.042C453.099 517.798 454.345 518.163 456.259 517.476C458.16 516.789 457.675 515.921 459.143 515.864C460.612 515.808 465.437 516.425 467.403 515.514C469.37 514.603 475.689 509.936 476.948 509.18C478.206 508.437 480.973 508.395 481.405 508.339C481.838 508.283 485.771 505.41 486.859 504.653C487.948 503.91 487.948 503.321 487.948 503.321L488 493.329C488 493.329 484.473 493.651 483.765 493.007C483.057 492.362 477.761 488.382 474.352 485.691C470.943 483 469.684 475.853 469.081 474.802C468.478 473.751 467.469 470.555 467.364 469.743C467.259 468.93 466.197 465.384 465.764 464.445C465.332 463.52 463.562 459.904 463.024 459.204C462.487 458.503 461.569 457.564 461.517 456.751C461.464 455.938 461.779 448.917 460.913 447.277C460.048 445.652 459.851 443.732 459.471 442.512C459.091 441.293 459.222 438.742 458.685 437.916C458.147 437.103 443.096 437.005 442.178 436.36C441.261 435.715 437.367 431.16 437.052 430.586C436.737 430.011 434.718 429.002 433.263 428.302C431.795 427.601 429.959 426.83 429.422 425.905C428.884 424.98 427.036 424.321 426.55 424.321C426.065 424.321 421.109 424.98 419.536 425.26C417.963 425.541 415.891 426.69 415.341 427.264C414.79 427.839 414.082 429.633 413.322 429.871C412.561 430.109 410.66 428.75 410.503 427.769C410.346 426.788 411.106 426.031 409.808 424.798C408.51 423.565 407.278 421.07 407.068 419.5C406.858 417.931 407.081 416.894 406.544 415.436C406.006 413.979 405.967 412.647 406.019 411.372C406.085 410.097 406.36 407.896 406.583 407.027C406.806 406.159 407.029 404.533 407.579 403.608C408.13 402.683 408.196 401.113 408.078 400.595C407.96 400.076 409.179 396.937 408.589 395.844C407.999 394.751 407.461 393.924 406.098 394.316C404.734 394.709 403.423 396.741 403.423 397.091C403.423 397.441 402.427 400.749 402.479 401.029C402.532 401.324 402.191 403.23 401.916 404.281C401.64 405.318 401.247 406.999 401.024 407.35C400.801 407.7 401.391 409.214 399.005 409.718C396.619 410.223 393.302 410.615 391.335 410.657C389.382 410.699 385.304 410.391 384.596 410.447C383.888 410.503 383.01 411.484 382.63 412.059C382.25 412.633 380.126 413.909 379.798 414.539C379.47 415.17 378.972 417.258 378.592 417.847C378.212 418.421 378.041 420.159 377.11 419.865C376.192 419.57 374.291 419.388 373.636 418.449C372.993 417.51 372.889 416.473 371.853 416.179C370.817 415.885 369.624 416.109 369.624 416.109C369.624 416.109 370.699 417.398 369.401 417.44C368.103 417.496 367.33 417.665 366.845 417.076C366.359 416.487 365.547 416.375 365.442 416.081C365.337 415.787 365.18 414.399 365.284 413.881C365.389 413.362 366.766 410.573 366.884 410.055C367.002 409.536 367.972 408.667 368.09 407.097C368.208 405.528 368.877 403.215 368.877 401.94C368.877 400.665 369.034 391.724 369.322 389.635C369.611 387.547 371.355 385.809 372.6 385.767C373.846 385.711 378.461 386.034 379.929 385.809C381.397 385.585 381.345 384.716 381.083 383.665C380.821 382.614 379.418 381.157 378.815 380.568C378.211 379.979 375.996 379.391 374.803 378.508C373.61 377.625 373.937 376.7 371.276 376.574C368.615 376.448 362.531 376.462 361.286 376.518C360.04 376.574 357.575 380.218 356.264 380.61C354.953 381.002 351.204 381.619 348.057 381.311C344.91 381.002 343.18 380.232 340.676 380.218C338.172 380.204 333.176 380.75 331.21 383.413C329.243 386.076 327.159 388.262 326.031 388.206C324.891 388.136 322.124 387.491 321.587 386.496C321.049 385.501 320.643 380.274 320.433 379.517C320.223 378.76 319.699 374.346 318.938 373.35C318.178 372.355 317.535 371.136 316.67 371.01C315.805 370.884 313.891 371.977 313.615 372.678C313.34 373.378 311.859 376.097 311.36 377.373C310.862 378.648 308.161 386.006 308.004 386.636C307.834 387.267 307.309 394.709 307.139 395.451C306.968 396.194 304.517 397.82 304.569 399.446C304.608 401.071 304.11 403.566 304.766 404.211C305.421 404.855 309.407 408.709 310.652 409.872C311.898 411.036 312.711 412.143 312.593 413.082C312.475 414.007 312.881 429.395 312.501 429.745C312.121 430.095 310.377 431.945 310.364 432.632C310.364 433.333 310.823 437.803 310.01 439.135C309.197 440.466 305.893 446.142 305.946 447.067C305.998 447.992 305.159 462.974 305.159 463.38C305.159 463.786 302.799 467.08 302.157 467.248C301.514 467.416 295.968 471.13 293.845 472.602C291.721 474.073 287.433 482.398 288.076 485.985C288.705 489.559 286.568 492.853 285.191 493.021C283.802 493.189 279.174 491.858 278.348 492.46C277.522 493.063 272.867 497.477 270.822 498.164C268.777 498.851 264.123 500.561 263.952 502.481C263.782 504.401 265.88 507.456 266.771 508.241C267.663 509.025 272.54 512.024 273.169 515.85C273.798 519.69 273.785 521.596 272.959 523.769C272.133 525.941 272.815 535.611 273.457 536.662C274.1 537.713 274.506 537.881 277.273 538.162C280.039 538.442 284.234 538.526 285.218 537.909C286.201 537.279 287.683 537.951 287.735 539.213C287.787 540.474 287.617 545.463 288.351 546.472C289.085 547.481 291.891 550.831 291.93 551.7C291.97 552.569 292.219 556.521 293.137 557.614C294.054 558.693 296.65 559.632 297.03 560.052C297.411 560.459 297.45 561.678 296.965 562.435C296.467 563.192 296.401 567.018 296.454 567.634C296.506 568.251 296.139 570.129 295.405 570.129C294.67 570.129 292.468 571.012 291.865 571.558C291.262 572.105 290.147 573.492 289.361 573.408C288.574 573.31 288.81 570.003 288.456 569.596C288.102 569.19 286.371 569.414 285.86 568.559C285.349 567.704 284.969 567.186 283.998 566.976C283.028 566.765 281.599 568.041 281.193 568.699C280.786 569.358 280.131 570.031 279.305 570.255C278.479 570.479 278.322 572.399 278.689 573.352C279.056 574.305 282.373 574.445 283.592 574.628C284.811 574.81 285.034 575.02 285.06 575.328C285.087 575.651 283.395 576.043 282.753 576.043C282.11 576.043 279.003 577.304 278.584 577.529C278.164 577.753 277.902 589.161 277.456 590.086C277.01 591.011 276.997 593.94 276.184 594.486C275.372 595.033 274.441 596.154 272.723 596C271.019 595.846 269.105 596.756 267.531 596.574C265.958 596.392 259.39 596.574 258.511 596.35C257.633 596.126 256.833 596.364 254.526 596.294C252.218 596.224 251.235 596.799 250.501 597.892C249.767 598.985 248.967 600.667 248.036 601.045C247.105 601.423 246.83 602.404 246.699 603.301C246.554 604.198 246.423 605.123 245.191 605.235C243.972 605.347 242.608 605.894 241.795 606.637C240.982 607.38 241.009 607.674 239.894 607.351C238.78 607.029 239.029 606.441 238.137 606.328C237.246 606.216 234.335 606.132 233.903 606.412C233.47 606.707 225.682 609.58 220.504 609.636C215.312 609.692 213.66 610.239 212.585 611.878C211.51 613.518 211.89 614.597 211.234 615.592C210.579 616.587 210.277 618.591 210.172 619.026C210.068 619.46 209.333 619.909 209.346 621.899C209.346 623.875 209.163 625.094 208.652 625.458C208.14 625.823 207.996 625.753 207.97 628.443C207.93 631.12 207.839 633.152 207.393 633.559C206.947 633.965 206.855 640.132 207.249 640.636C207.642 641.141 213.647 641.07 214.394 641.239C215.141 641.407 217.239 642.654 218.052 643.257C218.865 643.859 220.7 643.705 221.343 643.929C221.985 644.154 223.231 644.896 223.231 644.896L244.129 644.714L244.221 644.742Z" fill="#2D3544"/>
<path d="M496.765 264.531C498.351 265.793 500.226 270.826 502.546 271.345C504.866 271.863 511.407 270.63 512.548 273.069C513.688 275.495 513.832 281.986 513.164 282.869C512.495 283.753 512.679 287.356 513.256 287.454C513.832 287.552 517.726 285.912 518.565 285.884C519.403 285.856 523.821 285.561 524.712 284.65C525.604 283.753 526.312 282.589 526.797 282.729C527.282 282.869 531.411 284.229 532.944 283.668C534.478 283.108 535.16 281.523 538.332 282.561C541.504 283.598 545.135 283.823 544.676 285.799C544.218 287.776 546.118 288.758 549.107 291.478C552.096 294.198 552.909 297.1 554.246 298.179C555.583 299.259 561.599 298.207 564.116 298.6C566.633 298.992 565.702 299.637 570.251 299.329C574.8 299.021 578.549 301.614 578.706 303.928C578.863 306.241 579.152 306.185 579.61 307.236C580.056 308.274 579.938 311.709 581.288 311.891C582.625 312.059 582.18 307.937 582.416 306.718C582.652 305.498 585.614 300.969 586.545 300.184C587.475 299.399 588.406 297.829 588.406 296.09C588.406 294.352 592.509 290.65 593.558 290.342C594.619 290.034 596.402 289.809 597.582 290.594C598.762 291.38 600.505 290.805 601.2 289.543C601.895 288.281 604.896 291.057 605.88 290.833C606.85 290.608 619.696 291.38 620.718 290.763C621.728 290.146 623.314 290.146 624.166 290.538C625.018 290.931 626.722 291.309 627.456 291.057C628.19 290.805 628.754 291.968 629.409 292.403C630.065 292.838 634.207 294.871 634.98 295.095C635.754 295.305 639.699 296.174 640.551 295.782C641.403 295.389 642.74 291.912 644.327 291.772C645.913 291.632 648.678 293.118 649.531 293.454C650.383 293.791 652.493 295.095 652.821 296.273C653.148 297.45 653.07 299.231 654.079 299.441C655.102 299.651 657.133 299.483 657.658 300.745C658.182 302.007 659.532 302.568 661.8 302.385C664.068 302.203 664.841 299.904 666.952 299.329C669.062 298.754 673.453 297.759 674.672 298.796C675.892 299.834 686.929 312.774 687.571 313.896C688.213 315.018 691.713 314.99 692.526 314.218C693.339 313.447 695.777 317.051 695.829 318.27C695.869 319.49 706.906 330.945 707.588 332.164C708.282 333.384 716.108 346.717 717.969 349.577C719.844 352.438 725.913 364.383 729.584 367.201C733.241 370.019 736.138 372.108 743.688 371.996C751.252 371.898 760.349 371.575 762.459 370.664C764.57 369.752 765.868 366.92 764.072 364.228C762.276 361.537 761.948 356.111 761.253 354.372C760.559 352.634 757.347 347.082 759.117 342.511C760.886 337.941 767.545 330.103 767.794 328.673C768.03 327.243 772.881 319.812 776.892 320.738C780.903 321.663 790.996 328.253 793.382 330.79C797.603 327.776 798.036 324.173 800.736 322.434C803.436 320.696 802.781 317.219 804.078 313.854C805.376 310.489 817.502 303.521 819.022 302.82C820.543 302.119 819.651 285.084 820.831 281.607C822.024 278.13 827.411 263.045 830.453 261.418C833.481 259.792 838.252 255.376 840.415 255.95C842.578 256.525 848.333 256.974 849.198 256.75C850.063 256.525 849.08 249.557 849.198 249.221C849.316 248.884 853.405 239.827 860.025 241.089C866.632 242.351 868.034 233.77 868.034 233.77C866.842 230.868 865.963 224.04 867.903 222.302C869.856 220.563 870.708 216.161 869.306 214.184C867.89 212.221 860.733 210.259 856.302 211.997C851.859 213.75 848.293 217.339 846.877 217.227C845.475 217.114 838.75 216.427 837.557 217.128C836.365 217.83 835.499 220.605 833.874 220.844C832.249 221.082 826.861 220.213 825.825 219.26C824.79 218.306 811.052 217.493 810.213 217.114C809.374 216.736 803.41 214.282 801.037 206.936C800.002 204.076 794.824 197.823 789.069 197.36C782.895 197.781 779.422 198.888 777.364 197.36C775.306 195.832 773.484 192.607 773.379 192.411C772.291 192.271 762.302 192.229 762.302 192.229C762.302 192.229 747.529 206.053 742.194 206.697C736.859 207.342 730.947 206.599 730.147 210.399C729.335 214.198 728.758 219.147 726.149 222.316C723.554 225.485 722.99 227.658 725.127 229.971C727.276 232.284 729.138 235.355 727.683 239.014C726.228 242.673 721.758 241.019 721.351 240.584C720.945 240.15 720.853 235.635 720.447 235.537C720.041 235.453 710.524 233.56 708.898 233.56C707.273 233.56 696.301 232.887 696.131 232.621C695.974 232.354 694.007 228.793 693.601 228.541C693.195 228.275 690.416 222.288 687.414 222.036C684.412 221.783 677.661 222.4 674.817 221.881C671.972 221.363 666.44 218.937 664.16 216.512C661.879 214.086 657.317 209.656 655.324 208.829C653.332 208.001 650.815 208.099 650.002 206.361C649.19 204.622 648.98 204.146 644.838 202.281C640.695 200.416 637.117 200.43 636.54 200.43C635.963 200.43 635.439 201.131 634.141 200.781C632.844 200.43 631.782 199.477 631.978 198.44C632.175 197.402 631.598 195.131 631.952 194.696C632.306 194.262 635.636 193.771 637.091 193.953C638.559 194.121 639.004 193.869 639.201 193.168C639.398 192.467 639.018 187.139 639.608 185.948C640.197 184.756 647.722 178.545 648.023 177.676C648.325 176.806 648.403 175.769 650.645 176.105C652.886 176.442 658.956 173.161 659.06 172.124C659.165 171.086 657.776 167.09 657.015 165.085C656.255 163.081 656.032 160.108 656.163 158.734C656.294 157.374 656.596 148.051 655.534 146.621C654.472 145.191 654.145 144.195 654.512 143.41C654.879 142.625 656.098 140.284 657.592 139.106C659.1 137.928 659.585 135.713 659.611 134.409C659.65 133.105 658.667 130.848 657.776 131.199C656.884 131.549 656.15 131.942 656.15 131.942C656.15 131.942 653.345 135.124 652.821 135.461C652.296 135.811 651.195 136.162 650.907 135.461C650.619 134.76 650.697 131.353 650.369 131.171C650.042 130.988 649.753 124.301 650.199 122.857C650.645 121.427 650.029 118.202 649.504 117.907C648.98 117.599 646.293 116.267 643.855 116.043C641.416 115.832 638.611 115.188 638.611 114.276C638.611 113.365 639.87 111.15 640.237 109.706C640.604 108.276 639.542 102.752 639.044 102.191C638.546 101.63 634.574 99.3728 633.551 99.0223C632.529 98.6718 630.497 97.6763 629.081 97.5922C627.653 97.5081 626.04 98.9381 625.306 99.3868C624.572 99.8214 619.63 104.827 618.975 106.271C618.333 107.701 617.022 108.71 615.685 108.668C614.348 108.626 599.955 108.864 598.29 109.005C596.625 109.145 595.891 110.533 596.061 111.444C596.232 112.355 596.022 114.094 595.498 115.089C594.973 116.085 594.318 116.435 594.239 117.445C594.161 118.44 593.518 120.221 593.518 121.356C593.518 122.492 592.994 127.609 592.679 128.268C592.352 128.927 590.045 130.666 589.638 131.409C589.232 132.152 588.996 136.358 588.708 136.667C588.419 136.975 586.06 136.667 585.653 136.274C585.247 135.881 582.363 136.148 581.957 137.494C581.55 138.84 581.55 138.924 581.314 138.924C581.079 138.924 578.916 138.531 578.509 137.718C578.103 136.891 574.97 132.643 574.957 129.46C574.944 126.278 574.786 123.81 574.341 123.459C573.895 123.109 573.082 122.464 573.646 121.805C574.21 121.146 577.867 115.889 578.837 115.454C579.807 115.019 581.878 113.617 581.917 112.804C581.957 111.977 581.996 106.453 582.35 106.116C582.717 105.766 583.726 101.588 583.556 100.985C583.386 100.382 583.11 99.2045 582.665 99.2466C582.219 99.2886 576.976 99.7373 575.678 99.2185C574.38 98.6998 570.959 96.8772 569.989 96.1902C569.019 95.5032 568.324 94.1432 567.144 94.0591C565.964 93.975 563.566 90.8064 563.199 89.6708C562.832 88.5351 561.324 87.9323 559.659 88.0725C557.995 88.2127 556.985 89.2081 556.736 89.9932C556.487 90.7784 554.193 98.167 553.538 98.4755C552.882 98.7839 547.94 104.532 546.97 105.486C546 106.439 546.603 107.098 544.742 109.537C542.881 111.977 539.708 115.931 539.184 117.809C538.66 119.688 537.847 121.847 538.057 123.586C538.266 125.324 538.633 127.848 538.188 128.24C537.742 128.633 534.531 128.339 533.639 128.857C532.748 129.376 528.606 130.175 526.246 129.825C523.887 129.474 519.141 132.404 518.25 133.274C517.359 134.143 510.949 140.242 510.293 140.508C509.638 140.774 507.213 142.863 506.112 142.429C505.01 141.994 502.048 140.045 500.868 138.657C499.688 137.269 494.275 128.493 493.41 127.329C492.557 126.151 487.471 122.899 487.222 121.777C486.973 120.641 486.357 115.959 484.692 115.776C483.028 115.608 480.747 116.912 477.26 116.912C473.76 116.912 469.382 116.842 468.399 115.79C467.416 114.753 465.502 109.313 465.213 108.542C464.925 107.757 463.339 104.546 459.642 104.602C455.946 104.658 452.891 105.738 451.633 104.967C450.375 104.182 448.579 102.233 448.054 102.149C447.53 102.065 445.249 104.154 444.725 105.023C444.201 105.892 442.326 107.378 440.95 107.378C439.573 107.378 435.916 106.733 434.645 105.612C433.386 104.49 433.91 104.266 431.8 104.448C429.69 104.63 429.532 107.014 428.392 107.925C427.251 108.836 424.119 107.28 422.624 107.925C421.117 108.584 415.886 107.533 412.098 107.252C408.31 106.972 405.164 104.07 402.713 103.383C400.274 102.696 394.467 97.3679 393.17 95.6294C391.872 93.8909 391.479 91.3392 392.462 90.5821C393.432 89.825 396.853 89.6427 397.994 89.5306C399.134 89.4184 408.769 87.5958 411.377 85.8573C413.973 84.1188 429.519 74.6411 430.489 74.2345C431.459 73.8279 434.5 72.1455 435.248 71.3323C436.008 70.5192 438.013 69.005 440.766 69.9864C443.532 70.9678 446.193 71.6548 448.579 74.4308C450.965 77.2068 454.438 75.931 455.303 76.3376C456.169 76.7441 458.502 77.7816 461.91 77.1367C465.318 76.4918 470.404 70.6874 471.06 69.6079C471.702 68.5423 474.088 62.4435 474.835 61.0555C475.595 59.6675 477.43 58.8544 477.653 57.8028C477.863 56.7653 479.816 55.826 479.921 55.1951C480.026 54.5642 479.973 51.4797 479.541 51.1993C479.108 50.9049 469.736 51.7321 467.625 50.4142C465.515 49.0823 465.24 45.4931 465.725 44.5678C466.21 43.6424 469.775 37.0249 471.243 35.3425C472.698 33.66 475.412 28.5567 476.434 27.7435C477.457 26.9303 479.357 21.5326 479.672 19.738C480 17.9434 478.479 15.8544 475.87 16.8498C473.275 17.8453 468.071 16.9199 467.206 16.1067C466.341 15.2936 461.189 13.1064 459.996 13.6252C458.803 14.1439 455.067 16.2469 453.717 16.5975C452.367 16.948 449.706 18.5182 449.221 17.4106C448.736 16.317 447.53 12.3774 446.717 11.0454C445.905 9.71353 443.519 5.54953 441.828 5.03078C440.15 4.51203 437.279 5.50747 436.899 4.75038C436.519 3.99328 436.729 1.03502 435.969 0.34803C435.208 -0.35298 427.461 0.193808 427.186 0.36205C426.911 0.530293 427.409 2.73147 426.216 4.41389C425.023 6.09632 422.873 12.0689 418.482 13.8775C414.091 15.6861 414.903 15.2796 413.396 17.9995C411.888 20.7194 408.965 26.2994 408.1 27.3369C407.235 28.3744 404.364 31.6271 403.879 33.3095C403.394 34.992 403.342 36.9548 402.857 37.6558C402.372 38.3568 400.523 38.1746 399.829 39.4504C399.121 40.7262 398.046 44.6659 397.509 45.3669C396.971 46.0679 395.188 50.0076 394.913 50.7647C394.638 51.5218 394.048 53.0219 392.803 53.6108C391.557 54.1856 390.967 56.7373 388.909 57.0878C386.851 57.4383 379.851 54.1996 377.361 50.8488C374.857 47.498 371.934 48.9981 371.292 49.6431C370.636 50.288 369.561 53.3584 368.369 54.3959C367.176 55.4474 365.118 57.4103 364.37 57.9991C363.61 58.574 362.483 60.4947 360.307 59.7376C358.144 58.9946 357.869 55.854 358.078 52.6154C358.288 49.3627 359.206 45.1987 358.773 44.3855C358.341 43.5723 349.401 41.273 343.161 41.3431C336.935 41.4132 330.158 43.5022 326.474 42.7031C322.791 41.9039 319.317 41.2029 314.663 41.3291C310.01 41.4553 306.326 43.9509 304.321 44.007C302.315 44.063 297.596 43.4321 296.954 42.1703C296.299 40.8945 293.31 36.7305 291.422 36.436C289.522 36.1556 272.52 40.4038 263.921 49.0542C255.322 57.7047 245.464 66.3552 243.092 67.4628C240.706 68.5704 240.601 70.393 241.584 71.9632C242.567 73.5195 253.552 86.2919 257.943 89.0679C262.335 91.8439 271.288 97.3959 273.739 104.252C276.19 111.122 272.468 125.633 275.81 128.843C279.153 132.054 282.404 134.563 284.593 135.082C286.782 135.601 290.046 136.372 293.375 137.844C296.705 139.316 301.096 141.826 302.564 142.962C304.033 144.083 310.534 146.859 311.111 147.21C311.688 147.56 313.877 146.775 314.768 147.027C315.66 147.28 317.377 150.07 317.377 151.724C317.377 153.379 320.719 160.15 317.154 165.198C313.589 170.245 312.619 172.937 312.134 173.722C311.649 174.507 306.772 174.689 304.57 173.554C302.368 172.432 286.69 173.666 284.658 175.152C282.627 176.638 280.686 183.676 279.231 186.719C277.776 189.761 276.321 194.542 274.041 197.248C271.773 199.94 268.692 205.954 268.692 208.464C268.692 210.988 265.533 217.157 265.048 218.559C264.563 219.947 264.235 222.652 266.031 222.989C267.814 223.339 275.378 220.017 277.16 218.965C278.943 217.914 281.945 216.091 285.314 217.479C288.669 218.867 295.289 218.741 296.915 219.666C298.54 220.591 304.937 223.83 307.113 223.942C309.276 224.054 313.942 224.98 314.912 225.316C315.883 225.667 319.789 228.092 320.772 228.092C321.755 228.092 323.918 226.115 326.513 227.503C329.122 228.891 332.373 229.004 335.951 232.354C339.53 235.705 340.29 235.481 342.244 238.257C344.197 241.033 344.852 241.72 346.687 241.608C348.536 241.496 348.745 241.369 351.013 239.631C353.281 237.892 354.369 237.079 358.157 237.065C361.945 237.065 364.882 237.752 365.091 238.902C365.314 240.066 365.852 242.491 366.835 242.603C367.805 242.715 373.441 242.94 374.634 242.603C375.827 242.253 377.99 240.739 379.078 240.851C380.166 240.963 383.089 241.313 384.387 241.538C385.685 241.762 388.28 239.911 390.889 240.023C393.484 240.136 395.333 240.725 396.748 242.631C398.164 244.538 406.632 255.754 408.415 255.88C410.197 255.993 418.928 256.792 420.12 257.479C421.313 258.166 424.027 261.124 424.892 262.049C425.757 262.975 427.068 263.9 428.248 262.161C429.441 260.423 433.871 251.085 435.497 250.272C437.122 249.459 440.858 249.852 441.998 248.295C443.139 246.725 443.231 242.098 444.961 240.009C446.691 237.92 451.843 238.313 453.573 239.589C455.303 240.865 451.2 247.875 451.096 249.557C450.991 251.24 451.214 253.96 451.214 253.96C451.214 253.96 455.552 258.53 456.483 259.974C457.401 261.418 460.77 262.049 463.968 261.474C467.167 260.886 471.99 260.479 473.17 258.558C474.363 256.637 475.49 252.824 477.928 252.53C480.367 252.235 481.664 252.586 483.028 256.231C484.404 259.918 487.183 262.848 489.215 264.04C490.342 264.699 492.649 265.652 496.582 264.601" fill="#2D3544"/>
<ellipse cx="504" cy="232.5" rx="4" ry="4.5" fill="#FFD600"/>
<ellipse cx="504" cy="232.5" rx="6" ry="6.5" stroke="#FFC700" stroke-width="0.5"/>
<path d="M97.7949 100.104C104.616 100.496 109.172 99.8654 111.28 101.268C113.388 102.67 116.792 103.917 121.034 100.637C125.276 97.3557 124.491 92.827 125.63 92.6587C126.769 92.4905 135.017 90.3873 138.186 84.8491C141.354 79.2968 147.076 63.4953 148.817 62.0512C150.558 60.607 159.186 47.4976 161.7 44.2587C164.214 41.0199 168.757 40.417 172.056 41.4826C175.356 42.5482 176.626 47.1891 180.58 48.6052C184.521 50.0213 188.029 52.531 189.208 54.9847C190.386 57.4243 192.874 58.0833 192.861 61.1539C192.848 64.2244 190.884 66.9445 189.902 67.7437C188.92 68.5569 175.434 68.8794 175.434 68.8794C175.434 68.8794 171.48 69.7206 170.014 69.4822C168.443 70.688 168.325 70.8703 167.775 72.5949C167.225 74.3335 163.455 80.9793 163.965 86.3774C164.476 91.7754 163.428 95.1404 162.721 96.1219C162.014 97.1033 159.998 98.8279 159.815 102.305C158.283 105.249 153.478 112.652 153.727 116.831C153.975 121.009 153.858 123.617 154.015 124.486C154.172 125.355 151.278 129.926 148.66 132.408C148.66 132.408 147.521 133.501 147.351 134.721C147.18 135.941 146.342 140.344 145.203 141.325C144.064 142.307 149.969 142.461 149.969 142.461L182.688 142.657C182.688 142.657 192.298 129.309 198.412 129.463C204.526 129.618 208.415 133.403 209.331 134.287C210.248 135.156 210.536 142.825 211.269 146.359C212.015 149.906 216.545 153.355 220.761 153.79C224.99 154.224 233.238 161.347 233.003 164.137C232.767 166.927 233.513 169.423 231.117 171.722C228.721 174.022 224.204 178.817 221.756 180.948C219.308 183.079 215.131 184.86 214.202 185.547C213.272 186.234 209.41 189.697 207.943 190.384C206.477 191.071 203.492 193.258 202.458 193.945C201.423 194.632 193.594 199.175 191.316 200.717C189.038 202.274 186.079 206.662 185.084 212.229C184.075 217.795 184.678 218.089 185.149 219.421C185.633 220.753 195.191 226.151 195.244 227.427C195.296 228.703 198.582 242.878 198.883 246.594C199.184 250.309 199.512 251.697 200.913 252.174C202.314 252.651 209.58 251.641 211.439 248.879C213.298 246.117 218.719 244.168 222.529 242.443C226.339 240.719 234.692 236.597 236.538 235.335C238.384 234.073 242.194 231.185 245.768 231.914L249.342 232.629C249.342 232.629 255.718 236.611 254.933 240.438C254.16 244.266 249.12 254.557 244.852 261.259C240.596 267.961 237.415 273.401 237.52 275.491C237.624 277.58 238.371 278.042 237.611 279.557C236.852 281.071 222.241 298.611 220.709 300.924C219.177 303.238 210.575 312.155 207.524 316.011C204.474 319.867 190.871 329.99 189.993 331.953C189.116 333.915 189.993 334.392 190.831 336.832C191.682 339.271 191.447 342.286 190.792 344.025C190.137 345.763 185.45 349.479 185.66 351.918C185.869 354.358 187.741 361.088 186.72 362.406C185.411 364.088 177.097 367.72 175.618 366.907C174.02 366.023 172.502 361.803 172.266 359.574C172.03 357.358 171.402 352.998 172.266 351.918C173.13 350.839 172.397 349.086 171.873 349.002C171.349 348.918 168.901 349.282 166.95 350.544C164.999 351.806 159.645 349.366 159.121 348.623C158.597 347.88 156.882 349.212 156.673 349.787C156.463 350.362 153.74 351.764 152.025 352.591C150.31 353.404 145.793 355.984 142.179 355.311C138.565 354.638 133.603 354.919 132.543 356.082C131.482 357.246 126.992 361.144 128.798 364.677C130.605 368.21 131.679 372.178 131.011 377.086C130.33 381.993 123.705 382.568 121.781 386.774C119.843 390.98 118.913 391.892 119.948 394.471C120.982 397.051 124.674 398.846 124.988 401.552C125.303 404.258 125.276 415.433 125.564 416.092C125.852 416.751 126.167 424.238 126.533 425.023C126.9 425.808 126.586 430.898 127.515 431.725C128.445 432.552 129.44 436.127 129.361 437.039C129.283 437.95 129.466 441.483 128.68 441.778C127.895 442.072 117.604 445.451 114.737 450.218C114.645 452.952 114.292 458.659 115.012 459.711C115.732 460.762 120.72 464.884 120.969 471.404C121.218 477.938 119.123 490.626 118.992 492.533C118.861 494.44 117.892 502.011 117.905 505.797C115.915 505.797 104.813 507.984 102.456 516.271C101.029 516.439 99.1303 516.257 99.1303 516.257C97.0748 513.551 92.7542 508.559 83.8119 508.643C74.8696 508.713 64.317 521.977 62.8375 525.23C61.3318 525.566 59.093 525.384 59.093 525.384C59.093 525.384 55.1783 520.533 53.3977 519.608C51.6171 518.682 45.6599 516.467 43.3425 514.42C41.0251 512.373 32.0043 507.087 29.1632 506.933C26.3221 506.779 17.7595 505.39 14.6827 510.845C11.6059 516.313 10.0086 518.43 9.75986 521.122C9.49801 523.814 9.48492 526.814 9.48492 526.814L2.13994 533.951C2.13994 533.951 0.149856 534.329 0.032022 532.983C-0.0858119 531.637 0.110578 525.805 0.804489 524.066C1.4984 522.328 3.51467 510.592 7.07587 505.348C8.58153 498.086 9.31472 496.571 10.0217 494.048C10.7287 491.524 12.6664 486.799 11.0429 484.345C9.41946 481.891 6.47361 472.792 8.20184 467.31C9.94316 461.842 16.1098 462.136 17.5369 462.01C18.964 461.884 22.1586 455.771 23.062 453.78C23.9654 451.789 26.6625 448.227 29.9356 452.392C33.2088 456.542 36.2332 459.038 38.5113 459.234C40.7895 459.416 43.264 460.131 44.0757 460.229C44.8875 460.327 47.8857 454.116 48.7891 452.854C49.6925 451.592 50.4518 446.811 49.9805 442.241C49.5223 437.67 48.5534 427.435 47.0608 425.303C45.5683 423.158 25.1176 410.82 19.8805 409.432C19.4353 409.292 19.0033 405.941 20.2995 406.039C21.5956 406.137 28.7049 407.749 34.2169 400.641C39.7421 393.532 40.5669 389.718 41.0382 385.232C41.5096 380.759 44.5994 379.778 44.8482 379.343C45.0969 378.908 44.6387 372.122 46.236 370.692C47.8333 369.262 49.5877 366.977 50.4911 365.154C51.3945 363.331 50.8053 359.714 51.3291 359.195C51.8528 358.676 57.2077 353.362 57.6659 351.75C58.1241 350.138 59.381 343.408 60.3499 342.721C61.3318 342.034 60.5987 335.023 59.1323 334.49C57.6659 333.958 55.5449 333.733 55.702 330.256C55.9377 325.082 48.92 321.297 47.5453 320.413V313.768C47.5453 313.768 45.7385 309.085 41.7583 307.893C41.7583 307.893 42.1642 301.149 40.9204 297.489C39.6766 293.83 39.7421 289.652 39.2576 288.866C38.7732 288.081 37.2414 286.371 33.1303 286.567C29.0192 286.763 24.8819 286.469 24.8819 286.469C24.8819 286.469 24.3975 278.155 24.9343 277.594C25.4711 277.033 25.7722 272.154 26.2304 269.854C26.6887 267.555 27.3564 263.11 28.0765 258.946C28.7835 254.768 29.9618 225.534 29.8833 223.361C29.8178 221.188 30.3546 219.926 31.7032 218.328C33.0517 216.729 34.2824 213.518 34.7014 212.172C35.1203 210.826 45.1755 206.059 46.7466 201.46C48.3177 196.862 49.7448 196.427 50.7923 196.693C51.8397 196.96 57.9277 198.558 61.8163 195.319C65.6917 192.081 67.1057 187.299 66.3594 181.551C65.6131 175.802 66.1761 169.283 65.6917 168.231C65.2073 167.18 61.3318 163.674 61.3187 156.454C61.3187 149.233 66.6344 141.297 68.7161 141.185C70.7847 141.073 78.8367 141.115 82.9347 133.431C84.3356 130.613 89.2192 127.164 91.026 125.173C92.8197 123.182 96.3023 117.98 97.0093 114.251C97.7163 110.507 97.7687 100.118 97.7687 100.118L97.7949 100.104Z" fill="#2D3544"/>
<path d="M298.529 43C298.753 45.4464 298.423 47.5413 297.434 49.3972C296.445 51.2531 297.21 54.754 299.069 55.9069C300.929 57.0598 306.269 61.2636 308.023 64.2865C309.777 67.3093 313.917 68.7012 316.976 69.7557C320.036 70.8102 325.706 77.4323 330.611 77.6714C335.516 77.9104 342.399 74.1845 344.14 77.2074C345.881 80.2302 344.799 82.9156 342.505 85.2355C340.21 87.5554 337.27 89.8893 333.551 91.1687C329.833 92.4482 324.822 96.2865 324.057 100.715C323.293 105.144 325.587 113.51 323.833 117.699C322.079 121.889 316.198 130.156 315.434 133.643C314.669 137.13 314.787 147 314.787 147" stroke="#1A1F28" stroke-width="2" stroke-miterlimit="10"/>
<path d="M394.659 50C395.612 52.836 396.205 59.8213 395.934 62.6015C395.664 65.3816 394.389 73.4706 393.32 76.9912C392.251 80.5118 390.01 88.028 383.52 86.8824C377.029 85.7368 354.427 83.8228 353.629 83.6412C352.83 83.4596 345 80.9868 345 80.9868C345 80.9868 345.953 81.2802 346.867 81.392C347.782 81.5037 353.848 81.7412 356.14 80.6934C358.432 79.6456 362.85 73.5824 363.339 72.4787C363.828 71.375 363.493 61.1485 363.339 58.9552" stroke="#1A1F28" stroke-width="2" stroke-miterlimit="10"/>
<path d="M389.542 86C387.777 88.7188 390.783 91.7211 392 90.8449" stroke="#1A1F28" stroke-width="2" stroke-miterlimit="10"/>
<path d="M311 174C311.49 176.242 311.49 177.022 312.564 177.718C313.638 178.415 318.979 181.172 319.151 188.526C319.231 190.336 323.353 190.253 324.082 188.957C324.811 187.662 326.72 185.239 328.933 186.102C331.147 186.966 332.392 189.389 331.889 191.381C331.385 193.372 330.988 194.584 329.172 196.046C327.356 197.508 325.474 198.985 325.063 200.976C324.652 202.968 324.241 207.633 322.757 209.444C321.272 211.254 319.708 213.677 319.297 215.836C318.886 217.995 318.475 220.335 316.169 222.493C313.863 224.652 313.624 225 313.624 225" stroke="#1A1F28" stroke-width="2" stroke-miterlimit="10"/>
<path d="M372.614 86C373.674 89.9819 373.268 93.0867 374.485 95.3282C375.703 97.5698 378.949 102.763 377.731 104.921C376.514 107.079 371.475 114.597 371.226 115.544C370.977 116.491 370.166 120.64 368.543 121.684C366.92 122.728 363.425 124.705 361.723 124.357C360.022 124.009 355.624 122.283 354.328 121.586C353.032 120.89 343.516 121.322 342.39 121.155C341.265 120.988 338.333 118.384 335.977 116.839C333.621 115.293 332.652 114.931 330.453 117.187C328.254 119.442 324.445 123.327 323.385 123.926C322.325 124.524 319 126 319 126" stroke="#1A1F28" stroke-width="2" stroke-miterlimit="10"/>
<path d="M364 237.613C366.927 234.656 383.711 217.167 384.525 215.948C385.339 214.729 393.318 210.903 394.459 209.95C395.601 208.997 400.155 204.204 401.389 204.387C402.622 204.569 409.775 204.12 412.635 202.214C415.496 200.309 418.58 198.823 421.678 200.21C424.775 201.598 427.95 200.295 429.578 199.173C431.205 198.052 435.654 194.675 438.371 195.025C441.087 195.376 445.208 198.038 446.953 198.851C448.699 199.664 455.641 203.027 456.625 203.378C457.609 203.728 462.596 204.653 464.775 209.866C466.953 215.079 468.463 214.392 470.746 214.392C473.029 214.392 477.045 212.879 479.001 214.042C480.956 215.205 482.15 221.932 479.329 225.169C476.507 228.406 469.014 232.358 467.924 235.371C466.835 238.384 459.998 245.111 457.386 244.999C454.775 244.887 453.147 244.298 453.147 244.298" stroke="#1A1F28" stroke-width="2" stroke-miterlimit="10"/>
<path d="M331 188.239C332.903 189.953 342.229 191.501 344.703 191.584C347.178 191.667 350.65 192.704 352.633 192.013C354.615 191.322 355.52 191.418 357.755 189.262C359.99 187.106 361.134 186 363.449 186C365.764 186 368.319 186 368.159 188.225C367.999 190.451 368.159 196.284 368.571 198.095C368.984 199.906 369.888 205.725 371.631 207.881C373.374 210.038 375.516 212.429 377.991 213.369C380.465 214.309 386 215 386 215" stroke="#1A1F28" stroke-width="2" stroke-miterlimit="10"/>
<path d="M361.157 124C359.985 126.889 359.648 135.188 360.403 137.288C361.157 139.387 361.4 140.345 365.59 140.529C369.78 140.712 370.279 143.939 369.107 145.249C367.934 146.56 365.846 149.096 366.264 150.759C366.681 152.421 369.524 155.916 369.524 158.537C369.524 161.158 370.198 172.529 369.942 174.023C369.686 175.516 367.355 182.942 367.18 183.9C367.005 184.859 366.344 186 366.344 186" stroke="#1A1F28" stroke-width="2" stroke-miterlimit="10"/>
<path d="M369.013 121C369.539 123.025 370.5 124.691 370.5 127.721C370.5 130.751 371.514 136.452 370.654 137.888C369.795 139.324 369.808 139.913 369.641 140.444C369.474 140.975 369 143 369 143" stroke="#1A1F28" stroke-width="2" stroke-miterlimit="10"/>
<path d="M370 171.962C372.54 173.702 375.067 173.239 376.65 170.686C378.232 168.132 378.551 166.855 380.236 166.617C381.921 166.378 384.984 164.063 385.724 163.011C386.464 161.959 388.787 161.496 390.268 161.973C391.748 162.45 394.071 162.324 394.812 160.935C395.552 159.546 399.559 146.077 398.934 142.709C398.309 139.342 396.292 133.996 395.029 132.72C393.765 131.443 391.544 132.958 390.281 132.958C389.017 132.958 385.954 131.794 384.575 132.032C383.197 132.271 376.867 134.235 374.863 134.698C372.859 135.161 371.8 135.049 371.8 135.049" stroke="#1A1F28" stroke-width="2" stroke-miterlimit="10"/>
<path d="M427.016 108.129C426.911 110.671 427.451 111.132 424.079 112.641C420.706 114.149 416.662 115.183 416.451 118.996C416.24 122.809 415.252 132.978 417.11 133.439C418.967 133.9 419.178 138.174 421.141 139.445C423.104 140.716 427.24 141.764 430.85 140.255C434.46 138.747 437.713 136.903 439.36 133.662C441.007 130.422 444.485 126.385 445.354 125.575C446.224 124.765 450.15 118.633 450.808 116.677C451.467 114.722 453.101 109.051 452.995 107.43C452.89 105.81 452.89 105 452.89 105" stroke="#1A1F28" stroke-width="2" stroke-miterlimit="10"/>
<path d="M470.159 116C468.975 119.382 468.168 121.129 466.437 123.116C464.706 125.102 463.743 128.597 463.469 132.683C463.196 136.769 461.53 146.041 462.129 147.844C462.728 149.648 465.096 152.86 465.031 154.903C464.966 156.947 465.513 160.089 467.504 161.611C469.495 163.132 471.76 164.64 471.916 168.839C472.072 173.038 472.072 178.406 472.775 179.562C473.478 180.717 479.829 185.747 481.768 185.973C483.708 186.198 491.295 184.93 492.922 185.62C494.549 186.311 500.132 173.841 501.33 170.924C502.527 168.008 505.208 152.621 504.987 147.957C504.766 143.293 504.453 141.194 504.453 141.194" stroke="#1A1F28" stroke-width="2" stroke-miterlimit="10"/>
<path d="M437.992 195C436.819 186.929 434.37 185.661 432.876 183.458C431.381 181.256 429.138 177.576 429.035 172.851C428.932 168.125 428.816 163.623 432.45 160.849C436.084 158.075 445.466 152.193 449.306 150.813C453.147 149.433 458.366 145.851 459.861 144.234C461.356 142.617 462 141 462 141" stroke="#1A1F28" stroke-width="2" stroke-miterlimit="10"/>
<path d="M418.534 134C415.544 135.724 412.991 136.531 408.3 136.767C403.608 137.004 401.894 138.728 403.711 141.83C405.529 144.931 409.898 152.872 411.29 154.374C412.682 155.876 418.65 161.619 420.57 162.426C422.491 163.233 429 166 429 166" stroke="#1A1F28" stroke-width="2" stroke-miterlimit="10"/>
<path d="M725 241C725.16 245.539 726.16 246.762 734.104 246.228C742.049 245.694 751.806 245.188 752.312 248.322C752.819 251.456 749.166 256.177 752.805 259.663C756.444 263.148 762.563 262.108 763.229 269.612C763.896 277.117 764.549 287.052 766.868 293.334C769.187 299.616 771.334 313.402 771.667 316.016C772 318.629 772 323 772 323" stroke="#1A1F28" stroke-width="2" stroke-miterlimit="10"/>
<path d="M695.069 315.188C694.912 312.926 694.795 307.108 697.438 306.644C700.082 306.181 704.821 305.309 707.191 302.977C709.561 300.644 708.702 294.137 708.597 291.116C708.493 288.095 709.795 279.41 711.671 278.666C714.119 277.696 717.009 278.862 716.684 284.371C716.397 289.303 716.905 294.545 718.402 295.711C719.9 296.878 722.765 298.325 725.46 296.119C728.155 293.913 732.895 285.355 734.08 283.907C735.265 282.46 739.575 281.645 741.997 281.982C744.419 282.319 743.716 274.773 745.877 274.366C748.039 273.958 755.956 273.255 754.549 276.403C753.143 279.551 751.099 286.985 750.825 289.542C750.552 292.1 750.5 295.065 747.218 295.121C743.937 295.177 740.591 294.953 741.671 298.845C742.752 302.738 745.825 310.537 749.328 310.537C752.83 310.537 757.297 310.537 757.297 313.853C757.297 317.17 757.023 323.676 757.831 326.177C758.638 328.679 760.2 333.091 761.06 333.962C761.919 334.834 763 336 763 336" stroke="#1A1F28" stroke-width="2" stroke-miterlimit="10"/>
<path d="M725 241C724.274 244.287 723.44 248.566 720.885 250.153C718.33 251.74 717.039 253.851 717.214 255.31C717.389 256.77 718.438 258.002 719.944 257.946C721.45 257.889 723.897 260.765 723.279 263.57C722.66 266.376 718.438 271.136 717.214 273.361C715.99 275.585 714 279 714 279" stroke="#1A1F28" stroke-width="2" stroke-miterlimit="10"/>
<path d="M693 228C691.729 231.382 690.664 234.298 688.327 236.285C685.991 238.272 683.115 238.962 682.165 241.527C681.215 244.091 678.866 243.865 677.916 246.43C676.966 248.994 676.85 250.629 675.477 252.489C674.103 254.348 674.09 258.787 673.243 260.647C672.396 262.507 669.212 265.311 668.57 268.453C667.928 271.595 667.62 277.668 668.788 280.457C669.957 283.247 672.088 285.938 672.935 287.925C673.782 289.912 674.95 293.758 674.745 295.041C674.54 296.323 674.617 299 674.617 299" stroke="#1A1F28" stroke-width="2" stroke-miterlimit="10"/>
<path d="M618.011 108C618.341 111.74 619.159 121.908 617.602 123.729C616.045 125.55 612.771 125.466 613.59 128.603C614.408 131.74 616.625 132.511 616.375 134.598C616.124 136.684 615.306 137.469 614.408 138.337C613.511 139.206 612.442 142.161 613.339 143.73C614.236 145.298 616.282 145.9 618.17 146.167C620.057 146.433 622.024 146.335 622.512 146.867C623 147.399 624.888 146.349 625.547 143.477C626.207 140.606 628.741 139.037 630.048 139.57C631.355 140.102 636.766 141.923 638.983 142.441C641.201 142.959 643.326 143.659 645.543 143.926C647.76 144.192 650.044 144.094 650.294 142.707C650.545 141.32 650.783 138.449 651.693 137.497C652.604 136.544 653 135.578 653 135.578" stroke="#1A1F28" stroke-width="2" stroke-miterlimit="10"/>
<path d="M649 176C648.679 172.218 648.447 168.875 646.288 167.203C644.129 165.532 640.941 161.664 636.79 161.749C632.639 161.834 630.647 161.919 628.179 161.48C625.711 161.041 621.958 159.639 620.288 160.078C618.617 160.517 615.262 155.332 613.823 154.1C612.383 152.868 609.517 150.049 610.07 148.037C610.622 146.026 611.985 144.694 612.46 144.524C612.936 144.354 613.656 144 613.656 144" stroke="#1A1F28" stroke-width="2" stroke-miterlimit="10"/>
<path d="M538 128C540.275 129.159 544.601 131.144 545.242 132.409C545.882 133.675 547.895 137.538 548.863 139.189C549.83 140.841 552.222 143.052 554.81 142.999C557.399 142.946 558.327 140.908 560 142.12" stroke="#1A1F28" stroke-width="2" stroke-miterlimit="10"/>
<path d="M579.951 139C579.702 142.393 580.682 147.441 578.892 148.928C577.103 150.414 575.731 151.185 575.809 153.373C575.888 155.56 576.058 162.165 573.706 165.292C571.355 168.419 570.623 169.555 568.272 169.737C565.92 169.919 564.379 173.214 564.627 176.355C564.875 179.496 564.627 183.927 561.87 185.232C559.114 186.536 554.084 189.845 551.08 188.457C548.075 187.068 543.62 186.101 540.864 187.587C538.107 189.074 531.458 192.467 529.263 193.336C527.068 194.206 525.213 194.725 524.312 195.86C523.41 196.996 519.687 202.914 517.506 202.998C515.324 203.082 512.959 200.74 511.993 198.735C511.026 196.73 508.91 194.038 506.323 194.206C503.736 194.374 500.157 196.646 497.165 196.898C494.174 197.151 489.458 196.73 491.495 193.336C493.533 189.943 494.095 185.161 494.095 185.161" stroke="#1A1F28" stroke-width="2" stroke-miterlimit="10"/>
<path d="M481 219C484.158 217.735 487.316 212.329 488.079 208.758C488.842 205.186 490.803 198.293 490.908 197.723C491.013 197.153 492 196 492 196" stroke="#1A1F28" stroke-width="2" stroke-miterlimit="10"/>
<path d="M552.378 189C552.86 191.854 552.939 194.958 552.221 197.296C551.504 199.635 553.917 200.665 555.299 200.665C556.682 200.665 562.669 202.043 561.938 205.077C561.208 208.112 555.299 210.868 554.569 213.109C553.839 215.35 552.952 217.522 554.569 220.194C556.186 222.867 559.265 225.205 558.534 227.279C557.804 229.353 556.343 231.344 552.143 231.511C547.943 231.678 543.965 230.815 543.639 234.183C543.313 237.552 542.021 239.974 540.404 241.269C538.787 242.563 534.417 244.637 534.248 247.059C534.078 249.481 534 252.933 532.383 255.522C530.765 258.112 528.417 261.049 528.652 263.819C528.887 266.589 529.787 270.041 529.709 271.767C529.63 273.493 529.63 277.293 529.056 278.852C528.483 280.411 528 283 528 283" stroke="#1A1F28" stroke-width="2" stroke-miterlimit="10"/>
<path d="M544 284.759C546.918 283.341 550.936 281.079 555.149 281.566C559.363 282.053 562.726 279.676 563.485 278.845C564.244 278.015 569.439 278.731 570.421 278.487C571.402 278.244 572.475 273.862 574.53 273.633C576.584 273.404 582.539 271.027 582.434 269.724C582.329 268.421 588.794 268.95 590.508 270.726C592.222 272.502 597.823 278.63 599.04 279.518C600.257 280.406 604 281.38 604 283.427C604 285.475 603.843 287.695 603.516 288.582C603.189 289.47 602.783 290 602.783 290" stroke="#1A1F28" stroke-width="2" stroke-miterlimit="10"/>
<path d="M568 148.408C569.42 148.054 574.416 148.763 575.284 149.528C576.151 150.294 581.371 146.707 583.277 146.778C585.184 146.849 586.38 144.778 588.168 145.02C589.956 145.261 593.44 147.898 595.018 149.599C596.595 151.301 600.461 155.172 601.552 155.881C602.643 156.59 604.273 157.696 606.614 158.291C608.954 158.887 612.32 160.106 613.845 159.993C615.37 159.879 617 157.937 617 157.937" stroke="#1A1F28" stroke-width="2" stroke-miterlimit="10"/>
<path d="M564 182.432C565.359 183.301 571.814 183.539 574.427 184.113C577.04 184.688 580.38 185.22 583.389 184.352C586.398 183.483 591.256 181.913 592.232 180.526C593.209 179.138 595.347 181.913 596.377 183.945C597.406 185.977 598.238 186.44 599.109 185.977C599.98 185.515 604.521 185.22 606.923 187.771C609.325 190.322 610.579 192.648 612.44 191.835C614.301 191.022 616.149 190.21 616.756 187.084C617.363 183.959 616.756 177.05 615.832 175.887C614.908 174.724 610.42 175.369 610.42 173.911C610.42 172.454 611.463 169.903 609.378 167.647C607.292 165.39 606.976 161.621 607.411 159" stroke="#1A1F28" stroke-width="2" stroke-miterlimit="10"/>
<path d="M652.382 296C654.488 294.665 656.868 288.793 655.626 286.756C654.383 284.718 650.433 280.475 648.746 280.124C647.059 279.773 643.554 278.199 642.743 274.771C641.932 271.343 641.448 267.859 643.122 266.51C644.796 265.162 648.694 264.178 649.021 260.525C649.348 256.873 648.21 252.208 648.21 249.834C648.21 247.46 647.124 238.089 649.884 239.072C652.644 240.055 655.626 241.629 658.059 244.706C660.491 247.783 666.39 249.651 668.444 248.373C670.497 247.094 671.53 242.669 673.636 242.205C675.742 241.741 679.757 242.444 680.189 242.669C680.621 242.893 681 243.484 681 243.484" stroke="#1A1F28" stroke-width="2" stroke-miterlimit="10"/>
<path d="M634.702 200.813C636.039 201.483 636.581 205.06 635.169 205.797C633.756 206.534 631.877 207.298 630.629 206.883C629.38 206.467 628.75 204.31 628.598 202.97C628.447 201.63 625.786 198.147 625.395 197.061C625.004 195.976 623.667 193.229 621.713 192.492C619.758 191.755 616.542 190.657 616.391 190.415C616.24 190.174 616 190 616 190" stroke="#1A1F28" stroke-width="2" stroke-miterlimit="10"/>
<path d="M591 271C593.287 268.146 595.403 265.64 596.954 263.746C598.505 261.853 600.95 258.135 601.358 256.493C601.765 254.85 607.72 248.891 609.757 248.195C611.794 247.499 614.568 245.605 617.105 248.793C619.641 251.982 619.063 254.404 618.813 256.312C618.564 258.219 618.156 262.452 619.063 263.134C619.97 263.816 624.203 265.125 624.86 266.503C625.517 267.881 627.554 268.146 629.105 267.533C630.656 266.921 638.569 267.798 639.384 268.745C640.199 269.691 642 270.22 642 270.22" stroke="#1A1F28" stroke-width="2" stroke-miterlimit="10"/>
<path d="M631 207C630.919 209.996 629.574 214.142 626.735 214.142C623.896 214.142 620.048 213.873 618.554 214.228C617.061 214.583 614.706 217.934 614.289 219.425C613.872 220.916 609.943 222.335 609.445 222.591C608.947 222.847 609.028 227.703 608.53 229.109C608.032 230.514 606.606 235.896 607.104 237.657C607.602 239.417 608.274 241.363 610.104 243.124C611.934 244.884 613.105 247 613.105 247" stroke="#1A1F28" stroke-width="2" stroke-miterlimit="10"/>
<path d="M611 191C608.963 193.397 605.295 196.75 601.864 196.85C598.434 196.95 596.068 196.137 594.687 198.363C593.307 200.589 588.983 202.173 587.839 202.444C586.695 202.715 587.182 206.61 588.812 208.551C590.442 210.491 591.336 213.602 590.613 215.371C589.89 217.141 583.922 218.653 584.001 219.538C584.08 220.422 584.08 222.192 586.695 224.147C589.311 226.101 590.126 227.771 590.205 229.369C590.284 230.967 591.756 233.892 594.937 232.736C598.118 231.581 601.22 229.112 603.1 228.841C604.98 228.57 609.462 227.956 609.462 227.956" stroke="#1A1F28" stroke-width="2" stroke-miterlimit="10"/>
<path d="M559 227.034C560.623 229.336 562.496 230.256 564.041 230.538C565.586 230.821 570.377 231.37 574.03 230.627C577.683 229.885 582.802 228.326 583.941 227.584C585.08 226.841 588 225 588 225" stroke="#1A1F28" stroke-width="2" stroke-miterlimit="10"/>
<path d="M568.698 231C567.711 233.948 566.217 237.512 566.137 239.761C566.057 242.011 565.643 243.059 566.804 244.876C567.965 246.692 570.286 250.605 568.872 253.022C567.458 255.44 567.551 257.969 570.366 259.785C573.181 261.602 573.434 264.467 573.514 265.598C573.595 266.73 577.41 267.163 578.891 266.73C580.372 266.297 583 270 583 270" stroke="#1A1F28" stroke-width="2" stroke-miterlimit="10"/>
<path d="M452.192 298.459C450.457 304.154 448.021 307.857 448.021 310.536C448.021 313.215 447.713 316.693 449.448 315.88C451.183 315.066 458 308.909 458 305.318C458 301.727 457.385 297.772 455.047 298.01C452.709 298.249 452.192 298.473 452.192 298.473V298.459Z" fill="#416481"/>
<path d="M425.938 319C428.4 319.166 428.165 321.927 427.707 324.772C427.25 327.616 426.483 331.667 426.322 332C425.629 328.642 424.714 325.202 424.627 324.591C424.541 323.981 424.17 322.954 424.009 321.234C423.848 319.513 425.926 319 425.926 319H425.938Z" fill="#416481"/>
<path d="M296 569.276C298.77 569.975 303.983 570.31 305.125 569.625C306.267 568.94 305.611 555.045 306.425 554.01C307.239 552.976 308.223 551.927 311.808 552.794C315.392 553.661 325.502 554.36 327.458 552.445C329.414 550.529 341.637 533.531 344.736 528.498C347.834 523.466 354.517 518.084 355.331 519.132C356.145 520.181 355.988 524.514 355.988 524.514" stroke="#1A1F28" stroke-width="2" stroke-miterlimit="10"/>
<path d="M355.386 519C356.155 514.124 356.304 506.825 355.237 503.869L352 495" stroke="#1A1F28" stroke-width="2" stroke-miterlimit="10"/>
<path d="M287 490.752C288.967 491.95 294.433 493.379 298.038 490.391C301.642 487.403 306.013 485.137 309.842 489.193C313.67 493.249 320.444 501.26 322.952 502.458C325.461 503.657 331.799 504.609 333 503.527" stroke="#1A1F28" stroke-width="2" stroke-miterlimit="10"/>
<path d="M374 465C377.311 463.148 383.92 454.197 387.437 448.74C390.954 443.282 403.747 437.937 406.736 434.345C409.725 430.754 411 429 411 429" stroke="#1A1F28" stroke-width="2" stroke-miterlimit="10"/>
<path d="M584.207 102.394C586.994 101.615 590.033 101.88 590.772 104.2C591.512 106.521 592.899 110.148 594.3 110.676C595.7 111.204 596.281 111.26 595.871 113.15C595.462 115.039 594.96 117.666 594.551 118.958C594.141 120.251 592.424 124.989 592.662 127.588C592.899 130.187 592.411 130.173 591.103 131.812C589.795 133.452 589.703 136.815 588.646 137.246C587.589 137.677 584.96 136.468 583.732 137.163C582.503 137.857 580.865 139.58 579.795 138.802C578.725 138.024 574.551 131.034 575.04 127.505C575.528 123.975 577.417 123.016 579.135 120.779C580.852 118.541 584.551 116.04 584.049 110.259C583.547 104.478 583.89 102.588 584.207 102.408" fill="#0088BD"/>
<path d="M335.907 502.996C339.962 499.053 349.067 494.169 349.941 492.654C350.816 491.138 353.997 489.286 354.99 488.823C355.984 488.36 355.865 482.663 359.152 480.572C362.438 478.481 367.381 479.534 368.15 479.183C368.919 478.832 371.556 476.054 372.974 470.932C374.392 465.81 374.18 462.344 373.305 462.106C372.431 461.867 370.668 455.258 371.662 451.89C372.656 448.523 374.299 441.212 373.305 439.233C372.311 437.255 370.456 435.515 367.819 435.403C365.182 435.29 362.889 434.589 362.226 430.056C361.564 429.706 359.814 430.983 358.714 434.126C357.614 437.269 352.353 442.952 350.922 443.191C349.491 443.429 345.992 440.174 344.892 441.212C343.792 442.25 342.586 452.354 342.48 454.683C342.374 457.012 341.274 461.068 340.4 461.881C339.525 462.695 339.525 465.361 339.525 466.414C339.525 467.466 337.776 469.894 335.032 471.634C332.289 473.374 328.896 477.794 329.002 480.348C329.108 482.902 329.983 488.935 331.202 491.153C332.422 493.37 332.846 496.85 332.634 498.814C332.422 500.779 333.177 501.256 334.065 502.182C334.953 503.108 335.933 502.996 335.933 502.996H335.907Z" fill="#0088BD"/>
<path d="M37 287C44.3755 279.075 56.952 269.756 61.7205 268.588C66.4891 267.42 76.6812 260.438 79.9301 256.243C83.179 252.048 91.2096 243.194 95.3231 241.562C99.4367 239.929 110.284 235.269 113.1 231.075C115.917 226.88 118.956 220.588 118.956 211.734C118.956 202.88 120.476 194.955 122.205 192.857C123.934 190.76 124.157 184.707 124.59 182.61C125.022 180.512 127.406 176.092 130.013 174.22C132.62 172.348 135.214 166.07 135.869 163.973C136.524 161.875 140.428 151.628 141.293 149.53C142.157 147.433 145 141 145 141" stroke="#1A1F28" stroke-width="2" stroke-miterlimit="10"/>
<path d="M119 217.924C123.997 216.719 141.558 216.553 144.297 218.27C147.035 219.987 153.642 223.949 157.51 226.178C161.378 228.408 168.14 225.486 172.332 224.627C176.524 223.769 182.482 219.475 182.962 219.475C183.442 219.475 185 219.849 185 219.849" stroke="#1A1F28" stroke-width="2" stroke-miterlimit="10"/>
<path d="M45 377.811C47.6748 377.728 50.3497 378.406 54.7991 375.236C59.2484 372.067 64.3502 368.538 68.3299 369.05C72.3095 369.562 79.2641 369.825 80.5558 371.624C81.8476 373.423 82.9045 374.71 83.7135 378.323C84.5224 381.935 85.9838 385.104 87.5235 386.225C89.0632 387.346 90.5245 389.146 95.0522 389.921C99.5799 390.696 103.716 392.149 104.525 392.675C105.334 393.201 108.492 394.391 110.605 394.571C112.719 394.751 120 395 120 395" stroke="#1A1F28" stroke-width="2" stroke-miterlimit="10"/>
<path d="M61 338.89C65.392 338.013 73.3631 332.922 74.8315 330.107C76.2998 327.293 77.1127 316.771 80.6918 317.464C84.2709 318.157 87.5223 323.079 90.2886 321.848C93.0549 320.618 94.851 316.05 98.9153 316.404C102.979 316.757 105.261 316.757 106.244 315.004C107.227 313.25 110.636 309.389 112.262 310.082C113.887 310.775 114.871 313.066 113.887 315.343C112.904 317.62 111.606 320.957 113.074 322.372C114.543 323.786 120.075 323.602 118.935 328.34C117.794 333.077 115.513 338.875 116.326 343.613C117.139 348.351 117.624 353.965 119.905 355.379C122.186 356.793 126.736 359.763 127.234 359.947C127.732 360.131 130 359.777 130 359.777" stroke="#1A1F28" stroke-width="2" stroke-miterlimit="10"/>
<path d="M80 371C81.8725 367.253 84.834 361.099 88.3533 359.772C91.8725 358.445 94.0637 357.483 97.251 358.081C100.438 358.679 106.813 356.871 109.336 355.427C111.859 353.984 115.272 353.852 116.587 354.1C117.902 354.348 120 354.771 120 354.771" stroke="#1A1F28" stroke-width="2" stroke-miterlimit="10"/>
<path d="M200.941 251C201.272 254.481 200.173 256.11 198.636 256.812C197.099 257.513 193.483 259.254 191.297 259.717C189.111 260.181 186.687 264.364 185.044 264.715C183.402 265.066 178.024 266.455 175.944 267.621C173.864 268.786 173.202 275.285 174.632 277.377C176.063 279.468 178.686 281.448 178.911 287.484C179.136 293.52 182.196 301.423 182.316 303.627C182.435 305.831 182.422 307.81 179.905 310.126C177.388 312.443 163.028 324.641 163.134 326.508C163.24 328.375 163.677 330.341 163.571 331.393C163.465 332.446 161.544 339.114 160.233 341.122C158.921 343.129 159.001 348 159.001 348" stroke="#1A1F28" stroke-width="2" stroke-miterlimit="10"/>
<path d="M174 272C172.935 277.443 172.291 278.306 167.965 281.327C163.639 284.348 149.767 289.972 147.637 291.086C145.507 292.2 136.211 295.833 133.766 302.487C131.32 309.142 130.913 311.731 129.519 313.722C128.125 315.712 122.668 319.763 122.011 320.64C121.354 321.517 121.603 323.578 121.038 324.441C120.473 325.304 119 326 119 326" stroke="#1A1F28" stroke-width="2" stroke-miterlimit="10"/>
<circle cx="409" cy="166" r="4" fill="#FFD600"/>
<circle cx="409" cy="166" r="6" stroke="#FFC700" stroke-width="0.5"/>
<circle cx="416" cy="227" r="4" fill="#FFD600"/>
<circle cx="416" cy="227" r="6" stroke="#FFC700" stroke-width="0.5"/>
<ellipse cx="327" cy="527.5" rx="4" ry="4.5" fill="#FFD600"/>
<ellipse cx="327" cy="527.5" rx="6" ry="6.5" stroke="#FFC700" stroke-width="0.5"/>
</svg>
