<svg width="413" height="667" viewBox="0 0 413 667" fill="none" xmlns="http://www.w3.org/2000/svg">
<path d="M405.059 254.586C403.906 256.374 361.131 273.487 358.583 274.761C356.035 276.043 341.647 290.98 340.252 292.389C338.847 293.788 327.647 314.351 326.503 316.266C325.351 318.18 324.973 334.147 324.459 339.89C323.955 345.643 314.664 365.691 310.207 371.949C305.993 377.873 278.857 420.733 274.985 426.666C275.3 425.555 275.598 424.752 275.832 424.426C276.975 422.828 307.281 375.507 311.476 369.068C315.258 363.271 315.033 363.668 316.122 359.794C316.122 359.794 297.35 353.075 295.108 349.038C292.875 345.001 285.276 339.168 278.569 339.168C278.461 339.168 278.353 339.168 278.236 339.177C278.128 339.168 278.01 339.168 277.902 339.168C271.195 339.168 260.022 345.444 255.106 348.135C250.19 350.826 233.2 372.346 230.067 378.18C228.689 380.736 226.448 381.486 224.179 381.513H224.143C221.487 381.377 218.921 380.429 217.768 380.429C217.714 380.429 217.642 380.438 217.57 380.456C214.887 381.124 202.849 394.128 196.754 403.746C194.71 406.979 193.279 412.849 192.225 419.532C190.055 433.24 189.461 450.336 188.264 454.86C186.472 461.588 155.626 501.052 153.393 505.089C151.151 509.125 152.052 526.826 148.027 561.359L152.277 572.458C153.807 580.594 157.076 595.26 155.257 601.202C154.987 602.105 154.42 603.424 153.663 605.004C153.789 604.661 153.906 604.345 153.987 604.074C155.797 598.132 151.98 583.484 150.458 575.338C148.928 567.202 142.625 557.34 141.284 555.227C139.951 553.123 119.99 548.815 117.793 548.048C115.606 547.28 114.165 543.74 110.348 538.565C106.53 533.391 98.508 519.411 95.744 508.972C92.9709 498.532 84.3726 482.729 73.8745 473.725C63.3674 464.721 49.7182 463.286 48.5657 462.139C47.4223 460.983 43.3167 426.413 42.4613 423.252C41.597 420.092 32.4315 409.454 29.7574 404.577C27.0834 399.691 23.2659 395.664 23.6441 389.153C24.0312 382.641 21.9244 380.537 20.781 378.812C19.6375 377.088 2.44987 349.788 2.06272 348.641C1.68457 347.494 3.11613 337.244 3.69235 335.519C4.25957 333.794 4.93483 325.269 5.50205 324.411C6.07827 323.545 6.74453 311.579 7.32075 311.001C7.88797 310.423 9.5176 299.126 9.89575 297.401C10.2829 295.676 26.129 275.754 27.6596 275.754C29.1902 275.754 33.863 280.54 39.022 284.947C44.181 289.354 51.1497 300.561 52.5813 303.533C52.5813 303.533 69.3818 304.58 75.117 304.101C80.8432 303.623 96.6983 295.387 102.425 291.657C108.151 287.918 125.726 270.3 128.111 263.779C130.497 257.268 133.361 250.757 134.702 246.54C136.035 242.332 130.975 226.618 130.398 224.324C129.831 222.021 122.664 216.278 118.658 212.928C114.642 209.577 111.689 202.199 109.015 196.934C106.341 191.66 106.629 185.727 106.818 181.898C107.007 178.06 111.302 170.113 113.886 164.938C116.461 159.773 119.135 149.234 122.187 139.941C125.248 130.658 132.595 121.176 133.748 118.494C134.891 115.811 149.783 105.562 151.313 104.505C152.844 103.457 170.986 103.168 174.804 103.069C178.621 102.979 191.613 97.3256 194.188 96.1787C196.763 95.0228 214.239 86.1185 218.344 84.1047C222.45 82.0999 230.184 75.968 234.956 72.5183C239.737 69.0686 242.789 58.3401 243.176 57.4822C243.554 56.6243 246.84 29.8031 246.462 27.2113L249.289 3C249.289 3 265.685 3.29801 266.576 3.45153C267.476 3.59603 270.601 9.87236 273.437 11.5159C276.264 13.1595 283.566 12.8615 288.482 11.3715C293.406 9.87236 299.961 8.97832 302.347 10.7754C304.724 12.5635 323.208 15.8507 328.421 16.0042C333.634 16.1487 335.129 13.1595 340.342 13.1595C345.555 13.1595 354.648 15.5527 357.484 17.3498C360.311 19.1469 360.464 29.1529 363.445 31.546C366.425 33.9392 365.38 41.1186 365.38 43.2047C365.38 45.2907 360.464 55.0168 360.464 56.3624C360.464 57.708 359.123 66.3774 358.529 69.6646C357.925 72.9518 367.766 83.4183 371.197 82.6688C374.618 81.9193 380.731 72.8073 392.418 59.5863C393.228 58.6742 392.229 66.8651 392.04 71.6604C391.841 76.4467 392.454 104.857 393.345 116.922C394.236 128.996 395.506 134.297 396.145 135.95C396.775 137.612 396.208 144.448 395.38 148.728C394.552 153 398.144 161.209 399.774 165.227C401.394 169.255 404.257 180.742 404.257 184.86C404.257 188.978 409.893 228.027 410.272 231.856C410.659 235.685 406.202 252.798 405.059 254.586Z" fill="#2D3544" stroke="#1A1F28" stroke-width="4" stroke-miterlimit="10"/>
<path d="M362.508 570.769C361.068 576.034 350.524 587.81 348.211 589.806C345.537 592.099 324.153 590.953 319.949 592.488C315.744 594.014 290.534 624.285 285.951 628.114C281.369 631.943 263.038 638.075 256.546 638.842C250.055 639.61 219.875 631.175 219.875 631.175C219.875 631.175 200.013 640.378 185.887 656.85C185.887 656.85 169.744 663.939 168.789 664.219C167.835 664.508 149.216 663.451 148.36 663.072C147.496 662.692 139.195 652.732 138.808 651.964C138.429 651.196 139.096 634.056 139.096 634.056C139.096 634.056 139.555 633.288 140.338 631.979C143.66 626.362 152.718 610.865 154.996 605.022C154.996 605.022 154.999 605.016 155.005 605.004C155.761 603.424 156.328 602.105 156.598 601.202C158.417 595.26 155.149 580.594 153.618 572.458L149.369 561.359C153.393 526.826 152.493 509.125 154.735 505.089C156.968 501.052 187.814 461.588 189.605 454.86C190.803 450.336 191.397 433.241 193.567 419.532C194.62 412.849 196.052 406.979 198.095 403.746C204.191 394.129 216.229 381.124 218.912 380.456C218.984 380.438 219.056 380.429 219.11 380.429C220.262 380.429 222.828 381.377 225.484 381.513H225.52C227.789 381.486 230.031 380.736 231.408 378.18C234.542 372.347 251.531 350.826 256.447 348.135C261.363 345.444 272.536 339.168 279.244 339.168C279.352 339.168 279.469 339.168 279.577 339.177C279.694 339.168 279.802 339.168 279.91 339.168C286.618 339.168 294.217 345.002 296.45 349.038C298.691 353.075 317.464 359.794 317.464 359.794C316.374 363.668 316.599 363.271 312.818 369.068C308.622 375.507 278.317 422.828 277.173 424.427C276.939 424.752 276.642 425.555 276.327 426.666C276.102 427 275.958 427.217 275.895 427.307C274.85 428.752 272.752 439.417 271.429 444.98C271.294 445.531 271.177 446.028 271.06 446.461C269.79 451.311 233.245 472.063 230.895 474.041C230.166 474.655 229.094 476.588 227.942 479.044C227.942 479.071 227.924 479.098 227.906 479.125C225.349 484.634 222.414 492.735 221.982 494.794C221.442 497.322 229.833 508.999 234.425 512.693C235.271 513.379 235.991 513.794 236.495 513.821C239.737 514.011 257.69 502.777 258.968 502.967C259.337 503.021 260.355 503.364 261.705 503.833C264.928 504.962 270.033 506.85 272.752 507.437C277.245 508.403 284.43 530.808 284.43 530.808H297.926C297.926 530.808 320.327 540.254 334.084 543.063C347.832 545.871 360.437 565.54 362.472 568.863C362.742 569.306 362.733 569.965 362.508 570.769Z" fill="#2D3544" fill-opacity="0.5" stroke="#1A1F28" stroke-width="4" stroke-miterlimit="10"/>
<path d="M278.234 339.177C284.861 339.357 292.244 345.056 294.441 349.029C296.683 353.066 315.455 359.794 315.455 359.794" stroke="#1A1F28" stroke-width="4" stroke-miterlimit="10"/>
<path d="M224.142 381.513C221.585 381.531 218.983 380.655 217.569 380.456C217.398 380.429 217.236 380.42 217.101 380.42C214.868 380.42 202.345 393.876 196.087 403.737C189.83 413.608 189.38 448.132 187.597 454.86C185.805 461.588 154.959 501.043 152.726 505.08C150.485 509.116 150.935 529.3 146.91 563.824" stroke="#1A1F28" stroke-width="4" stroke-miterlimit="10"/>
<path d="M24.8594 379.084C29.7753 376.844 35.1414 374.153 40.5074 377.286C45.8735 380.42 63.7544 384.014 70.462 378.632C77.1696 373.25 99.0751 343.656 103.1 341.859C107.124 340.062 118.298 338.716 125.455 347.693C132.613 356.669 146.019 366.079 150.044 366.079C154.068 366.079 166.142 366.079 171.058 360.245C175.974 354.412 180.449 350.384 186.256 349.932C192.063 349.481 198.329 352.172 201.454 360.245C204.578 368.319 214.869 379.084 214.869 379.084L217.102 380.429" stroke="#1A1F28" stroke-width="4" stroke-miterlimit="10"/>
<path d="M146.459 109.58C151.825 116.751 152.275 129.312 155.85 131.552C159.424 133.792 172.839 149.044 175.072 156.215C177.305 163.385 184.904 187.606 185.354 197.467C185.804 207.329 189.829 217.199 193.403 218.987C196.978 220.775 205.477 221.678 209.943 215.402C214.408 209.126 224.699 194.324 224.699 194.324C224.699 194.324 237.664 218.987 241.689 220.333C245.713 221.678 254.654 229.3 259.129 228.406C263.603 227.512 272.985 234.683 273.885 241.862C274.786 249.041 260.029 261.594 251.98 261.594C243.931 261.594 244.831 275.646 250.188 280.125C255.545 284.604 268.969 293.581 270.752 307.633C272.535 321.684 272.841 333.045 277.901 339.168" stroke="#1A1F28" stroke-width="4" stroke-miterlimit="10"/>
<path d="M239.457 67.8767C246.606 73.259 259.13 85.5137 260.912 90.5979C262.695 95.6822 266.278 114.511 268.664 120.192C271.05 125.872 277.902 155.167 280.585 159.051C283.268 162.934 281.773 170.709 281.179 179.081C280.585 187.452 271.942 200.908 270.15 203.59C268.358 206.272 264.487 220.929 264.19 223.918C263.892 226.907 263.595 229.3 263.595 229.3" stroke="#1A1F28" stroke-width="4" stroke-miterlimit="10"/>
<path d="M359.265 56.5161C353.602 62.1964 351.216 63.0905 351.216 65.1856C351.216 67.2807 344.365 80.4294 341.682 82.2265C338.999 84.0236 330.058 89.0989 328.87 90.598C327.681 92.0971 322.315 107.639 322.018 108.831C321.721 110.023 309.206 121.989 305.325 125.574C301.445 129.159 295.188 139.328 296.385 140.818C297.582 142.308 305.325 161.742 305.92 165.932C306.514 170.122 309.197 185.366 307.414 188.355C305.632 191.344 296.088 184.472 291.316 184.77C286.544 185.068 277.307 191.046 277.307 191.046" stroke="#1A1F28" stroke-width="4" stroke-miterlimit="10"/>
<path d="M153.617 520.333C156.75 527.06 163.008 534.908 164.349 538.267C165.691 541.627 169.941 543.876 171.723 538.719C173.506 533.562 174.856 533.111 174.856 533.111C174.856 533.111 182.455 538.042 185.814 539.387C189.172 540.733 191.846 545.221 193.863 544.995C195.88 544.77 199.004 543.876 201.912 534.005C204.82 524.134 206.603 523.015 209.736 520.775C212.869 518.535 220.909 514.273 227.842 513.605C234.775 512.936 238.349 510.688 238.349 510.688" stroke="#1A1F28" stroke-width="4" stroke-miterlimit="10"/>
<path d="M239.232 465.624C236.324 462.708 227.158 455.311 226.933 451.049C226.708 446.786 228.275 442.081 231.849 441.404C235.424 440.727 238.782 444.989 243.473 444.547C248.163 444.104 253.755 442.533 256.438 444.095C259.121 445.658 267.836 446.109 267.836 446.109H269.178" stroke="#1A1F28" stroke-width="4" stroke-miterlimit="10"/>
<path d="M247.505 357.103C248.847 364.499 250.188 365.619 248.171 368.31C246.155 371.001 243.481 373.466 241.914 373.241C240.347 373.015 239.906 376.6 238.115 378.623C236.323 380.646 235.432 392.295 235.206 394.093C234.981 395.89 227.382 400.595 224.699 401.714C222.016 402.834 217.767 405.3 216.425 407.991C215.084 410.682 212.851 413.599 209.718 413.147C206.584 412.696 203.01 412.922 200.102 414.267C197.194 415.613 192.053 419.649 192.053 419.649" stroke="#1A1F28" stroke-width="4" stroke-miterlimit="10"/>
<path d="M263.261 501.44C257.229 506.597 245.047 514.95 247.055 525.038C249.063 535.125 248.622 550.378 250.404 552.166C252.187 553.954 242.13 557.097 235.432 557.548C228.733 558 222.241 554.857 221.575 551.714C220.909 548.572 217.551 542.295 220.909 540.281C224.267 538.268 222.25 527.051 218.226 524.36C214.201 521.669 210.627 520.549 210.627 520.549" stroke="#1A1F28" stroke-width="4" stroke-miterlimit="10"/>
<path d="M307.911 601.049C297.629 592.533 296.234 588.496 289.076 588.939C281.918 589.381 277.452 589.39 275.219 587.142C272.987 584.893 272.536 587.142 269.853 584.451C267.17 581.759 260.913 576.829 256.438 573.243C251.964 569.658 246.156 568.755 246.156 565.622C246.156 562.488 250.406 552.166 250.406 552.166" stroke="#1A1F28" stroke-width="4" stroke-miterlimit="10"/>
<path d="M252.863 510.164C264.487 510.76 274.021 523.322 275.219 528.695C276.416 534.068 282.971 547.226 286.545 550.522C290.12 553.818 295.783 552.915 296.683 557.097C297.584 561.278 293.109 569.351 291.317 570.552C289.525 571.753 289.823 578.03 287.743 581.913C285.663 585.796 281.485 589.39 281.485 589.39" stroke="#1A1F28" stroke-width="4" stroke-miterlimit="10"/>
<circle cx="192" cy="289" r="4" fill="#FFD600"/>
<circle cx="192" cy="289" r="6" stroke="#FFC700" stroke-width="0.5"/>
<circle cx="211" cy="191" r="4" fill="#FFD600"/>
<circle cx="211" cy="191" r="6" stroke="#FFC700" stroke-width="0.5"/>
<circle cx="218" cy="337" r="4" fill="#FFD600"/>
<circle cx="218" cy="337" r="6" stroke="#FFC700" stroke-width="0.5"/>
<circle cx="133" cy="397" r="4" fill="#FFD600"/>
<circle cx="133" cy="397" r="6" stroke="#FFC700" stroke-width="0.5"/>
<circle cx="146" cy="331" r="4" fill="#FFD600"/>
<circle cx="146" cy="331" r="6" stroke="#FFC700" stroke-width="0.5"/>
</svg>
